<svg id="Layer_1" data-name="Layer 1" xmlns="http://www.w3.org/2000/svg" viewBox="0 0 1000 1000"><defs><style>.cls-1,.cls-10,.cls-13,.cls-7{fill:none;stroke-miterlimit:10;}.cls-1{stroke:#e8a54f;stroke-width:50px;}.cls-2{fill:#d38b3d;}.cls-3{fill:#ffd8c5;}.cls-4{fill:#f97171;}.cls-5{fill:#e55c5c;}.cls-6{fill:#f99192;}.cls-7{stroke:#3a3144;stroke-width:2px;}.cls-8{fill:#3a3144;}.cls-9{fill:#d18c3d;}.cls-10{stroke:#2e60b8;stroke-width:80px;}.cls-11{fill:#2e60b8;}.cls-12{fill:#124a9b;}.cls-13{stroke:#71d2c1;stroke-width:32px;}.cls-14{fill:#71d2c1;}.cls-15{fill:#e8a54f;}.cls-16{fill:#ffece5;}.cls-17{fill:#4f8ae0;}.cls-18{fill:#ffe2d9;}</style></defs><title>Flat Illustration</title><path class="cls-1" d="M354.66,350.62s-53.45,97-77.77,59.49"/><path class="cls-2" d="M342.51,334.82,298,356.43s-15.22,60.22,20,43.38C354.66,382.27,342.51,334.82,342.51,334.82Z"/><path class="cls-3" d="M197.63,899.51a109.36,109.36,0,0,1-36-28.89c-4.43-5.48-10.68-13.48-8.46-21.06,2.32-7.95,12.46-7.58,18.86-6a44.44,44.44,0,0,1,22.47,13.61,1.51,1.51,0,0,0,2.36-1.81c-4.43-7.11-11.49-12.05-15.92-19.12-3.21-5.09-4.18-13,0-17.92,4.67-5.48,11.12-1.37,14.88,2.74,4.15,4.52,7.69,10.05,13.5,12.63,1.4.63,3.27-1.19,1.82-2.35a120.91,120.91,0,0,1-24.94-27c-5.85-8.72-11.69-18.61-12.12-29.38-.17-4.33.56-9.06,3.59-12.38,4.19-4.58,10.6-4.53,16-2.54,5.91,2.16,11.07,6.19,15.86,10.17a121.81,121.81,0,0,1,12.72,12.27,119.79,119.79,0,0,1,21.3,33.93c.71,1.73,3.45,1.11,2.89-.8-2.43-8.26,2.78-17.95,11.27-20,8.79-2.17,17.9,4.77,19.22,13.44.23,1.49,2.57,1.36,2.89,0,1.29-5.44,2.68-11.49,6.9-15.47,4.07-3.85,10-4.26,15.12-2.67,11.94,3.66,16.91,16.36,20.94,27a1.51,1.51,0,0,0,2.95-.4c.77-8.28,1.54-17,5.51-24.5,3.23-6.07,9-11.53,16.05-12.42,7.95-1,14.85,4.24,19.94,9.76A92.53,92.53,0,0,1,381,810a102.44,102.44,0,0,1,9.3,25.61c.35,1.62,3.14,1.3,2.94-.4-.94-8.19-2.37-19.35,4.09-25.82,4.36-4.37,13.64-6.17,17.15.15.93,1.69,3.52.18,2.59-1.51-4.07-7.34-14.21-6.67-20.19-2.19-8.86,6.64-7.75,19.68-6.64,29.37l2.95-.4c-3.81-17.27-12-34.39-24.27-47.29-5.35-5.63-12.52-10.67-20.66-10.14-7.39.48-13.71,5.23-17.79,11.18-5.75,8.39-6.71,19-7.63,28.83l2.95-.4c-4.59-12.09-10.48-26.13-24.41-29.46-5.61-1.34-11.66-.52-16.13,3.32-5,4.31-6.75,11.13-8.21,17.29h2.89c-1.58-10.33-12.66-18-22.91-15.53-10.05,2.47-16.24,14-13.36,23.74l2.89-.8a124,124,0,0,0-20.22-33.13,121.9,121.9,0,0,0-13.95-13.88c-5-4.18-10.24-8.32-16.26-10.84-5.44-2.27-11.69-3.1-17-.06a15.94,15.94,0,0,0-7.51,11c-2.11,10.88,2.77,21.64,8.12,30.79a123,123,0,0,0,29.36,34l1.82-2.36c-9.17-4.07-13.45-19.12-24.8-18.4-11.94.77-12.73,16.79-7.89,24.73,4.43,7.25,11.64,12.24,16.13,19.44l2.35-1.82a47.4,47.4,0,0,0-21.46-13.74c-6.78-2-15.74-3.16-21.47,2-6.44,5.81-3.72,15.17.13,21.6,4.49,7.5,10.81,14.24,17.26,20.08a111.85,111.85,0,0,0,25,17.12c1.72.86,3.24-1.72,1.51-2.59Z"/><path class="cls-3" d="M696.13,915.21C649.73,906,639.5,903,636.71,889.46s58.15-40.13,58.33-53.92c.08-6.87,1.72-14,6.32-19.16s12.69-7.44,18.64-4,7.92,11.27,9.21,18.17c7.55-4.57-.31-17.34,4.25-24.89,2.48-4.09,8.37-5.26,12.7-3.21s7.05,6.64,7.88,11.35c1.17,6.73-1,13.69.07,20.43s8.44,13.4,14.26,9.83a11.69,11.69,0,0,0,4-5,34.54,34.54,0,0,0,3.06-21c-.71-4.13-2.17-8.14-2.37-12.32s1.23-8.82,4.86-10.89,9.41.2,9.44,4.39c2.16-7.83,4.82-16.38,11.69-20.71,9.35-5.9,23.61-2,30.89-10.32,1.66-1.9,2.83-4.35,5-5.57,4.22-2.34,9.5,1.29,11.64,5.62,7.6,15.42-8,32.64-7.61,49.83.19,7.64,3.6,15.24,2,22.7-2.05,9.23-11.13,15.09-20,18.4s-18.52,5.27-25.88,11.19c-2.1,1.68-4,3.81-4.57,6.44s.82,5.79,3.42,6.46c2.18.55,4.39-.69,6.63-.83a6.77,6.77,0,1,1-.43,13.47c5.89-1.52,10.14,7.06,7.34,12.47s-9.11,7.8-14.88,9.74"/><path class="cls-4" d="M619.15,744.27h-150V537.87h75A56.13,56.13,0,1,0,488,481.74H338c0-113.66,92.47-206.13,206.12-206.13s206.13,92.47,206.13,206.13c0,87.21-54.44,162-131.13,192Z"/><rect class="cls-4" x="544.15" y="275.61" width="75" height="132.77"/><rect class="cls-5" x="469.15" y="815.95" width="150" height="97.69"/><path class="cls-6" d="M694.16,744.27h-150V537.87h75A56.13,56.13,0,1,0,563,481.74H413c0-113.66,92.47-206.13,206.13-206.13s206.12,92.47,206.12,206.13c0,87.21-54.44,162-131.12,192Z"/><path class="cls-4" d="M457.1,354.5,440.79,481.74H563q0-.94,0-1.89a57.33,57.33,0,0,0-10-34.93c-35.28-50.47-95.91-90.42-95.91-90.42Z"/><path class="cls-4" d="M564.79,537.87H544.16v8.3C551.84,544.8,559,542.23,564.79,537.87Z"/><line class="cls-7" x1="499.14" y1="481.74" x2="563.03" y2="481.74"/><path class="cls-8" d="M392.4,865s-8,42.24-10.35,63.07a5.51,5.51,0,0,1-5.47,4.89H314a4.29,4.29,0,0,1-3-7.36c8.6-8.34,21.59-1.91,23.69-41,1.51-28.25,5.59-56.66,5.59-56.66"/><path class="cls-8" d="M392.4,865s-8,42.24-10.35,63.07a5.51,5.51,0,0,1-5.47,4.89H314a4.29,4.29,0,0,1-3-7.36c8.6-8.34,21.59-1.91,23.69-41,1.51-28.25,5.59-56.66,5.59-56.66"/><path class="cls-9" d="M338.58,898.45a29.21,29.21,0,0,0-6.49-2.26c-.63-.14-.89.83-.27,1a27.64,27.64,0,0,1,6.26,2.17c.57.27,1.08-.59.5-.87Z"/><path class="cls-9" d="M337.23,904.86a26.73,26.73,0,0,0-6.75-2.22c-.63-.12-.9.84-.27,1a25.42,25.42,0,0,1,6.52,2.13c.58.28,1.08-.59.5-.87Z"/><path class="cls-9" d="M333.89,911.36a21.59,21.59,0,0,0-5.7-2.2c-.62-.15-.89.82-.26,1a20.74,20.74,0,0,1,5.46,2.11.5.5,0,0,0,.5-.87Z"/><path class="cls-10" d="M411.78,469.2S384.5,616.5,383.15,657.69s-20.6,222.75-20.6,222.75"/><path class="cls-8" d="M346.71,824.39s10,41.82,16.3,61.8a5.5,5.5,0,0,1-3,6.7L302.9,918.43a4.29,4.29,0,0,1-5.74-5.5c4.45-11.12,18.93-10.56,4.88-47.11-10.16-26.4-18-54-18-54"/><path class="cls-8" d="M346.71,824.39s10,41.82,16.3,61.8a5.5,5.5,0,0,1-3,6.7L302.9,918.43a4.29,4.29,0,0,1-5.74-5.5c4.45-11.12,18.93-10.56,4.88-47.11-10.16-26.4-18-54-18-54"/><path class="cls-9" d="M311.19,876.9a29.79,29.79,0,0,0-6.86.6c-.63.13-.36,1.1.27,1a28.56,28.56,0,0,1,6.59-.57c.64,0,.64-1,0-1Z"/><path class="cls-9" d="M312.57,883.31a26.85,26.85,0,0,0-7.08.74c-.62.15-.36,1.11.27,1a25.6,25.6,0,0,1,6.81-.7.5.5,0,0,0,0-1Z"/><path class="cls-9" d="M312.18,890.6a22,22,0,0,0-6.11.33c-.63.13-.36,1.09.27,1a20.8,20.8,0,0,1,5.84-.3c.64.06.63-.94,0-1Z"/><path class="cls-10" d="M373.69,485.82S264.38,589.05,264,628.15s64.35,222.23,64.35,222.23"/><circle class="cls-11" cx="392.4" cy="450.58" r="56.39"/><path class="cls-12" d="M337.46,463.35S438,526.1,442,523.06c.89-.67,6-29.53,8.4-41.48s.87-24.54-4.56-29.1"/><line class="cls-13" x1="391.6" y1="306.54" x2="392.36" y2="334.82"/><path class="cls-8" d="M395.34,320.23a27.52,27.52,0,0,1-19.19,4.58l-.52-12.19,1.77.14"/><path class="cls-14" d="M392,258.69h0a22.24,22.24,0,0,1,22.24,22.24v16.62a24.32,24.32,0,0,1-24.32,24.32h0a24.32,24.32,0,0,1-24.32-24.32V285.1A26.41,26.41,0,0,1,392,258.69Z" transform="translate(757.38 608.59) rotate(-175.76)"/><path class="cls-8" d="M369.55,277.88c-.21.24.2,8.27-2.65,9.39s-3.83-6.54-3.42-8.66"/><path class="cls-8" d="M423.83,276c-1.09-4.32-10.26-12.53-17.13-11.1,0,0-6.44-12.8-25-9s-27.19,10.39-22.33,14.71c3.56,3.16,4.7,2.2,4.7,2.2s-7,2.14-3.92,6.35c6,8.24,33.36-3.44,36.43-5-1.36.71-6.43,3.65-3.15,6.47,5.15,4.42,13.9-2.94,13.9-2.94s.55,11.41,4.78,12.6,5.65-7.71,5.65-7.71a4,4,0,0,0,3.15,2.42c2.28.19,2.67-3-.22-7.2C420.68,277.85,424.91,280.32,423.83,276Z"/><path class="cls-14" d="M359.85,286.36c-1.32,4.92,1.85,13,8,13.48L370.52,286c.18-.93-4.12-3.1-4.87-3.24A4.62,4.62,0,0,0,359.85,286.36Z"/><path class="cls-14" d="M421.45,290.92c.59,5.07-3.74,12.62-9.87,12.16,0,0-4-11.68-1.57-13.93a25.49,25.49,0,0,1,6.24-2.65A4.61,4.61,0,0,1,421.45,290.92Z"/><path class="cls-15" d="M465.94,455.22l-9.84-88.48a37.76,37.76,0,0,0-37.47-33.59l-46.76-.08c-30.87-.06-38.59,14.56-37.05,41.66a212.65,212.65,0,0,1-.26,29.76l-2.79,53.84a6.41,6.41,0,0,0,6.4,6.74H457.1a8.92,8.92,0,0,0,7.84-4.52A8.79,8.79,0,0,0,465.94,455.22Z"/><path class="cls-14" d="M326.18,325.11l18.15,30.63s34.31-19.65,22.75-36.73S326.18,325.11,326.18,325.11Z"/><path class="cls-14" d="M372.91,301.63c-7.86,2.29-15.38,5.58-21.83,10.68a61.61,61.61,0,0,0-11,12.06c-2.3,3.1,2.91,6.1,5.18,3a54.81,54.81,0,0,1,9.64-10.48c5.74-4.6,12.62-7.46,19.62-9.49,3.7-1.08,2.13-6.87-1.59-5.79Z"/><path class="cls-14" d="M374.85,309.75c-10,1.93-17.67,7.39-26,12.77-3.23,2.08-.23,7.27,3,5.18,8-5.11,15.13-10.33,24.6-12.17,3.79-.73,2.18-6.52-1.59-5.78Z"/><path class="cls-14" d="M380.15,316.29a3.21,3.21,0,0,1-.68.29l-1.71.67L373,319.1c-3.95,1.53-7.89,3.11-11.76,4.85-3.42,1.54-15.93,6.62-11.61,12.39,2.29,3.06,7.5.07,5.18-3-.22-.29.12.57.1.77,0-.48-.12.37-.12.5,0,.53-.06-.15.13-.16-.1,0-.31.32.17-.13a15.66,15.66,0,0,1,2.72-1.91,78.36,78.36,0,0,1,9.18-4.44c5.35-2.27,11-4,16.23-6.47,3.49-1.65.45-6.82-3-5.18Z"/><path class="cls-14" d="M379.09,326.88a62.18,62.18,0,0,0-15.21,4.3,15.43,15.43,0,0,0-7,6,22,22,0,0,1-12.07,8.54c-3.69,1.1-2.12,6.89,1.6,5.78A28.73,28.73,0,0,0,359,344.08c2.64-2.73,3.6-5.63,7-7.3,4.49-2.21,9.76-3.31,14.68-4.11,3.8-.62,2.19-6.4-1.59-5.79Z"/><path class="cls-14" d="M348.34,302.65c-.45.53-.89,1.08-1.32,1.62-1,1.24.28-.22-.06.07a32.19,32.19,0,0,0-2.27,2.4l-5.34,5.56c-3.67,3.79-7.35,7.57-11,11.4s2.11,9.41,5.65,5.66,7.31-7.61,11-11.4q2.69-2.77,5.34-5.56c.73-.76,1.48-1.5,2.18-2.3.32-.37.62-.76.92-1.15-.49.63.05-.05.56-.64,3.31-3.91-2.33-9.59-5.66-5.66Z"/><path class="cls-1" d="M276.89,410.11c-23.72-36.58,67.58-72.19,73.44-77"/><path class="cls-2" d="M357.48,417.07l-20,47.95a5.81,5.81,0,0,0,.72.05H457.1l-81.47-54.95Z"/><path class="cls-16" d="M314.58,350.52c12.26,1.23,36,3.75,47.86,5.9a4.63,4.63,0,0,1,3.56,3.07c2.87,8.33,10.77,36.67,4.31,81.42a4.65,4.65,0,0,1-6,3.76c-8.88-2.78-27.55-7.71-42.34-5.41a4.65,4.65,0,0,1-5.37-5.07c1.49-14.26,3.61-49-6.83-77.37A4.67,4.67,0,0,1,314.58,350.52Z"/><path class="cls-8" d="M388.68,297.23a3.41,3.41,0,0,0-5.49-.28c-.79,1,.61,2.42,1.41,1.41a1.44,1.44,0,0,1,2.36-.12c.75,1,2.48,0,1.72-1Z"/><path class="cls-8" d="M383.36,303.17a2.64,2.64,0,0,1,1.95.2c1.13.63,2.14-1.1,1-1.72a4.73,4.73,0,0,0-3.5-.41c-1.25.3-.72,2.23.54,1.93Z"/><circle class="cls-8" cx="399.44" cy="293.68" r="1.76"/><circle class="cls-8" cx="378.12" cy="292.1" r="1.76"/><path class="cls-8" d="M402.46,283.46a14.49,14.49,0,0,0-3.34-.37,1,1,0,0,0,0,2,12,12,0,0,1,2.8.3c1.26.29,1.79-1.64.54-1.93Z"/><path class="cls-8" d="M380.68,281.73a11.72,11.72,0,0,0-3.24,0,1,1,0,0,0-.7,1.23,1,1,0,0,0,1.23.69,10.25,10.25,0,0,1,2.71,0,1,1,0,0,0,1-1,1,1,0,0,0-1-1Z"/><path class="cls-17" d="M345.25,380.43a.5.5,0,0,0,0-1,.5.5,0,0,0,0,1Z"/><path class="cls-14" d="M393,398.41l-22.23,27.82S339.52,402,353.34,386.7,393,398.41,393,398.41Z"/><path class="cls-14" d="M346.67,369.58a82.53,82.53,0,0,0,28.4,29.91c3.28,2.05,6.3-3.14,3-5.18a76.23,76.23,0,0,1-26.25-27.76c-1.87-3.38-7.05-.35-5.18,3Z"/><path class="cls-14" d="M339.05,377a178.62,178.62,0,0,0,20.33,20.56c2.91,2.5,7.18-1.73,4.24-4.25a177.65,177.65,0,0,1-20.32-20.55c-2.49-3-6.72,1.3-4.25,4.24Z"/><path class="cls-14" d="M335.57,389.41q8.08,5.94,16.6,11.26c3.29,2.06,6.3-3.13,3-5.18q-8.52-5.31-16.6-11.26c-3.12-2.3-6.11,2.91-3,5.18Z"/><path class="cls-14" d="M337.68,401c10.05,7.15,20,15.55,31.27,20.65,3.49,1.58,6.54-3.59,3-5.18-11.3-5.1-21.22-13.5-31.27-20.65-3.15-2.24-6.15,3-3,5.18Z"/><path class="cls-14" d="M367.52,377.53c5.16,8.16,11.26,15.75,16.85,23.62a4.12,4.12,0,0,0,5.48,1.43c1.73-1,2.69-3.7,1.43-5.47-5.59-7.87-11.69-15.46-16.85-23.62-2.74-4.34-9.67-.33-6.91,4Z"/><path class="cls-8" d="M358.5,534.53l-4,25.19c-.2,1.26,1.73,1.8,1.93.53l4-25.19c.2-1.26-1.73-1.8-1.93-.53Z"/><path class="cls-8" d="M339,754.06l24.64,83a1,1,0,0,0,1.93-.53l-24.64-83a1,1,0,0,0-1.93.53Z"/><path class="cls-8" d="M415.06,480.55a94.19,94.19,0,0,0,11.87,14.55,1,1,0,0,0,1.42-1.41,91.81,91.81,0,0,1-11.56-14.15c-.71-1.06-2.44-.06-1.73,1Z"/><path class="cls-1" d="M424,359.3s69.11,45.39,63.73,87.09-117.2-47.8-117.2-47.8"/><path class="cls-2" d="M396.23,387.75c8.78,5.66,17.17,11.86,26.11,17.28q9.81,5.94,20.12,11c7,3.45,14.46,7.47,22.44,7.72.64,0,.64-1,0-1-8.64-.27-16.88-5-24.44-8.82-6.44-3.24-12.75-6.77-18.9-10.54-8.48-5.2-16.47-11.11-24.83-16.49-.54-.35-1,.51-.5.86Z"/><rect class="cls-6" x="544.16" y="815.95" width="150" height="97.69"/><path class="cls-18" d="M279.34,258.07l-11,4.88a8.17,8.17,0,0,1-10.78-4.17l-6.87-15.57a13.92,13.92,0,0,1,7.11-18.36h0a10.81,10.81,0,0,0,6.13-13,10.64,10.64,0,0,0-20.63,1.26A13.94,13.94,0,0,1,235,223.27h0c-10.33,4.56-21.75-4.24-19.69-15.35a39.05,39.05,0,1,1,69.14,31.17,8.07,8.07,0,0,0-.95,8.21h0A8.15,8.15,0,0,1,279.34,258.07Z"/><rect class="cls-18" x="264.77" y="264.03" width="28.42" height="18.51" rx="9.26" transform="translate(-86.61 135.98) rotate(-23.82)"/><path class="cls-16" d="M509.5,215.58,496,210.46a9.78,9.78,0,0,1-5.7-12.61l7.2-19.08a16.69,16.69,0,0,1,21.5-9.72h0a13,13,0,0,0,16.15-6,12.74,12.74,0,0,0-18.7-16.24,16.76,16.76,0,0,1-15.56,1.73h0c-12.66-4.77-15-21.89-3.94-29.65a46.8,46.8,0,1,1,32.93,84.71,9.7,9.7,0,0,0-7.72,6.23h0A9.78,9.78,0,0,1,509.5,215.58Z"/><rect class="cls-16" x="485.33" y="211.25" width="22.18" height="34.06" rx="11.09" transform="translate(107.57 612.13) rotate(-69.32)"/><path class="cls-3" d="M387.13,200,369,202A12.35,12.35,0,0,1,355.32,191l-2.82-25.59a21.08,21.08,0,0,1,18.64-23.25h0a16.38,16.38,0,0,0,14.77-15.93,16.09,16.09,0,0,0-30.33-7.59,21.14,21.14,0,0,1-16.52,10.86h0c-17,1.87-29.45-16-21.4-31.12a59.09,59.09,0,1,1,85.53,76.51,12.21,12.21,0,0,0-5.13,11.42h0A12.35,12.35,0,0,1,387.13,200Z"/><rect class="cls-3" x="358.17" y="207.75" width="43.01" height="28.01" rx="14" transform="matrix(0.99, -0.11, 0.11, 0.99, -21.95, 42.8)"/><line class="cls-7" x1="469.15" y1="744.27" x2="694.16" y2="744.27"/><line class="cls-7" x1="469.15" y1="913.64" x2="694.16" y2="913.64"/><path class="cls-16" d="M812.34,815.79a299.81,299.81,0,0,1-73.7,72.58c-8.48,5.85-17.28,11.88-26.85,15.8-.58.24-.33,1.21.27,1,8.38-3.45,16.08-8.51,23.6-13.53q10.74-7.2,20.85-15.3a299.73,299.73,0,0,0,38.32-36.74q9.76-11.18,18.38-23.28c.37-.52-.5-1-.87-.5Z"/><path class="cls-16" d="M728.06,838.48a150.19,150.19,0,0,0-4,59.89c.09.64,1.05.37,1-.26a149,149,0,0,1,4-59.36.5.5,0,0,0-1-.27Z"/><path class="cls-16" d="M745.14,855.54a67.34,67.34,0,0,0,.47,28.09c.14.62,1.11.36,1-.27a65.94,65.94,0,0,1-.46-27.55c.12-.63-.84-.9-1-.27Z"/><path class="cls-16" d="M815.68,842.71a108.84,108.84,0,0,1-25.93,3,.5.5,0,0,0,0,1,110.5,110.5,0,0,0,26.19-3c.63-.15.36-1.12-.26-1Z"/></svg>