<?xml version="1.0" encoding="utf-8"?>
<!-- Generator: Adobe Illustrator 27.5.0, SVG Export Plug-In . SVG Version: 6.00 Build 0)  -->
<svg version="1.1" xmlns="http://www.w3.org/2000/svg" xmlns:xlink="http://www.w3.org/1999/xlink" x="0px" y="0px"
	 viewBox="0 0 3000 2000" style="enable-background:new 0 0 3000 2000;" xml:space="preserve">
<style type="text/css">
	.st0{fill:#FFFFFF;}
	.st1{fill:#FCF3E6;}
	.st2{fill:#1E1118;}
	.st3{fill:#038C87;}
	.st4{fill:#C66A26;}
	.st5{fill:#FDB64C;}
	.st6{fill:#E53417;}
	.st7{fill:#FE4922;}
	.st8{fill:#C62F17;}
	.st9{fill:#FFB399;}
	.st10{fill:#D89336;}
	.st11{fill:#FFAEA1;}
	.st12{fill:#30212A;}
	.st13{fill:#D8826A;}
	.st14{fill:none;}
	.st15{fill:#047F76;}
	.st16{fill:#046861;}
	.st17{fill:#AE4C13;}
</style>
<g id="Background">
	<rect class="st0" width="3000" height="2000"/>
</g>
<g id="Illustration">
	<g>
		<g>
			<path class="st1" d="M2311,1763.4c0,0,190.5-157.9,163.7-601.6c-26.8-443.7-304.6-603.5-570.4-591.7
				c-265.8,11.8-389.2,426.1-792.8,416.3c-403.7-9.8-811.5,242-493.5,777C1430.1,1763.4,2311,1763.4,2311,1763.4z"/>
		</g>
		<g>
			<rect x="492.6" y="1762.1" class="st2" width="2014.8" height="3.2"/>
		</g>
		<g>
			<path class="st3" d="M995.9,872.9h-60.3c-3.9-15-9.9-29.2-17.5-42.2l42.6-42.6c5.9-5.9,5.9-15.4,0-21.3L923,728.9
				c-5.9-5.9-15.4-5.9-21.3,0L859,771.6c-13.1-7.7-27.2-13.7-42.2-17.5v-60.3c0-8.3-6.8-15.1-15.1-15.1h-53.4
				c-8.3,0-15.1,6.8-15.1,15.1V754c-15,3.9-29.2,9.9-42.2,17.5l-42.6-42.6c-5.9-5.9-15.4-5.9-21.3,0l-37.8,37.8
				c-5.9,5.9-5.9,15.4,0,21.3l42.6,42.6c-7.7,13.1-13.7,27.2-17.5,42.2H554c-8.3,0-15.1,6.8-15.1,15.1v53.4
				c0,8.3,6.8,15.1,15.1,15.1h60.3c3.9,15,9.9,29.2,17.5,42.2l-42.6,42.6c-5.9,5.9-5.9,15.4,0,21.3l37.8,37.8
				c5.9,5.9,15.4,5.9,21.3,0l42.6-42.6c13.1,7.7,27.2,13.7,42.2,17.5v60.3c0,8.3,6.8,15.1,15.1,15.1h53.4c8.3,0,15.1-6.8,15.1-15.1
				v-60.3c15-3.9,29.2-9.9,42.2-17.5l42.6,42.6c5.9,5.9,15.4,5.9,21.3,0l37.8-37.8c5.9-5.9,5.9-15.4,0-21.3l-42.6-42.6
				c7.7-13.1,13.7-27.2,17.5-42.2h60.3c8.3,0,15.1-6.8,15.1-15.1V888C1011,879.7,1004.2,872.9,995.9,872.9z M774.9,1006
				c-50.4,0-91.3-40.9-91.3-91.3c0-50.4,40.9-91.3,91.3-91.3c50.4,0,91.3,40.9,91.3,91.3C866.3,965.1,825.4,1006,774.9,1006z"/>
		</g>
		<g>
			<path class="st0" d="M755.3,563.5h-26.5c-1.7-6.6-4.3-12.8-7.7-18.6l18.8-18.8c2.6-2.6,2.6-6.8,0-9.4l-16.6-16.6
				c-2.6-2.6-6.8-2.6-9.4,0l-18.8,18.8c-5.7-3.4-12-6-18.6-7.7v-26.5c0-3.7-3-6.6-6.6-6.6h-23.5c-3.7,0-6.6,3-6.6,6.6v26.5
				c-6.6,1.7-12.8,4.3-18.6,7.7l-18.8-18.8c-2.6-2.6-6.8-2.6-9.4,0l-16.6,16.6c-2.6,2.6-2.6,6.8,0,9.4l18.8,18.8
				c-3.4,5.7-6,12-7.7,18.6h-26.5c-3.7,0-6.6,3-6.6,6.6v23.5c0,3.7,3,6.6,6.6,6.6h26.5c1.7,6.6,4.3,12.8,7.7,18.6l-18.8,18.8
				c-2.6,2.6-2.6,6.8,0,9.4l16.6,16.6c2.6,2.6,6.8,2.6,9.4,0l18.8-18.8c5.7,3.4,12,6,18.6,7.7V679c0,3.7,3,6.6,6.6,6.6h23.5
				c3.7,0,6.6-3,6.6-6.6v-26.5c6.6-1.7,12.8-4.3,18.6-7.7l18.8,18.8c2.6,2.6,6.8,2.6,9.4,0l16.6-16.6c2.6-2.6,2.6-6.8,0-9.4
				l-18.8-18.8c3.4-5.7,6-12,7.7-18.6h26.5c3.7,0,6.6-3,6.6-6.6v-23.5C762,566.4,759,563.5,755.3,563.5z M658.1,622
				c-22.2,0-40.2-18-40.2-40.2s18-40.2,40.2-40.2s40.2,18,40.2,40.2S680.3,622,658.1,622z"/>
			<path class="st2" d="M669.9,686.8h-23.5c-4.3,0-7.7-3.5-7.7-7.7v-25.7c-6-1.6-11.8-4.1-17.3-7.2l-18.2,18.2c-3,3-7.9,3-10.9,0
				l-16.6-16.6c-3-3-3-7.9,0-10.9l18.2-18.2c-3.1-5.5-5.6-11.3-7.2-17.3h-25.7c-4.3,0-7.7-3.5-7.7-7.7v-23.5c0-4.3,3.5-7.7,7.7-7.7
				h25.7c1.6-6,4.1-11.8,7.2-17.3l-18.2-18.2c-3-3-3-7.9,0-10.9l16.6-16.6c3-3,7.9-3,10.9,0l18.2,18.2c5.5-3.1,11.3-5.6,17.3-7.2
				v-25.7c0-4.3,3.5-7.7,7.7-7.7h23.5c4.3,0,7.7,3.5,7.7,7.7v25.7c6,1.6,11.8,4.1,17.3,7.2l18.2-18.2c3-3,7.9-3,10.9,0l16.6,16.6
				c3,3,3,7.9,0,10.9l-18.2,18.2c3.1,5.5,5.6,11.3,7.2,17.3h25.7c4.3,0,7.7,3.5,7.7,7.7v23.5c0,4.3-3.5,7.7-7.7,7.7h-25.7
				c-1.6,6-4.1,11.8-7.2,17.3l18.2,18.2c3,3,3,7.9,0,10.9L724,664.3c-3,3-7.9,3-10.9,0l-18.2-18.2c-5.5,3.1-11.3,5.6-17.3,7.2V679
				C677.6,683.3,674.1,686.8,669.9,686.8z M621,643.5l0.7,0.4c5.8,3.4,11.9,5.9,18.3,7.6l0.8,0.2V679c0,3.1,2.5,5.6,5.6,5.6h23.5
				c3.1,0,5.6-2.5,5.6-5.6v-27.3l0.8-0.2c6.4-1.7,12.5-4.2,18.3-7.6l0.7-0.4l19.4,19.4c2.2,2.2,5.7,2.2,7.9,0l16.6-16.6
				c2.2-2.2,2.2-5.7,0-7.9L719.7,619l0.4-0.7c3.4-5.8,5.9-11.9,7.6-18.3l0.2-0.8h27.3c3.1,0,5.6-2.5,5.6-5.6v-23.5
				c0-3.1-2.5-5.6-5.6-5.6H728l-0.2-0.8c-1.7-6.4-4.2-12.5-7.6-18.3l-0.4-0.7l19.4-19.4c2.2-2.2,2.2-5.7,0-7.9l-16.6-16.6
				c-2.2-2.2-5.7-2.2-7.9,0l-19.4,19.4l-0.7-0.4c-5.8-3.4-11.9-5.9-18.3-7.6l-0.8-0.2v-27.3c0-3.1-2.5-5.6-5.6-5.6h-23.5
				c-3.1,0-5.6,2.5-5.6,5.6V512l-0.8,0.2c-6.4,1.7-12.5,4.2-18.3,7.6l-0.7,0.4l-19.4-19.4c-2.2-2.2-5.7-2.2-7.9,0l-16.6,16.6
				c-2.2,2.2-2.2,5.7,0,7.9l19.4,19.4l-0.4,0.7c-3.4,5.8-5.9,11.9-7.6,18.3l-0.2,0.8h-27.3c-3.1,0-5.6,2.5-5.6,5.6v23.5
				c0,3.1,2.5,5.6,5.6,5.6h27.3l0.2,0.8c1.7,6.4,4.2,12.5,7.6,18.3l0.4,0.7l-19.4,19.4c-2.2,2.2-2.2,5.7,0,7.9l16.6,16.6
				c2.2,2.2,5.7,2.2,7.9,0L621,643.5z M658.1,623.1c-22.7,0-41.3-18.5-41.3-41.3s18.5-41.3,41.3-41.3s41.3,18.5,41.3,41.3
				S680.9,623.1,658.1,623.1z M658.1,542.8c-21.6,0-39.1,17.5-39.1,39.1c0,21.6,17.5,39.1,39.1,39.1c21.6,0,39.1-17.5,39.1-39.1
				C697.2,560.3,679.7,542.8,658.1,542.8z"/>
		</g>
		<g>
			<g>
				<path class="st0" d="M1838.2,735.2h-511.6c-9.6,0-17.4-7.8-17.4-17.4V429.7h546.5v288.1C1855.7,727.4,1847.8,735.2,1838.2,735.2
					z"/>
				<path class="st2" d="M1838.2,736.3h-511.6c-10.2,0-18.5-8.3-18.5-18.5V428.6h548.7v289.2C1856.7,728,1848.4,736.3,1838.2,736.3z
					 M1310.2,430.8v287c0,9,7.3,16.4,16.4,16.4h511.6c9,0,16.4-7.3,16.4-16.4v-287H1310.2z"/>
			</g>
			<g>
				<path class="st0" d="M1857.7,429.7h-550.7c-5,0-9-4-9-9v-44.7c0-5,4-9,9-9h550.7c5,0,9,4,9,9v44.7
					C1866.8,425.6,1862.7,429.7,1857.7,429.7z"/>
				<path class="st2" d="M1857.7,430.8h-550.7c-5.6,0-10.1-4.5-10.1-10.1v-44.7c0-5.6,4.5-10.1,10.1-10.1h550.7
					c5.6,0,10.1,4.5,10.1,10.1v44.7C1867.9,426.2,1863.3,430.8,1857.7,430.8z M1307.1,368c-4.4,0-8,3.6-8,8v44.7c0,4.4,3.6,8,8,8
					h550.7c4.4,0,8-3.6,8-8v-44.7c0-4.4-3.6-8-8-8H1307.1z"/>
			</g>
			<g>
				<g>
					<rect x="1359.1" y="461.7" class="st4" width="84.8" height="80.7"/>
				</g>
				<g>
					<path class="st5" d="M1423.6,552.5H1339l9.4-20.8c7.3-16.2,11.1-34,11-52l0-18.1h84.5v18.4c0,17.8-3.7,35.3-10.9,51.4
						L1423.6,552.5z"/>
				</g>
			</g>
			<g>
				<g>
					<rect x="1438.6" y="602.6" class="st2" width="65.8" height="62.5"/>
				</g>
				<g>
					<path class="st3" d="M1488.6,673.1h-65.6l7.3-16.1c5.7-12.6,8.6-26.4,8.5-40.3l0-14h65.6v14.3c0,13.8-2.9,27.4-8.5,39.8
						L1488.6,673.1z"/>
				</g>
			</g>
			<g>
				<g>
					<rect x="1739" y="466.8" class="st6" width="65.8" height="62.5"/>
				</g>
				<g>
					<path class="st7" d="M1789,537.3h-65.6l7.3-16.1c5.7-12.6,8.6-26.4,8.5-40.3l0-14h65.6v14.3c0,13.8-2.9,27.4-8.5,39.8
						L1789,537.3z"/>
				</g>
			</g>
		</g>
		<g>
			<polygon class="st2" points="758.6,1763.8 711.9,1763.8 813.5,1095.9 860.1,1095.9 			"/>
		</g>
		<g>
			<polygon class="st2" points="1904.8,1763.8 1951.4,1763.8 1849.9,1095.9 1803.2,1095.9 			"/>
		</g>
		<g>
			<g>
				<path class="st7" d="M1165.5,242.8h-145.3c-6.1,0-11.1,5-11.1,11.1v55.6c0,6.1,5,11.1,11.1,11.1h110.7L1161,352v-31.3h4.5
					c6.1,0,11.1-5,11.1-11.1v-55.6C1176.6,247.8,1171.6,242.8,1165.5,242.8z"/>
			</g>
			<g>
				<circle class="st0" cx="1046.2" cy="280.4" r="9.5"/>
			</g>
			<g>
				<circle class="st0" cx="1092.8" cy="280.4" r="9.5"/>
			</g>
			<g>
				<circle class="st0" cx="1139.5" cy="280.4" r="9.5"/>
			</g>
		</g>
		<g>
			<g>
				<path class="st3" d="M1103.1,368.3H798.6c-10.4,0-18.8,8.2-18.8,18.3V554c0,10.1,8.4,18.3,18.8,18.3h250.2l48.1,54.6v-54.6h6.3
					c10.4,0,18.8-8.2,18.8-18.3V386.6C1121.9,376.5,1113.5,368.3,1103.1,368.3z"/>
			</g>
			<g>
				<rect x="815.8" y="415.9" class="st0" width="270" height="7.3"/>
			</g>
			<g>
				<rect x="815.8" y="450.3" class="st0" width="270" height="7.3"/>
			</g>
			<g>
				<rect x="815.8" y="484.7" class="st0" width="270" height="7.3"/>
			</g>
			<g>
				<rect x="815.8" y="519.2" class="st0" width="224.9" height="7.3"/>
			</g>
		</g>
		<g>
			<polygon class="st7" points="852.8,1071.8 788,1071.8 780.9,951.6 859.8,951.6 			"/>
		</g>
		<g>
			<path class="st5" d="M844.2,951.6h-47.7v-17c0-3.6,3-6.6,6.6-6.6h34.5c3.6,0,6.6,3,6.6,6.6V951.6z"/>
		</g>
		<g>
			<path class="st7" d="M860,975.7h-79.3c-3.2,0-5.8-2.6-5.8-5.8v-12.5c0-3.2,2.6-5.8,5.8-5.8H860c3.2,0,5.8,2.6,5.8,5.8V970
				C865.8,973.2,863.2,975.7,860,975.7z"/>
			<path class="st8" d="M860,977.4h-79.3c-4.1,0-7.4-3.3-7.4-7.4v-12.5c0-4.1,3.3-7.4,7.4-7.4H860c4.1,0,7.4,3.3,7.4,7.4V970
				C867.4,974,864.1,977.4,860,977.4z M780.7,953.3c-2.3,0-4.2,1.9-4.2,4.2V970c0,2.3,1.9,4.2,4.2,4.2H860c2.3,0,4.2-1.9,4.2-4.2
				v-12.5c0-2.3-1.9-4.2-4.2-4.2H780.7z"/>
		</g>
		<g>
			<g>
				<rect x="1044" y="1354.9" class="st0" width="41" height="318.4"/>
				<path class="st2" d="M1086.1,1674.4h-43.2v-320.6h43.2V1674.4z M1045.1,1672.3h38.9V1356h-38.9V1672.3z"/>
			</g>
			<g>
				<path class="st2" d="M1235.1,1763.8h-59.6c-26.8-20.1-66.5-32.8-110.9-32.8c-44.4,0-84.1,12.7-110.9,32.8h-59.6
					c6.7-56.7,80.5-101.4,170.6-101.4C1154.6,1662.4,1228.4,1707.1,1235.1,1763.8z"/>
			</g>
			<g>
				<path class="st9" d="M1638.1,1647.6c0,0-20.5-32-29.9-50.4s-72.7,38.6-72.7,38.6s29.2,25,35.8,50.4c0,0,49.7,10.4,59.4-2.1
					C1640.6,1671.6,1638.1,1647.6,1638.1,1647.6z"/>
			</g>
			<g>
				<path class="st9" d="M1282.4,1686c0,0,24.7-36.9,32.6-57.3c7.8-20.4-95.5-5.1-95.5-5.1s3.4,36.2-12.8,60.9
					c0,0,33.6,34.5,52.7,29C1278.5,1708.1,1282.4,1686,1282.4,1686z"/>
			</g>
			<g>
				<path class="st7" d="M1571.4,1686.2l1,3.1c7.3,21.7,20.1,41.2,37.2,56.5l0,0c2.5,3.9,7.8,5.1,11.7,2.7l129.4-79.5
					c0,0,16.7-44.8-22.9-42.7c-39.6,2.1-55.3,28.6-89.7,21.3C1638.1,1647.6,1629.8,1685.2,1571.4,1686.2z"/>
			</g>
			<g>
				<path class="st7" d="M1205.3,1684.5l-0.7,3.2c-5,22.4-4.1,45.7,2.6,67.6h0c0.1,4.7,4,8.4,8.7,8.4l151.9-1.2
					c0,0,37.4-29.7,2.4-48.4c-35-18.7-62.1-4.1-87.8-28.1C1282.4,1686,1255.9,1713.8,1205.3,1684.5z"/>
			</g>
			<g>
				<path class="st2" d="M1320.7,626.9c75.8,16.7,75.1-48.7,75.1-48.7c-62.3-3.5-91.5-82.8-157.6-65.8c-10.3,2.7-20.1,7.5-28.6,13.9
					c-1.9,1.4-7.6,8.5-9.8,8.8c-82,9.7-70.9,81.4-70.9,81.4c-7.6,7-11.8,29.2-11.8,29.2c-11.1,61.9,41.7,68.8,41.7,68.8
					L1320.7,626.9z"/>
			</g>
			<g>
				<path class="st5" d="M1021.7,856.5c0,0-7-82.9-86.9-95.4c0,0-45.2-0.6-51.4,47.7c-6.3,48.3,0,287,0,287s-3.5,167.3-17.4,189.5
					c-13.9,22.2-18.1,82,59.8,87.6c77.9,5.6,401.9,0,401.9,0v-158.5c0,0-250.3-93.2-285.1-215.5S1021.7,856.5,1021.7,856.5z"/>
			</g>
			<g>
				<path class="st10" d="M981.6,928c0,0-72.3,269.1,22.8,358.3C1004.4,1286.3,1058.2,976.7,981.6,928z"/>
			</g>
			<g>
				<path class="st2" d="M995.2,1168.6c0,0-43,101.5,23.7,125.2c66.7,23.6,272.1,0,272.1,0s19.9-2.8,15.7,23.6
					c-3.8,24-93.9,266.6-110.1,310.3c-1.3,3.5,0.9,7.4,4.6,8.1l113.3,21.4c2.8,0.5,5.6-1,6.7-3.6l80.2-192.9l117.7,192.1
					c2.1,3.5,6,5.5,10,5.3c18-1,67.8-8.7,98.7-62.5c1.9-3.3,2-7.4,0.2-10.8l-148.7-277l27.4-62.3c13.8-31.5-7.4-67.3-41.7-70.2
					l-76.1-6.5c0,0-43.1-39.6-156.4-20.5C1119.1,1167.2,995.2,1168.6,995.2,1168.6z"/>
			</g>
			<g>
				<path class="st7" d="M1365.9,1057.3c-3.1-38.6-20.2-160.8-47-203c-19.1-30-86.4-52.5-86.4-52.5s-19.7,15.4-43.8,14.5
					c-24.1-0.9-53.5-28.7-53.5-28.7s-18.8,3.5-23.6,10.4l-46.7,10.2c-23.2,5.1-42.9,20.2-53.8,41.2
					c-22.3,42.8-59.3,117.9-74.3,171.1c-7.7,27.3,10.5,55.1,38.7,58.7c6.1,0.8,12.8,1.5,19.9,2.2c-8.3,36.3-18.1,94.4-0.6,110.5
					c26.1,24,219-15.6,237.8-43.8c6.2-9.3,14.6-33.1,22.3-62.6C1298.7,1102.4,1368.3,1086.3,1365.9,1057.3z"/>
			</g>
			<g>
				<path class="st11" d="M1052,1000.5c-0.3,0-0.5-0.1-0.8-0.2c-0.8-0.4-1.1-1.4-0.7-2.2c35.8-66.4,20.9-128.6,20.7-129.2
					c-0.2-0.9,0.3-1.7,1.2-2c0.9-0.2,1.7,0.3,2,1.2c0.2,0.6,15.4,64-21,131.5C1053.1,1000.2,1052.6,1000.5,1052,1000.5z"/>
			</g>
			<g>
				<path class="st11" d="M1291.1,1059.4C1291.1,1059.4,1291,1059.4,1291.1,1059.4c-1,0-1.7-0.8-1.6-1.7
					c2.7-58.9-18.7-139.6-19-140.4c-0.2-0.9,0.3-1.8,1.1-2c0.9-0.2,1.8,0.3,2,1.1c0.2,0.8,21.8,82,19.1,141.4
					C1292.7,1058.7,1291.9,1059.4,1291.1,1059.4z"/>
			</g>
			<g>
				<path class="st11" d="M1160.1,851.7c-0.1,0-0.2,0-0.4,0c-0.5-0.1-1-0.5-1.2-1.1c-7.4-21.5-47.7-51.1-48.1-51.4
					c-0.7-0.5-0.9-1.5-0.4-2.3c0.5-0.7,1.5-0.9,2.3-0.4c1.6,1.2,38.8,28.5,48.3,50.6c6.1-5.9,24.3-23.2,32.5-24.8
					c9.9-1.9,31.2,18.9,35.3,26c5-0.6,26.1-4.9,29.5-35.7c0.1-0.9,0.9-1.5,1.8-1.4c0.9,0.1,1.5,0.9,1.4,1.8
					c-4.2,37.1-33.4,38.6-33.7,38.6c-0.7,0-1.3-0.4-1.6-1.1c-1.9-5.1-24.4-26.6-32.2-25.1c-7,1.3-25.9,19-32.5,25.6
					C1161,851.6,1160.5,851.7,1160.1,851.7z"/>
			</g>
			<g>
				<polygon class="st2" points="1630.7,1057.8 1346.2,1057.8 1479.4,873.2 1763.9,873.2 				"/>
			</g>
			<g>
				<rect x="1231.6" y="1057.8" class="st12" width="399.2" height="14.1"/>
			</g>
			<g>
				<circle class="st12" cx="1562.4" cy="957.2" r="29.2"/>
			</g>
			<g>
				<path class="st0" d="M1401.4,1462.2c-0.6,0-1.1-0.3-1.4-0.8l-92.8-154.4c-0.5-0.8-0.2-1.8,0.6-2.2c0.8-0.5,1.8-0.2,2.2,0.6
					l92.8,154.4c0.5,0.8,0.2,1.8-0.6,2.2C1402,1462.2,1401.7,1462.2,1401.4,1462.2z"/>
			</g>
			<g>
				<path class="st0" d="M1478.2,1308.2c-0.5,0-1.1-0.3-1.4-0.7l-88.2-136.9c-0.5-0.8-0.3-1.8,0.5-2.2c0.8-0.5,1.8-0.3,2.2,0.5
					l88.2,136.9c0.5,0.8,0.3,1.8-0.5,2.2C1478.8,1308.1,1478.5,1308.2,1478.2,1308.2z"/>
			</g>
			<g>
				<path class="st9" d="M1133.7,784.8c0,0,13.9-52.8,13.9-74.4s36.2-127.9,43.1-126.5s61.2,23.6,87.6,5.6c0,0,16,27.8,42.4,37.5
					c0,0-22.2,40.3-22.9,65.4c-0.7,25-6.3,76.5-60.5,73.7c0,0-9.7,25.7-4.9,35.8c4.9,10.1-15.2,24.7-46.9,22.2
					C1153.9,821.6,1134.4,802.2,1133.7,784.8z"/>
			</g>
			<g>
				<path class="st13" d="M1237.3,767.6c-0.1,0-0.1,0-0.2,0c-25.9-2.8-51.5-21.8-52.5-22.6c-0.7-0.5-0.9-1.6-0.3-2.3
					c0.5-0.7,1.6-0.9,2.3-0.3c0.3,0.2,26,19.2,50.9,21.9c0.9,0.1,1.5,0.9,1.4,1.8C1238.8,767,1238.1,767.6,1237.3,767.6z"/>
			</g>
			<g>
				<path class="st0" d="M1153.9,608.2c0,0,14.4-87.6,125-94.2c0,0,23.3-3,36.4,21.3c0,0-94.3-5.1-123.9,56.2
					c0,0-6.3,18.1-11.8,31.3C1174,636,1153.9,608.2,1153.9,608.2z"/>
				<path class="st2" d="M1175,627.4c-8.3,0-20.6-16.7-22-18.6l-0.3-0.4l0.1-0.4c0-0.2,3.8-22.4,21.2-45.1
					c16-20.9,47.2-46.6,104.8-50c0.2,0,24.1-2.8,37.4,21.8l0.9,1.7l-1.9-0.1c-0.2,0-23.8-1.2-50.6,5.1
					c-24.6,5.8-57.1,19.2-72.2,50.5c-0.4,1.2-6.5,18.6-11.8,31.3c-1.1,2.5-2.7,3.9-4.9,4.2C1175.5,627.4,1175.3,627.4,1175,627.4z
					 M1155,607.9c4,5.4,14.6,18,20.4,17.3c1.4-0.2,2.4-1.1,3.1-2.9c5.5-13,11.7-31,11.8-31.2l0-0.1c15.5-32,48.6-45.8,73.7-51.7
					c22.6-5.3,43-5.4,49.2-5.2c-12.7-21.5-33.5-19.2-34.4-19.1c-56.8,3.4-87.5,28.6-103.2,49.1C1160,584.6,1155.6,604.7,1155,607.9z
					"/>
			</g>
			<g>
				<g>
					<path class="st9" d="M1324,1051.1c0,0,7.1,10.4-18.2,5.1c-25.3-5.3-54-1.8-51-1.8c6.5,0,33.1,16.8,9.6,18.7
						s-20.4-11.7-40.7-6.2c-7.6,2.1-24.8,3-44.4,3.2c0-0.2,0-0.3-0.1-0.5c-3.3-20.7,0.2-42.5,2.3-52.2c26.9,2.1,49.9,3.6,54.5,2.6
						c12.3-2.5,23.4-11.7,41.3-3.1c17.9,8.6,65.4,22.6,70.9,34.1C1354,1062.6,1324,1051.1,1324,1051.1z"/>
				</g>
				<g>
					<path class="st13" d="M1324,1052.7c-0.2,0-0.3,0-0.5-0.1c-8.1-2.7-35.7-10.2-36-10.3c-0.9-0.2-1.4-1.1-1.1-2
						c0.2-0.9,1.1-1.4,2-1.1c1.1,0.3,28,7.6,36.1,10.3c0.8,0.3,1.3,1.2,1,2.1C1325.3,1052.3,1324.7,1052.7,1324,1052.7z"/>
				</g>
			</g>
			<g>
				<path class="st7" d="M1019.7,1006.2c0,0,131.5-9.4,163.9,4.2c0,0-9,48.1-4.2,61.4c0,0-116.1,16.1-184.1,9.5L1019.7,1006.2z"/>
				<path class="st8" d="M1033.1,1084.5c-13.6,0-26.5-0.5-38-1.6c-0.9-0.1-1.5-0.9-1.5-1.8c0.1-0.9,0.9-1.5,1.8-1.5
					c62.4,6.1,166.7-7.2,181.9-9.2c-3.4-14.2,3-51.4,4.4-59c-33.6-12.6-160.6-3.7-161.9-3.6c-0.9,0.1-1.7-0.6-1.7-1.5
					c-0.1-0.9,0.6-1.7,1.5-1.7c5.4-0.4,132.3-9.2,164.6,4.3c0.7,0.3,1.1,1,1,1.8c-0.1,0.5-8.9,47.8-4.2,60.6c0.2,0.5,0.1,1-0.1,1.4
					c-0.3,0.4-0.7,0.7-1.2,0.8C1178.6,1073.6,1098.8,1084.5,1033.1,1084.5z"/>
			</g>
			<g>
				<circle class="st0" cx="1157.6" cy="646.2" r="42.2"/>
				<path class="st2" d="M1157.6,689.4c-23.9,0-43.3-19.4-43.3-43.3s19.4-43.3,43.3-43.3c23.9,0,43.3,19.4,43.3,43.3
					S1181.5,689.4,1157.6,689.4z M1157.6,605.1c-22.7,0-41.1,18.4-41.1,41.1s18.4,41.1,41.1,41.1c22.7,0,41.1-18.4,41.1-41.1
					S1180.3,605.1,1157.6,605.1z"/>
			</g>
		</g>
		<g>
			<rect x="715.8" y="1071.8" class="st0" width="1223.7" height="48.1"/>
			<path class="st2" d="M1940.6,1121H714.7v-50.2h1225.9V1121z M716.9,1118.8h1221.6v-45.9H716.9V1118.8z"/>
		</g>
		<g>
			<g>
				<path class="st0" d="M2365.2,876.5h-399.1c-8.8,0-16-7.2-16-16v-477c0-8.8,7.2-16,16-16h399.1c8.8,0,16,7.2,16,16v477
					C2381.2,869.3,2374,876.5,2365.2,876.5z"/>
				<path class="st2" d="M2365.2,877.6h-399.1c-9.4,0-17.1-7.7-17.1-17.1v-477c0-9.4,7.7-17.1,17.1-17.1h399.1
					c9.4,0,17.1,7.7,17.1,17.1v477C2382.3,869.9,2374.6,877.6,2365.2,877.6z M1966.1,368.6c-8.2,0-14.9,6.7-14.9,14.9v477
					c0,8.2,6.7,14.9,14.9,14.9h399.1c8.2,0,14.9-6.7,14.9-14.9v-477c0-8.2-6.7-14.9-14.9-14.9H1966.1z"/>
			</g>
			<g>
				<path class="st0" d="M2383.6,439.8h-436c-3.5,0-6.3-2.8-6.3-6.3v-59.8c0-3.5,2.8-6.3,6.3-6.3h436c3.5,0,6.3,2.8,6.3,6.3v59.8
					C2389.9,437,2387.1,439.8,2383.6,439.8z"/>
				<path class="st2" d="M2383.6,440.9h-436c-4,0-7.3-3.3-7.3-7.3v-59.8c0-4,3.3-7.3,7.3-7.3h436c4,0,7.3,3.3,7.3,7.3v59.8
					C2390.9,437.6,2387.7,440.9,2383.6,440.9z M1947.6,368.6c-2.9,0-5.2,2.3-5.2,5.2v59.8c0,2.9,2.3,5.2,5.2,5.2h436
					c2.9,0,5.2-2.3,5.2-5.2v-59.8c0-2.9-2.3-5.2-5.2-5.2H1947.6z"/>
			</g>
			<g>
				<path class="st14" d="M2161.5,690.2l2.3,15.6c33.7-1.2,60.7-28.9,60.7-62.9c0-34.8-28.2-62.9-62.9-62.9
					c-19.2,0-36.3,8.6-47.9,22.1l15.9,13.7L2161.5,690.2z"/>
			</g>
			<g>
				<g>
					<path class="st5" d="M2048.2,834L2048.2,834c-8.8,0-16-7.2-16-16l0,0c0-8.8,7.2-16,16-16l0,0c8.8,0,16,7.2,16,16l0,0
						C2064.2,826.9,2057.1,834,2048.2,834z"/>
				</g>
				<g>
					<path class="st7" d="M2048.2,789.4L2048.2,789.4c-8.8,0-16-7.2-16-16v0c0-8.8,7.2-16,16-16l0,0c8.8,0,16,7.2,16,16v0
						C2064.2,782.2,2057.1,789.4,2048.2,789.4z"/>
				</g>
				<g>
					<rect x="2101.9" y="759" class="st7" width="173.8" height="7.3"/>
				</g>
				<g>
					<rect x="2101.9" y="775" class="st7" width="144.6" height="7.3"/>
				</g>
				<g>
					<rect x="2101.9" y="802" class="st5" width="173.8" height="7.3"/>
				</g>
				<g>
					<rect x="2101.9" y="818" class="st5" width="144.6" height="7.3"/>
				</g>
			</g>
			<g>
				<circle class="st7" cx="1991.9" cy="404" r="11.1"/>
			</g>
			<g>
				<circle class="st3" cx="2036.3" cy="404" r="11.1"/>
			</g>
			<g>
				<circle class="st5" cx="2080.7" cy="404" r="11.1"/>
			</g>
			<g>
				<rect x="2031.9" y="642.8" class="st3" width="49.5" height="59.2"/>
			</g>
			<g>
				<rect x="2104.1" y="572" class="st7" width="49.5" height="130.1"/>
			</g>
			<g>
				<rect x="2176.4" y="595.1" class="st2" width="49.5" height="106.9"/>
			</g>
			<g>
				<rect x="2248.6" y="503.1" class="st5" width="49.5" height="198.9"/>
			</g>
		</g>
		<g>
			<g>
				<path class="st15" d="M2068.4,1205c0,0,19.4-50.4-29.1-80.9c-48.5-30.6-97.9-25-111.8-59.1c0,0,27.2,58.7,29.2,77.9
					C1958.8,1162,2021.6,1238,2068.4,1205z"/>
			</g>
			<g>
				<path class="st15" d="M2127,1170.7c0,0,49.5-90.5,23-144.7c-26.4-54.2-72.7-123.1-89.9-128.6c0,0,14.4,70.2,0,88.3
					c-14.4,18.1-16.5,87.6,21.1,134.2C2118.7,1166.5,2127,1170.7,2127,1170.7z"/>
			</g>
			<g>
				<path class="st3" d="M2028,1217.3c0,0-25.4,28.4-65.7,22.5c-40.3-5.9-70.9-24-97.3-7.3c0,0,26.4-61.2,71.6-68.1
					C1981.8,1157.5,2019.3,1161.1,2028,1217.3z"/>
			</g>
			<g>
				<path class="st3" d="M2241.9,1201.2c0,0,26.3-45.8,75.7-48.3s88.3,46.6,122.4,46.7c0,0-34.6,51.6-99,30.1
					C2276.6,1208.2,2268.5,1197,2241.9,1201.2z"/>
			</g>
			<g>
				<path class="st3" d="M2091.9,1189.7c0,0,14.3-70.5-34.3-124.7c-48.7-54.2-65.9-112.6-65.9-112.6s-28.3,86.5,25.8,162.7
					S2091.9,1189.7,2091.9,1189.7z"/>
			</g>
			<g>
				<path class="st3" d="M2150.1,1183c0,0,12.5-61.7,74.3-79.8c61.9-18.1,104.3-125.2,98.7-142.5c0,0-37,34.8-86.3,37.5
					c-49.3,2.8-82,50.8-92.4,91.8C2134,1131,2150.1,1183,2150.1,1183z"/>
			</g>
			<g>
				<path class="st3" d="M2205.4,1177.8c0,0,15.5-101.9,87.2-105.9c71.6-4.1,118.9,16.1,158.5,5.6c0,0-45.6,84.7-127.4,75.4
					S2205.4,1177.8,2205.4,1177.8z"/>
			</g>
			<g>
				<path class="st2" d="M2239.7,1444.3h-225.3c-6.9,0-12.5-5.6-12.5-12.5v-18.1c0-6.9,5.6-12.5,12.5-12.5h225.3
					c6.9,0,12.5,5.6,12.5,12.5v18.1C2252.2,1438.7,2246.6,1444.3,2239.7,1444.3z"/>
			</g>
			<g>
				<path class="st2" d="M2242.2,1690.7h-233.6c-6.9,0-12.5-5.6-12.5-12.5v-18.1c0-6.9,5.6-12.5,12.5-12.5h233.6
					c6.9,0,12.5,5.6,12.5,12.5v18.1C2254.7,1685.1,2249.1,1690.7,2242.2,1690.7z"/>
			</g>
			<g>
				
					<rect x="1855.4" y="1602.2" transform="matrix(0.1771 -0.9842 0.9842 0.1771 81.8192 3305.5212)" class="st2" width="324.3" height="3.2"/>
			</g>
			<g>
				
					<rect x="2235.4" y="1441.8" transform="matrix(0.985 -0.1727 0.1727 0.985 -243.4216 410.5316)" class="st2" width="3.2" height="324"/>
			</g>
			<g>
				<rect x="2125.5" y="1444.3" class="st2" width="3.2" height="319.1"/>
			</g>
			<g>
				<path class="st16" d="M2186.2,1256.1c-0.3,0-0.6-0.1-0.8-0.2c-0.8-0.5-1-1.5-0.6-2.2c0.3-0.5,30.2-49.7,79.7-63.3
					c41.9-11.5,60.6-5.9,82.2,0.5c4.1,1.2,8.4,2.5,12.9,3.7c27.2,7.1,38.7,4.2,38.8,4.2c0.9-0.2,1.8,0.3,2,1.1
					c0.2,0.9-0.3,1.7-1.1,2c-0.5,0.1-12.2,3.2-40.5-4.2c-4.6-1.2-8.9-2.5-13-3.7c-21.2-6.3-39.4-11.7-80.5-0.5
					c-48.3,13.2-77.5,61.4-77.8,61.8C2187.3,1255.8,2186.7,1256.1,2186.2,1256.1z"/>
			</g>
			<g>
				<path class="st16" d="M2040.2,1256.1c-0.8,0-1.4-0.5-1.6-1.3c-6.5-33.4-19.8-55.7-39.6-66.2c-26.1-13.9-54.9-1.9-55.2-1.8
					c-0.8,0.4-1.8,0-2.1-0.9c-0.4-0.8,0-1.8,0.9-2.1c1.2-0.5,30.4-12.7,58,1.9c20.7,11,34.6,34,41.3,68.5c0.2,0.9-0.4,1.7-1.3,1.9
					C2040.4,1256.1,2040.3,1256.1,2040.2,1256.1z"/>
			</g>
			<g>
				<path class="st16" d="M2076.7,1264.4c-0.9,0-1.6-0.7-1.6-1.6c-0.5-59.2-20.5-90-37.2-105.3c-18-16.5-35.9-19.2-36.1-19.3
					c-0.9-0.1-1.5-0.9-1.4-1.8c0.1-0.9,1-1.5,1.8-1.4c0.8,0.1,19.1,2.9,37.9,20.1c17.2,15.8,37.7,47.3,38.3,107.7
					C2078.3,1263.7,2077.6,1264.4,2076.7,1264.4C2076.7,1264.4,2076.7,1264.4,2076.7,1264.4z"/>
			</g>
			<g>
				<path class="st16" d="M2102.8,1264.4c-0.9,0-1.6-0.7-1.6-1.6c0-1-4.6-99.1-43.4-147.1c-39.5-48.8-41.7-71.5-41.8-72.5
					c-0.1-0.9,0.6-1.7,1.5-1.7c0.9-0.1,1.7,0.6,1.7,1.5l0,0c0,0.2,2.4,22.8,41.1,70.7c39.5,48.9,44.1,148.1,44.2,149.1
					C2104.4,1263.6,2103.7,1264.4,2102.8,1264.4C2102.8,1264.4,2102.8,1264.4,2102.8,1264.4z"/>
			</g>
			<g>
				<path class="st16" d="M2127.1,1268.6c-0.1,0-0.1,0-0.2,0c-0.9-0.1-1.5-0.9-1.5-1.8c10.2-109.4-15.1-172-30.2-209.3
					c-0.8-2-1.6-4-2.4-5.8c-14.7-36.6-0.2-78.9,0-79.4c0.3-0.8,1.2-1.3,2.1-1c0.8,0.3,1.3,1.2,1,2.1c-0.1,0.4-14.2,41.6,0,77.1
					c0.7,1.9,1.5,3.8,2.3,5.8c15.2,37.6,40.7,100.6,30.4,210.8C2128.6,1268,2127.9,1268.6,2127.1,1268.6z"/>
			</g>
			<g>
				<path class="st16" d="M2144.5,1256.1c-0.9,0-1.6-0.7-1.6-1.6c0-0.4-0.2-38.4,6.9-79.7c9.6-55.7,27.2-90.5,52.4-103.2
					c58.2-29.6,73.1-64.5,73.3-64.9c0.3-0.8,1.3-1.2,2.1-0.9c0.8,0.3,1.2,1.3,0.9,2.1c-0.6,1.5-15.5,36.4-74.8,66.5
					c-57.9,29.5-57.5,178.5-57.5,180C2146.1,1255.3,2145.4,1256.1,2144.5,1256.1C2144.5,1256.1,2144.5,1256.1,2144.5,1256.1z"/>
			</g>
			<g>
				<path class="st16" d="M2164.3,1264.4c-0.1,0-0.2,0-0.3,0c-0.9-0.2-1.5-1-1.3-1.9c9.9-58.2,49.9-97.7,72.8-116.1
					c31.3-25.1,68.5-41.3,90.6-39.6c38.9,3.1,76.3-5.1,76.7-5.2c0.9-0.2,1.7,0.4,1.9,1.2c0.2,0.9-0.4,1.7-1.2,1.9
					c-0.4,0.1-38.2,8.4-77.7,5.2c-38.1-3-143.2,54.7-159.9,153C2165.8,1263.9,2165.1,1264.4,2164.3,1264.4z"/>
			</g>
			<g>
				<polygon class="st5" points="2214.4,1401.2 2036.4,1401.2 2011,1239.8 2239.7,1239.8 				"/>
			</g>
			<g>
				<rect x="2014.6" y="1261.2" class="st17" width="171.6" height="3.2"/>
			</g>
		</g>
		<g>
			<g>
				<path class="st2" d="M1909.2,1070.2h-160.8c9.3-35.7,41.8-62,80.4-62C1867.4,1008.2,1899.9,1034.5,1909.2,1070.2z"/>
			</g>
			<g>
				<polygon class="st2" points="1832.8,1034.2 1810.8,1034.2 1882.3,795.2 1904.3,795.2 				"/>
			</g>
			<g>
				<polygon class="st2" points="1904.3,794.9 1882.2,794.9 1818,706 1840.1,706 				"/>
			</g>
			<g>
				
					<ellipse transform="matrix(0.5 -0.866 0.866 0.5 272.3704 1745.8934)" class="st5" cx="1648.2" cy="637.1" rx="26.5" ry="43.1"/>
			</g>
			<g>
				<path class="st2" d="M1697.4,556.8c0,0,50.7-12.1,52.6,37.7c1.8,49.7-3.7,54.6-3.7,54.6h-18.9c0,0,15.3-80.1-22.6-72.8
					L1697.4,556.8z"/>
			</g>
			<g>
				<polygon class="st2" points="1744.4,637.1 1834.9,686.4 1818,702.3 1727.3,649.1 				"/>
			</g>
			<g>
				<circle class="st0" cx="1826.2" cy="695.3" r="17.4"/>
				<path class="st2" d="M1826.2,713.8c-10.2,0-18.5-8.3-18.5-18.5s8.3-18.5,18.5-18.5s18.5,8.3,18.5,18.5
					S1836.4,713.8,1826.2,713.8z M1826.2,678.9c-9,0-16.3,7.3-16.3,16.3c0,9,7.3,16.3,16.3,16.3s16.3-7.3,16.3-16.3
					C1842.6,686.2,1835.3,678.9,1826.2,678.9z"/>
			</g>
			<g>
				<circle class="st0" cx="1890.8" cy="795.8" r="17.4"/>
				<path class="st2" d="M1890.8,814.3c-10.2,0-18.5-8.3-18.5-18.5c0-10.2,8.3-18.5,18.5-18.5s18.5,8.3,18.5,18.5
					C1909.3,806,1901,814.3,1890.8,814.3z M1890.8,779.5c-9,0-16.3,7.3-16.3,16.3c0,9,7.3,16.3,16.3,16.3s16.3-7.3,16.3-16.3
					C1907.2,786.8,1899.8,779.5,1890.8,779.5z"/>
			</g>
			<g>
				<circle class="st0" cx="1739.8" cy="646.1" r="17.4"/>
				<path class="st2" d="M1739.8,664.6c-10.2,0-18.5-8.3-18.5-18.5s8.3-18.5,18.5-18.5c10.2,0,18.5,8.3,18.5,18.5
					S1750,664.6,1739.8,664.6z M1739.8,629.7c-9,0-16.3,7.3-16.3,16.3s7.3,16.3,16.3,16.3c9,0,16.3-7.3,16.3-16.3
					S1748.8,629.7,1739.8,629.7z"/>
			</g>
			<g>
				<path class="st2" d="M1708,651.3c0,10.8-2.5,21.1-6.9,30.2c-12.4-15.7-32.3-32.4-56.8-46.5c-21.8-12.6-43.5-20.9-61.9-24.7
					c12.6-17.3,33.1-28.5,56.1-28.5C1676.9,581.8,1708,613,1708,651.3z"/>
			</g>
			<g>
				
					<ellipse transform="matrix(0.5 -0.866 0.866 0.5 331.7698 1745.8934)" class="st2" cx="1677.9" cy="585.6" rx="41.3" ry="35.3"/>
			</g>
		</g>
	</g>
</g>
</svg>
