<?xml version="1.0" encoding="utf-8"?>
<!-- Generator: Adobe Illustrator 27.9.4, SVG Export Plug-In . SVG Version: 9.03 Build 54784)  -->
<svg version="1.1" id="Layer_1" xmlns="http://www.w3.org/2000/svg" xmlns:xlink="http://www.w3.org/1999/xlink" x="0px" y="0px"
	 viewBox="0 0 500 383.2" enable-background="new 0 0 500 383.2" xml:space="preserve">
<g>
	<g>
		<g>
			<path fill="#7CEDDF" d="M473.9,322.8h-80.5c-6.5,0-11.8-5.3-11.8-11.8V181.5c0-6.5,5.3-11.8,11.8-11.8h80.5
				c6.5,0,11.8,5.3,11.8,11.8V311C485.7,317.6,480.5,322.8,473.9,322.8z"/>
		</g>
		<g>
			<path fill="#009254" d="M456.3,122.2c0,0-5.2,5.7-6.2,14c-0.1,1.1,0,15.2,0,15.3h9.3l3.5-14.5
				C462.6,132.5,460.9,127.5,456.3,122.2z"/>
			<g>
				<path fill="#8FBF43" d="M472.5,127.1c-9.5,2.9-12.4,17.9-13.1,22.3l5.7,0.2C475.8,140.2,472.5,127.1,472.5,127.1z"/>
				<path fill="#8FBF43" d="M440.6,127.1c0,0-3.2,13,7.3,22.3l5.8-0.1C453,144.8,450.1,129.9,440.6,127.1z"/>
			</g>
			<g>
				<polygon fill="#FD9081" points="456.5,148.8 438.9,148.8 445.1,169.6 456.5,169.6 468,169.6 474.1,148.8 				"/>
			</g>
		</g>
		<g>
			<g>
				<g>
					<path fill="#42B2A2" d="M472.5,207.4H395c-3.6,0-6.5-2.9-6.5-6.5v-16.7c0-3.6,2.9-6.5,6.5-6.5h77.5c3.6,0,6.5,2.9,6.5,6.5V201
						C479,204.5,476.1,207.4,472.5,207.4z"/>
				</g>
				<g>
					<circle fill="#F7E402" cx="433.7" cy="193.1" r="5"/>
				</g>
			</g>
			<g>
				<g>
					<path fill="#42B2A2" d="M472.5,241.4H395c-3.6,0-6.5-2.9-6.5-6.5v-16.7c0-3.6,2.9-6.5,6.5-6.5h77.5c3.6,0,6.5,2.9,6.5,6.5v16.7
						C479,238.5,476.1,241.4,472.5,241.4z"/>
				</g>
				<g>
					<circle fill="#F7E402" cx="433.7" cy="227" r="5"/>
				</g>
			</g>
			<g>
				<path fill="#42B2A2" d="M470.8,315.4h-74.2c-4.5,0-8.2-3.7-8.2-8.2v-53.7c0-4.5,3.7-8.2,8.2-8.2h74.2c4.5,0,8.2,3.7,8.2,8.2
					v53.7C479,311.7,475.3,315.4,470.8,315.4z"/>
			</g>
			<g>
				<path fill="#F7E402" d="M471.1,291.2L471.1,291.2c-1.9,0-3.5-1.6-3.5-3.5v-14.6c0-1.9,1.6-3.5,3.5-3.5l0,0
					c1.9,0,3.5,1.6,3.5,3.5v14.6C474.6,289.6,473,291.2,471.1,291.2z"/>
			</g>
		</g>
		<g>
			<polygon fill="#F29B00" points="392.8,358.4 401.3,358.4 409.5,322.8 396.3,322.8 			"/>
			<polygon fill="#F29B00" points="471.1,322.8 457.9,322.8 466.2,358.4 474.6,358.4 			"/>
		</g>
	</g>
	<g>
		<g>
			<rect x="35.6" y="311.9" fill="#F29B00" width="71.1" height="12.4"/>
		</g>
		<g>
			<g>
				<path fill="#8FBF43" d="M68.7,98.9c0,0-20-21.1-11.7-41.8s5.9-19,5.9-19S94.4,60.5,68.7,98.9z"/>
			</g>
			<g>
				<path fill="#009254" d="M65.5,53.6c2.8,7.1,3.5,14.9,4.1,22.4c0.5,7.6,0.3,15.3,0.1,22.8c-0.1,7.6-0.1,15.2-0.2,22.8L69.1,133
					c-0.2,3.8-0.3,7.6-0.5,11.4c-0.2-3.8-0.3-7.6-0.5-11.4l-0.3-11.4c-0.2-7.6-0.1-15.2-0.2-22.8c0.4-7.6,0.6-15.2,0.4-22.7
					c-0.1-3.8-0.3-7.6-0.7-11.3C67.1,61,66.6,57.2,65.5,53.6z"/>
			</g>
			<g>
				<path fill="#8FBF43" d="M60.8,129.3c0,0,11.7-12.4-8.7-36.1c-1-1.1-2-2.3-2.9-3.5c-3.3-4.4-13.4-16.3-21-10.1
					c0,0,16.7,10.7,18,28.1C47.1,119.5,50.6,124.3,60.8,129.3z"/>
			</g>
			<g>
				<path fill="#009254" d="M60.8,158.2c0.8,4,0.9,8,1,12c0,4-0.2,8-1,12c-0.8-4-0.9-8-1-12C59.9,166.2,60.1,162.2,60.8,158.2z"/>
			</g>
			<g>
				<path fill="#009254" d="M46.2,95c2.9,2.4,5.4,5.4,7.5,8.5c2.1,3.2,3.8,6.6,5,10.2s2.1,7.4,2.5,11.2c0.1,0.9,0.1,1.9,0.2,2.9
					l0.1,1.4l-0.1,1.4c-0.2,1.9-0.3,3.8-0.5,5.6c-0.4-3.8-0.5-7.5-1.1-11.1c-0.7-3.6-1.6-7.2-2.8-10.7s-2.7-6.9-4.5-10.1
					C50.5,101.1,48.6,97.9,46.2,95z"/>
			</g>
			<g>
				<path fill="#8FBF43" d="M77.8,109.7c0,0-7-16.8,5.5-29.1s21.8-13.6,26.2-21.7c0,0,5,11.5-8.9,24.4S92.1,104.2,77.8,109.7z"/>
			</g>
			<g>
				<path fill="#009254" d="M99.7,73.7c-2.8,2.2-5.2,4.8-7.5,7.5c-1.1,1.3-2.2,2.8-3.1,4.2l-1.5,2.2l-1.3,2.3
					c-1.7,3-3.2,6.2-4.4,9.5c-0.6,1.6-1.1,3.3-1.6,5s-0.8,3.4-1.2,5.1v-0.1c-0.1,4.5-0.3,9-0.7,13.5c-0.4-4.5-0.6-9-0.7-13.5v-0.1
					l0,0c0.5-3.5,1.2-7.1,2.5-10.5c1.1-3.4,2.7-6.7,4.5-9.8c1.8-3.1,4.1-5.9,6.6-8.5C93.8,77.8,96.6,75.5,99.7,73.7z"/>
			</g>
			<g>
				<path fill="#8FBF43" d="M84.4,165.5c0,0-8.7-13.6,8.2-24.6c0,0,9.1-5.4,12.5-17.1C105.1,123.7,114.9,151.7,84.4,165.5z"/>
			</g>
			<g>
				<path fill="#8FBF43" d="M78.1,150.1c0,0-10.5-10.4-1.1-24.8s22.1-12.5,27.5-26.4c0,0,8.7,14.3-9.1,29.5
					C77.6,143.5,78.1,150.1,78.1,150.1z"/>
			</g>
			<g>
				<path fill="#8FBF43" d="M52.2,153.3c0,0,10-12.9-6.1-28.8c0,0-5.9-7.1-12.9-10.1c0,0,7.7,13.4,7.5,22
					C40.6,145,44,150.5,52.2,153.3z"/>
			</g>
			<g>
				<path fill="#8FBF43" d="M57.1,131c0,0,3.9,7,9.9,12.4c4.1,3.7,6.8,8.8,7,14.3c0.1,4.2-0.8,8.9-4.1,13.1
					C69.9,170.8,55.1,159.4,57.1,131z"/>
			</g>
			<g>
				<path fill="#009254" d="M97.7,142.3c-2.5,2.7-4.7,5.6-6.7,8.6s-3.7,6.2-4.7,9.6c-0.3,0.8-0.4,1.7-0.7,2.6
					c-0.2,0.9-0.2,1.7-0.3,2.6c-0.1,1.8-0.1,3.7-0.2,5.5c-0.1,3.7-0.4,7.3-0.7,11c-0.4-3.7-0.6-7.3-0.7-11c-0.1-1.8-0.1-3.7-0.2-5.5
					c0.1-0.9,0.2-1.9,0.3-2.9c0.2-0.9,0.3-1.9,0.7-2.8c1.2-3.6,3-7,5.3-9.9C92.1,147.2,94.7,144.5,97.7,142.3z"/>
			</g>
			<g>
				<path fill="#009254" d="M93.8,118c-4.9,3.1-8.7,7.7-11.2,12.8S79,141.6,79,147.3c0.1,5.7,0,11.6-0.2,17.4l-0.3,8.7
					c-0.2,2.9-0.3,5.8-0.5,8.7c-0.2-2.9-0.3-5.8-0.5-8.7l-0.3-8.7c-0.2-5.8-0.2-11.6-0.3-17.4c0-2.9,0.4-5.9,1-8.8
					c0.8-2.9,1.7-5.7,3.2-8.3c1.5-2.6,3.2-5,5.3-7.1C88.8,121,91.2,119.2,93.8,118z"/>
			</g>
			<g>
				<path fill="#009254" d="M61.7,145.3c1.5,1.7,2.8,3.6,3.9,5.7c1.1,2,2,4.1,2.7,6.3s1.3,4.4,1.7,6.7c0.2,1.1,0.3,2.3,0.5,3.4
					c0.1,1.1,0.2,2.3,0.3,3.4l0,0l0,0c-0.1,3.8-0.4,7.6-0.8,11.4c-0.4-3.8-0.7-7.6-0.8-11.4v0.1c-0.3-2.2-0.6-4.4-1-6.6
					c-0.4-2.2-0.9-4.3-1.5-6.5c-0.6-2.1-1.3-4.3-2.1-6.3C63.7,149.4,62.8,147.3,61.7,145.3z"/>
			</g>
			<g>
				<path fill="#009254" d="M44.3,131c3,3.3,5.2,7.3,6.7,11.5c0.8,2.1,1.3,4.3,1.7,6.5s0.6,4.5,0.5,6.7c0,4.4,0,8.8-0.2,13.3
					l-0.3,6.6c-0.2,2.2-0.3,4.4-0.5,6.6c-0.2-2.2-0.3-4.4-0.5-6.6l-0.3-6.6c-0.2-4.4-0.2-8.8-0.2-13.2c0.1-2.2-0.1-4.3-0.4-6.5
					c-0.3-2.1-0.7-4.3-1.3-6.4c-0.6-2.1-1.3-4.2-2.2-6.1C46.6,134.8,45.5,132.9,44.3,131z"/>
			</g>
			<g>
				<rect x="29" y="231" fill="#F29B00" width="79.2" height="10.7"/>
			</g>
			<g>
				<polygon fill="#FFB901" points="19,358.4 30.8,358.4 52.2,241.7 40.1,241.7 				"/>
				<polygon fill="#FFB901" points="99,241.7 86.8,241.7 108.3,358.4 120,358.4 				"/>
			</g>
			<g>
				<polygon fill="#7CEDDF" points="95.9,182.7 93.6,194.5 91.5,205.4 86.6,231 51.4,231 46.5,205.4 44.4,194.5 42.1,182.7 				"/>
			</g>
			<g>
				<polygon fill="#42B2A2" points="93.6,194.5 91.5,205.4 46.5,205.4 44.4,194.5 				"/>
			</g>
		</g>
	</g>
	<g>
		<rect y="357.5" width="500" height="1.9"/>
	</g>
	
		<linearGradient id="SVGID_1_" gradientUnits="userSpaceOnUse" x1="369.0423" y1="105.9569" x2="341.1498" y2="149.9653" gradientTransform="matrix(1 0 0 -1 0 386)">
		<stop  offset="0.1032" style="stop-color:#F9B8BE"/>
		<stop  offset="0.18" style="stop-color:#F5B3BE"/>
		<stop  offset="0.2745" style="stop-color:#EBA4BF"/>
		<stop  offset="0.3771" style="stop-color:#DA8BC1"/>
		<stop  offset="1" style="stop-color:#7FC8E5"/>
	</linearGradient>
	<path fill="url(#SVGID_1_)" d="M334.2,242.9c0,0-3.8-13.1,7.6-15.2c9.9-1.9,29.2,24.1,24.4,40.3c-1.5,5.1-7.1,7.8-12,5.6
		C348.4,270.9,340.5,263.4,334.2,242.9z"/>
	
		<linearGradient id="SVGID_00000001641398537958648120000016350246561586610867_" gradientUnits="userSpaceOnUse" x1="337.3689" y1="201.7599" x2="367.1209" y2="155.2722" gradientTransform="matrix(1 0 0 -1 0 386)">
		<stop  offset="0.1032" style="stop-color:#F9B8BE"/>
		<stop  offset="0.18" style="stop-color:#F5B3BE"/>
		<stop  offset="0.2745" style="stop-color:#EBA4BF"/>
		<stop  offset="0.3771" style="stop-color:#DA8BC1"/>
		<stop  offset="1" style="stop-color:#7FC8E5"/>
	</linearGradient>
	<path fill="url(#SVGID_00000001641398537958648120000016350246561586610867_)" d="M340.4,193.9c0,0,0.7-9.4,9.2-2.8
		c8.5,6.6,9.8,19,4.1,21C347.9,214.2,339.7,209.3,340.4,193.9z"/>
	<g>
		<path fill="#844793" d="M303.7,377.1c-2.3,0.9-5.3,1.1-8.9,0.7c-15.7-1.8-40.3-14.4-40.3-14.4l45.7-16.2l14.3-5.1
			C314.5,342.1,316.1,372,303.7,377.1z"/>
	</g>
	<g>
		<path fill="#7CEDDF" d="M303.7,377.1c-2.3,0.9-5.3,1.1-8.9,0.7c-7.7-12.9-0.4-24.4,5.5-30.6l14.3-5.1
			C314.5,342.1,316.1,372,303.7,377.1z"/>
	</g>
	<g>
		<g>
			<path d="M286.2,350.8c0.2,2.9-0.2,5.8-0.7,8.6c-0.6,2.8-1.3,5.5-2.6,8.2c-0.2-2.9,0.2-5.8,0.7-8.6
				C284.2,356.2,284.9,353.4,286.2,350.8z"/>
		</g>
		<g>
			<path d="M280.1,349.2c0.2,2.9-0.2,5.8-0.7,8.6c-0.6,2.8-1.3,5.5-2.6,8.2c-0.2-2.9,0.2-5.8,0.7-8.6
				C278.1,354.6,278.8,351.8,280.1,349.2z"/>
		</g>
		<g>
			<path d="M273.6,346.7c0.2,2.9-0.2,5.8-0.7,8.6c-0.6,2.8-1.3,5.5-2.6,8.2c-0.2-2.9,0.2-5.8,0.7-8.6
				C271.6,352.1,272.3,349.3,273.6,346.7z"/>
		</g>
	</g>
	<g>
		<path fill="#FFBCB1" d="M203.1,248.2l-14.9,109.7H152h-21.1c-1.1,0-1.7-1.2-1.1-2.1c1.4-2.1,4.5-5.6,11.3-9.2
			c1.2-0.6,2.5-1,3.8-1.1l17.6-4c0,0,0.4,8.4,15.9-98.2L203.1,248.2z"/>
	</g>
	<g>
		<path fill="#FFBCB1" d="M306.4,248.5c0,0,27.7,6.9,32.7,4.9c4.9-2-13-27.6-13-27.6l-15.7-3.1C310.3,222.8,303.3,243,306.4,248.5z"
			/>
	</g>
	<g>
		<polygon fill="#F42A86" points="217,305.2 287.7,312.5 246.5,335.9 		"/>
	</g>
	<g>
		<path fill="#8C3425" d="M216.2,118.9c0,0-1.4-13.5-14.6-10.3c-9.3,2.3-17.8,9.3-21.8,21.4c-2.6,7.9-2.4,16.4-0.2,24.4
			c3.6,12.4,8,37.5-14.1,37.8c-3.6,0-6.6,2.7-6.8,6.2c0,0.7,0,1.5,0.1,2.3c0.8,6.8,11.8,6.4,11.8,6.4s-3.1,14,12,9.7
			c0,0,3.7,11,15.3,3.3c11.6-7.6,22.1-30.6,18.3-63.4V118.9z"/>
	</g>
	<g>
		<path fill="#F29B00" d="M224.6,189.1c0,0-21.8-2.5-30.4,1.9c-8.5,4.3-13.2,35.2-27,52.2c0,0,8.2,16.6,38,11.2l2.3-15.7
			c0,0,3.9,25.3-4.5,54.7l-3.7,13.9c0,0,36.3,19.5,92.7,5.3l-12-56.7c0,0,5.3-4.5,5.9-13.9l19.7,11.2c0,0,5-30.8,15.8-42.3
			l-52.5-16.6l-28.5,1.1L224.6,189.1z"/>
	</g>
	<g>
		<path fill="#F7E402" d="M231.1,190c0,0-4.7-3.4-8.9-0.8c-2.3,1.4-3.5,4.1-3.3,6.8c0.3,4.4,2.6,11.5,13.8,11.6
			c0,0-6.7,8.6,3.5,10.6c10.2,2.1,15.8-4.6,15.8-4.6s19.9,0.2,13.1-11.5c0,0,7.5-3.9,4.4-11.5c-3.1-7.5-15.6,0.5-15.6,0.5L231.1,190
			z"/>
	</g>
	<g>
		<path fill="#F7E402" d="M221.6,118.7l-5.9-1.9c0,0-6.3,4.9-6.8,13.5c0,0,1.4,2,4.1,1.8L221.6,118.7z"/>
	</g>
	<g>
		<polygon fill="#FFBCB1" points="262.1,193.5 252.1,213.6 234.9,194.3 231.1,190 229.6,174.8 261.7,180.3 261.8,184 		"/>
	</g>
	<g>
		<polygon fill="#FD9081" points="261.8,184 234.9,194.3 231.1,190 229.6,174.8 261.7,180.3 		"/>
	</g>
	<g>
		<path fill="#FFBCB1" d="M273,161.6c0,4.6-0.7,9.2-2.3,13.2c-1.8,4.4-4.8,7.9-9.8,9.5c-19.6,6.6-33.9-12.4-33.9-12.4l-1.7-39.7
			c0,0,39-14.9,45,9.1C270.5,141.3,273.2,151.2,273,161.6z"/>
	</g>
	<g>
		<path d="M256.2,147.5c0.9,2.6,1.9,5.1,3,7.5c0.6,1.2,1.2,2.3,1.9,3.4c0.7,1,1.6,2,2.6,2.6l0.8,0.4L264,162
			c-0.6,0.8-1.1,1.3-1.8,1.8c-0.7,0.5-1.5,0.9-2.3,1.1c-1.6,0.5-3.3,0.3-4.8-0.3c0.8,0,1.6,0.1,2.3,0c0.8-0.1,1.5-0.3,2.1-0.6
			c0.7-0.3,1.3-0.7,1.8-1.2s1.1-1,1.4-1.6l0.3,1c-1.4-0.7-2.4-1.8-3.2-3c-0.8-1.2-1.4-2.4-1.9-3.7s-0.9-2.6-1.2-3.9
			C256.5,150.2,256.3,148.8,256.2,147.5z"/>
	</g>
	<g>
		<path d="M246.7,169.9c1.7,2.1,3.4,3.9,5.5,4.6c1,0.4,2.2,0.5,3.4,0.4c0.6,0,1.2-0.2,1.8-0.2c0.6-0.1,1.2-0.3,1.9-0.4
			c-0.5,0.5-1,0.9-1.6,1.3c-0.6,0.3-1.2,0.7-1.9,0.8c-1.3,0.5-2.9,0.4-4.3-0.1c-1.4-0.5-2.6-1.5-3.4-2.6
			C247.3,172.5,246.8,171.2,246.7,169.9z"/>
	</g>
	<g>
		<circle fill="#FF765F" cx="235.9" cy="166.9" r="6.7"/>
	</g>
	<g>
		<path fill="#FF765F" d="M273,161.6c0,4.6-0.7,9.2-2.3,13.2c-3.4-0.3-6.1-3.2-6.1-6.7c0-3.7,3-6.7,6.7-6.7
			C271.9,161.3,272.5,161.4,273,161.6z"/>
	</g>
	<g>
		<path fill="#8C3425" d="M223.1,156.1c0,0,12.7-16,12.3-23.3c0,0,15.4,9,31.4,8.6c0,0,16,5.9,20.3-2.2c0.1-0.2,0.2-0.5,0.3-0.7
			c0.4-1.4,1.4-6.4-4.2-7.1c0,0,3.8-1.6,2.3-6.6c-1.5-5-11.7-3.5-14.7-1.3c0,0-16.6-25.3-47-7.1c0,0-22,11.6-10.4,47.2L223.1,156.1z
			"/>
	</g>
	<g>
		<ellipse fill="#844793" cx="219.9" cy="165.7" rx="13" ry="13.9"/>
	</g>
	<g>
		<ellipse fill="#FFFFFF" cx="219.2" cy="165.8" rx="7.7" ry="8.3"/>
	</g>
	<g>
		<g>
			<path fill="#E5E1E3" d="M232.9,139.2l-6.1,1.4c-1.2,0.3-2.2,1.3-2.4,2.5c-1.2,5.9-2.7,22.5,19.2,19.6L232.9,139.2z"/>
		</g>
		<g>
			<path fill="#F42A86" d="M273.8,130.8l-41.9,9.6c0,0-8.4,20.8,12.8,21.5c0,0,8.2-0.7,11.7-7.5c0.7-1.3,2.3-1.9,3.7-1.2
				c3.4,1.9,9.6,4,15.5-1.2C284.1,144.5,278.5,133.3,273.8,130.8z"/>
		</g>
		<g>
			<g>
				<g>
					<path fill="#F7E402" d="M234.2,158.1l-1-0.4c0.5-1.1,0.6-2.1,0.8-3.1c0.2-1.6,0.4-3.3,2.2-5.6c1.7-2.3,3.3-3,4.8-3.6
						c1.4-0.6,2.8-1.2,4.3-3.3c1.6-2.1,1.8-3.5,2-5l1,0.1c-0.2,1.5-0.4,3.2-2.2,5.5c-1.7,2.3-3.3,3-4.8,3.6
						c-1.4,0.6-2.8,1.2-4.3,3.3c-1.6,2.1-1.8,3.5-2,5.1C234.9,155.7,234.8,156.8,234.2,158.1z"/>
				</g>
			</g>
			<g>
				<g>
					<path fill="#FFB901" d="M247.1,156.2l-0.8-0.6c1.7-2.3,3.3-3,4.8-3.6c1.4-0.6,2.8-1.2,4.3-3.3c1.6-2.1,1.8-3.5,2-5.1
						s0.4-3.3,2.2-5.6c1.7-2.3,3.3-3,4.8-3.6c1.4-0.6,2.8-1.2,4.3-3.3l0.8,0.6c-1.7,2.3-3.3,3-4.8,3.6c-1.4,0.6-2.8,1.2-4.3,3.3
						c-1.6,2.1-1.8,3.5-2,5.1s-0.4,3.3-2.2,5.6c-1.7,2.3-3.3,3-4.8,3.6C250,153.5,248.7,154.1,247.1,156.2z"/>
				</g>
				<g>
					<g>
						<path fill="#F7E402" d="M245,162.1l-1-0.2c0-0.3,0.1-0.5,0.1-0.8c0.2-1.6,0.4-3.3,2.2-5.6c1.7-2.3,3.3-3,4.8-3.6
							c1.4-0.6,2.8-1.2,4.3-3.3c1.6-2.1,1.8-3.5,2-5.1s0.4-3.3,2.2-5.6c1.7-2.3,3.3-3,4.8-3.6c1.4-0.6,2.8-1.2,4.3-3.3l0.8,0.6
							c-1.7,2.3-3.3,3-4.8,3.6c-1.4,0.6-2.8,1.2-4.3,3.3c-1.6,2.1-1.8,3.5-2,5.1s-0.4,3.3-2.2,5.6c-1.7,2.3-3.3,3-4.8,3.6
							c-1.4,0.6-2.8,1.2-4.3,3.3c-1.6,2.1-1.8,3.5-2,5.1C245.1,161.5,245,161.8,245,162.1z"/>
					</g>
				</g>
			</g>
			<g>
				<g>
					<path fill="#F7E402" d="M267.2,155.5l-0.8-0.6c1.6-2.1,1.8-3.5,2-5.1s0.4-3.3,2.2-5.6c1.7-2.3,3.3-3,4.8-3.6
						c1.1-0.5,2.2-1,3.4-2.2l0.8,0.7c-1.3,1.3-2.5,1.9-3.7,2.4c-1.4,0.6-2.8,1.2-4.3,3.3c-1.6,2.1-1.8,3.5-2,5.1
						C269.2,151.6,268.9,153.2,267.2,155.5z"/>
				</g>
			</g>
		</g>
		<g>
			<path fill="#FFFFFF" d="M244.8,162.9c-6.5-0.2-11-2.2-13.4-6c-4.4-6.7-0.5-16.5-0.4-16.9c0.1-0.3,0.4-0.5,0.7-0.6l41.9-9.6
				c0.2,0,0.5,0,0.7,0.1c2.8,1.4,5.9,5.6,6.6,10.8c0.4,3.3-0.1,8-4.7,12.2c-6.3,5.7-13.1,3.2-16.6,1.3c-0.4-0.2-0.8-0.3-1.3-0.1
				c-0.5,0.1-0.8,0.5-1.1,0.9C253.6,162.1,245.2,162.9,244.8,162.9z M232.7,141.2c-0.7,1.9-3,9.5,0.4,14.6c2.1,3.2,6,4.9,11.7,5.1
				c0,0,7.6-0.8,10.8-6.9c0.5-0.9,1.3-1.6,2.2-1.9c0.9-0.3,1.9-0.2,2.8,0.3c3.7,2.1,9.2,3.5,14.4-1.1c4-3.6,4.4-7.7,4-10.5
				c-0.5-4.3-3.1-7.8-5.3-9.1L232.7,141.2z"/>
		</g>
	</g>
	<g>
		<path fill="#F42A86" d="M250.2,335.2c0,0-39.2-55.5-73.9-60.7c-10.4-1.6-20.5,4.4-23.3,14.5c-3.5,12.4,0.8,33.2,41.8,61.1
			C194.7,350.1,241.5,355.1,250.2,335.2z"/>
	</g>
	<g>
		<path fill="#FFBCB1" d="M332,210.7c-5.9-5.3-40.9-40.2-40.9-40.2l-2-21.2c-0.1-1.4-0.7-2.8-1.6-3.9c-0.3-0.4-0.7-0.7-1.1-1.1
			c0.5-1.8,0.4-3.2,0-4.4c-0.5-1.5-1.7-2.5-3.2-3c-3.3-1-10.5-3.1-11.9-1.4c-1.2,1.5,2.7,4,5.3,5.5c-0.7,0.1-1.5,0.2-2.3,0.3
			c-0.9,0.2-1.3,1.2-0.7,1.9c1,1.3,3.1,3,6.7,4.3l0.7,4.1c0,0-12.7-6.1-10.9-1.6l9.4,8.5c0,0-9.9-6.4-10.4-4.2s6.2,8.4,6.2,8.4
			s0.5,8,4.4,13.2l39.4,66.6c0,0,11.5,17.1,25,8.9C357.5,243.2,337.9,216,332,210.7z"/>
	</g>
	<g>
		<polygon fill="#FFBCB1" points="231.9,343.1 239,342.1 246.8,361.4 237.2,365.3 		"/>
	</g>
	<g>
		<path fill="#844793" d="M237.2,365.3c0,0-24.5,14.7-39.6,17.4c-1.8,0.3-3.5,0.5-5,0.4c-2.3-0.1-4.3-1.4-5.4-3.4
			c-3.1-5.1-10.1-17.7-11-29.8c-0.3-3.1,1.8-5.9,4.9-6.7c1.8-0.4,4.3-0.9,7.5-1.2c8.3-0.9,21.9-1.1,43.5,1
			C231.9,343.1,236.1,352.3,237.2,365.3z"/>
	</g>
	<g>
		<path fill="#7CEDDF" d="M197.6,382.7L197.6,382.7c-1.8,0.3-3.5,0.5-5,0.4c-2.3-0.1-4.3-1.4-5.4-3.4c-3.1-5.1-10.1-17.7-11-29.8
			c-0.3-3.1,1.8-5.9,4.9-6.7c1.8-0.4,4.3-0.9,7.5-1.2C188.4,342.1,216,354.9,197.6,382.7z"/>
	</g>
	<g>
		<path fill="#F42A86" d="M238.1,339.3c0,0,17.7-11.2,39-28.8c21.4-17.7,57.3-30.4,68.8-12.7c11.5,17.7-15.5,39.4-32.5,48
			c-17,8.7-67.6,19.5-67.6,19.5S237.2,350.4,238.1,339.3z"/>
	</g>
	<g>
		<g>
			<path d="M219.5,348c1.6,2.5,2.5,5.2,3.4,7.9c0.8,2.7,1.5,5.5,1.5,8.4c-1.6-2.5-2.5-5.2-3.4-7.9C220.2,353.8,219.6,351,219.5,348z
				"/>
		</g>
		<g>
			<path d="M213.3,349.5c1.6,2.5,2.5,5.2,3.4,7.9c0.8,2.7,1.5,5.5,1.5,8.4c-1.6-2.5-2.5-5.2-3.4-7.9
				C214.1,355.2,213.4,352.4,213.3,349.5z"/>
		</g>
		<g>
			<path d="M206.4,350.3c1.6,2.5,2.5,5.2,3.4,7.9c0.8,2.7,1.5,5.5,1.5,8.4c-1.6-2.5-2.5-5.2-3.4-7.9
				C207.1,356,206.5,353.3,206.4,350.3z"/>
		</g>
	</g>
	<g>
		<path d="M137.1,357.9c-0.3-1.8,0.3-3.9,1.6-5.4c1.3-1.6,3.4-2.3,5.2-2.7c3.7-0.8,7.4-1.1,11.1-0.8c-3.7,0.8-7.3,1.4-10.8,2.2
			c-1.8,0.4-3.4,0.9-4.6,2.1C138.3,354.4,137.4,356,137.1,357.9z"/>
	</g>
	<g>
		<g>
			<path d="M311.4,229.7c1.5,2.5,3,5,4.7,7.4s3.4,4.7,5.3,6.8s3.9,4.2,6.2,5.9c2.3,1.7,4.9,3,7.7,3.9c-2.9-0.2-5.8-1.4-8.3-2.9
				c-2.6-1.5-4.7-3.7-6.7-5.8c-2-2.2-3.7-4.6-5.2-7.2C313.7,235.1,312.4,232.5,311.4,229.7z"/>
		</g>
		<g>
			<path d="M276.5,141.1c1.8-0.5,3.7-0.4,5.4,0c0.9,0.3,1.8,0.6,2.5,1.1c0.8,0.5,1.5,1.2,1.9,2.1c-1.6-0.9-3.2-1.4-4.8-1.8
				C279.9,142.1,278.2,141.7,276.5,141.1z"/>
		</g>
		<g>
			<path d="M269.4,155.9c1.3,1,2.2,2.1,3.2,3.3c0.9,1.2,1.8,2.3,2.7,3.7c-1.6-0.5-2.8-1.6-3.8-2.8
				C270.5,158.8,269.7,157.5,269.4,155.9z"/>
		</g>
	</g>
	<g>
		<path d="M211.8,132.2c-0.5,1.9-0.8,3.8-1.1,5.7c-0.2,1.9-0.4,3.8-0.4,5.7s0,3.8,0.2,5.8c0.1,1.9,0.4,3.8,0.7,5.8
			c-0.8-1.8-1.4-3.7-1.8-5.7c-0.4-2-0.5-4-0.5-5.9C209,139.6,209.8,135.6,211.8,132.2z"/>
	</g>
	<g>
		<path fill="#F7E402" d="M277.9,211.3c2.2,3.3,3.9,6.9,5.3,10.6c1.4,3.7,2.5,7.6,3,11.6s0.6,8.1-0.4,12.1c-0.5,2-1.2,3.9-2.2,5.7
			c-1,1.7-2.3,3.3-3.7,4.7c2.4-3.2,3.8-6.8,4.4-10.6s0.5-7.7,0-11.5s-1.4-7.6-2.5-11.4C280.7,218.7,279.5,214.9,277.9,211.3z"/>
	</g>
	<g>
		<g>
			<path fill="#F7E402" d="M208.1,218.6c0.4,4.4,0.4,8.8,0.4,13.2l-0.2,13.1c-0.8-2.1-1.1-4.3-1.4-6.5c-0.3-2.2-0.3-4.4-0.3-6.6
				c0-2.2,0.2-4.4,0.4-6.6C207.2,222.9,207.5,220.8,208.1,218.6z"/>
		</g>
		<g>
			<path fill="#F7E402" d="M223.1,259.9c3.3-0.3,6.4-0.7,9.4-1.6c1.5-0.4,3-0.9,4.4-1.5c1.5-0.6,2.8-1.4,4.3-2.2
				c-1,1.4-2.2,2.6-3.6,3.5c-1.4,0.9-3,1.6-4.6,2.1c-1.6,0.4-3.3,0.7-5,0.6C226.3,260.8,224.6,260.6,223.1,259.9z"/>
		</g>
		<g>
			<path fill="#F7E402" d="M253.9,253.6c2.3,1.4,4.3,2.7,6.6,3.6c1.1,0.5,2.3,0.9,3.5,1.2c1.2,0.4,2.4,0.6,3.7,0.9
				c-1.3,0.5-2.6,0.7-4,0.6c-1.4,0-2.7-0.4-4-0.9s-2.4-1.3-3.4-2.2C255.3,255.9,254.5,254.8,253.9,253.6z"/>
		</g>
	</g>
	<g>
		<g>
			<path d="M238.3,344.4c-0.2-1.7-0.4-3.4-0.6-5.1v-0.2l0.2-0.2l8.4-5.9l8.5-5.8c2.8-1.9,5.6-3.9,8.4-5.9s5.6-4,8.2-6.2
				c-2.1,2.7-4.7,5.1-7.3,7.3c-2.6,2.2-5.4,4.3-8.2,6.3s-5.7,3.9-8.6,5.7c-2.9,1.8-5.9,3.5-8.9,5.1l0.2-0.4
				C238.5,341,238.4,342.7,238.3,344.4z"/>
		</g>
		<g>
			<path d="M234,315.1c3,2.5,5.5,5.3,7.9,8.2c2.4,3,4.6,6,6.4,9.4c-3-2.4-5.5-5.3-7.9-8.2C238.1,321.6,235.8,318.6,234,315.1z"/>
		</g>
	</g>
	
		<linearGradient id="SVGID_00000096053155442202947050000017260734393082155430_" gradientUnits="userSpaceOnUse" x1="121.4616" y1="231.4405" x2="137.1641" y2="166.1513" gradientTransform="matrix(1 0 0 -1 0 386)">
		<stop  offset="0.1032" style="stop-color:#F9B8BE"/>
		<stop  offset="0.18" style="stop-color:#F5B3BE"/>
		<stop  offset="0.2745" style="stop-color:#EBA4BF"/>
		<stop  offset="0.3771" style="stop-color:#DA8BC1"/>
		<stop  offset="1" style="stop-color:#7FC8E5"/>
	</linearGradient>
	<path fill="url(#SVGID_00000096053155442202947050000017260734393082155430_)" d="M113.6,182.3c0,0-4.5-12.3,6.3-15.1
		c9.4-2.4,29.7,21.2,26.1,37.1c-1.1,5-6.3,7.9-11.2,6.1C129.2,208.3,121.1,201.6,113.6,182.3z"/>
	
		<linearGradient id="SVGID_00000119106905897195252550000004793109993916855974_" gradientUnits="userSpaceOnUse" x1="119.9474" y1="265.317" x2="154.6581" y2="235.5648" gradientTransform="matrix(1 0 0 -1 0 386)">
		<stop  offset="0.1032" style="stop-color:#F9B8BE"/>
		<stop  offset="0.18" style="stop-color:#F5B3BE"/>
		<stop  offset="0.2745" style="stop-color:#EBA4BF"/>
		<stop  offset="0.3771" style="stop-color:#DA8BC1"/>
		<stop  offset="1" style="stop-color:#7FC8E5"/>
	</linearGradient>
	<path fill="url(#SVGID_00000119106905897195252550000004793109993916855974_)" d="M128.3,126.5c0.4-2.3,1.8-4.4,4-5.4
		c1.9-0.9,4.6-1.1,7.6,1.7c6,5.6,16.8,19.1,7,28C137.9,158.9,126.2,138.6,128.3,126.5z"/>
	
		<linearGradient id="SVGID_00000038376473757416867100000005389736486125749169_" gradientUnits="userSpaceOnUse" x1="165.2685" y1="228.4665" x2="159.6899" y2="200.264" gradientTransform="matrix(1 0 0 -1 0 386)">
		<stop  offset="0.1032" style="stop-color:#F9B8BE"/>
		<stop  offset="0.18" style="stop-color:#F5B3BE"/>
		<stop  offset="0.2745" style="stop-color:#EBA4BF"/>
		<stop  offset="0.3771" style="stop-color:#DA8BC1"/>
		<stop  offset="1" style="stop-color:#7FC8E5"/>
	</linearGradient>
	<path fill="url(#SVGID_00000038376473757416867100000005389736486125749169_)" d="M155.4,163.4c0,0-0.5-8,7.4-3.5
		c8,4.5,10.6,14.8,6,17.2S156.7,176.4,155.4,163.4z"/>
	
		<linearGradient id="SVGID_00000158018989048400139880000013516445914894924928_" gradientUnits="userSpaceOnUse" x1="310.4529" y1="366.3006" x2="305.0809" y2="314.6477" gradientTransform="matrix(1 0 0 -1 0 386)">
		<stop  offset="0.1032" style="stop-color:#F9B8BE"/>
		<stop  offset="0.18" style="stop-color:#F5B3BE"/>
		<stop  offset="0.2745" style="stop-color:#EBA4BF"/>
		<stop  offset="0.3771" style="stop-color:#DA8BC1"/>
		<stop  offset="1" style="stop-color:#7FC8E5"/>
	</linearGradient>
	<path fill="url(#SVGID_00000158018989048400139880000013516445914894924928_)" d="M295.6,35.3c-0.3-5.6,5.4-9.8,10.5-7.6
		c2.1,0.9,4.7,2.7,7.5,5.7c11.5,12.1,7.9,19.2-0.2,21.7C306.7,57.1,296.1,45.5,295.6,35.3z"/>
	
		<linearGradient id="SVGID_00000183219250174352655350000000082145872842467200_" gradientUnits="userSpaceOnUse" x1="350.7834" y1="311.6444" x2="338.3867" y2="330.2394" gradientTransform="matrix(1 0 0 -1 0 386)">
		<stop  offset="0.1032" style="stop-color:#F9B8BE"/>
		<stop  offset="0.18" style="stop-color:#F5B3BE"/>
		<stop  offset="0.2745" style="stop-color:#EBA4BF"/>
		<stop  offset="0.3771" style="stop-color:#DA8BC1"/>
		<stop  offset="1" style="stop-color:#7FC8E5"/>
	</linearGradient>
	<path fill="url(#SVGID_00000183219250174352655350000000082145872842467200_)" d="M330.4,51.1c0,0,1.4-5.3,10.1-1.7
		c8.6,3.6,8.7,16.6,1,17.1C333.8,66.9,329.2,52.9,330.4,51.1z"/>
	<g>
		<g>
			<circle fill="#F42A86" cx="356.3" cy="121.5" r="34.8"/>
		</g>
		<g>
			<g>
				<g>
					<path fill="#FFFFFF" d="M373.2,90.9c-2.4,0.7-4.7,1.4-7,2.2c-2.3,0.8-4.6,1.6-6.8,2.6c-2.1,1-4.3,2.2-5.7,3.8
						c-0.6,0.8-1,1.7-0.7,2.5c0.3,0.9,1,1.7,1.9,2.1c1.8,1,4.3,0.9,6.6,0.6c2.3-0.3,4.7-1,7-1.7s4.6-1.6,6.8-2.5
						c2.3-0.9,4.5-1.9,6.7-2.9c-4.1,2.7-8.5,5-13.1,6.7c-2.3,0.9-4.7,1.6-7.2,2.1c-2.5,0.4-5.2,0.6-7.8-0.7
						c-1.3-0.7-2.3-1.8-2.7-3.3c-0.5-1.5,0.2-3.2,1.1-4.2c1.9-2,4.2-3.1,6.5-4C363.5,92.6,368.3,91.5,373.2,90.9z"/>
				</g>
			</g>
			<g>
				<g>
					<path fill="#FFFFFF" d="M365.3,87.8c-3.7,0.5-7.3,1.4-10.8,2.6s-6.9,2.7-9.7,5c-2.8,2.3-4.8,5.3-5.1,8.8
						c-0.1,1.7-0.1,3.6,0.7,4.9c0.8,1.3,2.3,2.1,3.9,2.5c3.4,0.7,7.1,0.3,10.7-0.2c3.6-0.6,7.2-1.4,10.9-2.2
						c3.6-0.8,7.3-1.6,10.9-2.3c1.8-0.3,3.7-0.6,5.6-0.7c1.8-0.1,3.8-0.1,5.5,0.8c-1.7-0.7-3.6-0.5-5.4-0.3s-3.6,0.6-5.4,1.1
						c-3.6,0.9-7.2,1.9-10.8,2.8c-3.6,1-7.2,1.8-10.9,2.5c-3.7,0.6-7.5,1.2-11.4,0.4c-1.9-0.4-4-1.5-5.1-3.4c-0.3-0.5-0.4-1-0.6-1.5
						c-0.1-0.5-0.2-1-0.3-1.5c-0.1-1-0.1-2,0-3c0.4-4,2.8-7.6,5.9-9.8C350.2,89.7,357.9,88.2,365.3,87.8z"/>
				</g>
			</g>
			<g>
				<g>
					<path fill="#FFFFFF" d="M326.1,104.1c-0.3,1.8,0,3.7,0.7,5.4c0.7,1.7,2,3,3.6,3.8c1.5,0.8,3.4,1.1,5.2,1.6l5.4,1.3
						c3.6,0.9,7.2,2,10.6,3.8c1.7,0.8,3.3,2,4.7,3.5c1.4,1.4,2.3,3.6,2.1,5.7v0.8c0,0.3-0.1,0.5-0.2,0.8c-0.2,0.5-0.3,1-0.5,1.5
						c-0.5,0.9-1,1.8-1.7,2.5c-1.3,1.6-3,2.6-4.7,3.5c-3.5,1.6-7.5,2.2-11.3,1.7s-7.4-1.9-10.5-4.1c-3-2.3-5.5-5.1-7.5-8.3
						c2.3,2.9,4.9,5.6,8,7.5s6.6,3.1,10.2,3.4c3.6,0.2,7.2-0.3,10.4-1.8c1.5-0.8,3-1.8,4.1-3.1c0.6-0.6,1-1.4,1.4-2.1
						c0.2-0.4,0.2-0.8,0.4-1.2c0-0.2,0.1-0.4,0.2-0.6v-0.6c0.1-1.6-0.4-3.2-1.6-4.4c-1.1-1.2-2.6-2.3-4.2-3.1
						c-3.1-1.7-6.7-2.8-10.2-3.9l-5.3-1.5c-1.8-0.5-3.6-0.9-5.3-1.9c-1.7-1-3-2.6-3.6-4.4C325.7,107.8,325.7,105.9,326.1,104.1z"/>
				</g>
			</g>
			<g>
				<g>
					<path fill="#FFFFFF" d="M322.6,112.9c1.8,1.7,4.1,2.8,6.3,3.6c2.3,0.8,4.6,1.3,7.1,1.8s4.9,1.3,7.1,2.7
						c1.1,0.7,2.2,1.6,2.9,2.8c0.8,1.2,1.2,2.7,1.1,4.1c0,0.3-0.2,0.9-0.3,1.3c-0.2,0.3-0.4,0.7-0.7,1c-0.5,0.5-1,1-1.6,1.4
						c-1.2,0.7-2.4,1.2-3.7,1.5c-2.6,0.6-5.3,0.4-7.7-0.3c-5-1.5-8.9-5.2-11.6-9.3c0.9,0.9,1.7,1.8,2.6,2.6c0.9,0.8,1.8,1.6,2.9,2.2
						c2,1.4,4.2,2.5,6.5,3s4.7,0.6,6.9,0c1.1-0.3,2.2-0.7,3.1-1.3s1.7-1.4,1.7-2.1c0.2-2.1-1.2-4-3.1-5.3s-4.2-2.1-6.5-2.8
						c-2.3-0.7-4.8-1.3-7.1-2.4C326.3,116.2,324,114.9,322.6,112.9z"/>
				</g>
			</g>
			<g>
				<g>
					<path fill="#FFFFFF" d="M333.9,148.1c5.1,2.4,11.1,2.4,16.1,0.1c2.4-1.2,4.8-2.7,6.8-4.6c1-0.9,1.9-2,2.9-2.9l2.8-3.2l5.5-6.5
						c1.9-2.1,3.7-4.4,6.3-6c2.6-1.6,5.8-1.9,8.6-1.4c2.8,0.6,5.5,1.6,8.1,2.7c-2.7-0.7-5.5-1.5-8.2-1.8c-2.7-0.4-5.5,0.1-7.7,1.7
						s-3.9,3.7-5.7,5.9l-5.4,6.6l-3,3.3c-1,1-2,2.1-3.1,3c-2.2,1.9-4.7,3.5-7.4,4.6c-2.7,1.1-5.7,1.5-8.6,1.3
						C339,150.5,336.2,149.7,333.9,148.1z"/>
				</g>
			</g>
			<g>
				<g>
					<path fill="#FFFFFF" d="M346.2,154.8c2.2,0.3,4.4,0.5,6.6,0.2c2.2-0.2,4.3-0.7,6.3-1.6c1.9-0.9,3.7-2.1,5.1-3.7
						c0.8-0.7,1.3-1.6,2-2.5c0.6-0.9,1.2-1.9,1.8-2.8l3.5-5.7c1.2-1.9,2.5-3.8,4.4-5.3c1.8-1.5,4.4-2.3,6.7-1.9
						c2.3,0.4,4.4,1.3,6.3,2.4c-2.1-0.7-4.3-1.4-6.4-1.5c-2.2-0.1-4.2,0.6-5.7,2.1c-1.5,1.4-2.7,3.3-3.8,5.2l-3.4,5.8
						c-0.6,1-1.2,1.9-1.8,2.9c-0.7,0.9-1.4,1.9-2.3,2.7c-1.6,1.7-3.7,3-5.9,3.8C355.2,156.4,350.4,156.3,346.2,154.8z"/>
				</g>
			</g>
		</g>
		<g>
			<path fill="#FFB901" d="M389.9,110.3c2.8,1.5,5.5,3.3,7.8,5.5s4.6,4.9,5.3,8.5c0.3,1.8,0.1,3.8-0.8,5.5s-2.2,3.1-3.7,4.1
				c-2.9,2.1-6.2,3.1-9.4,3.9c-13,2.6-26.1,0.7-38.5-2.6c-6.2-1.8-12.3-4-18.1-6.9c-5.7-3-11.4-6.4-16-11.3
				c-2.3-2.5-4.5-5.2-5.3-8.9c-0.4-1.8-0.4-3.9,0.4-5.7c0.7-1.8,2-3.3,3.4-4.3c2.9-2,6.1-2.9,9.3-3.4c3.2-0.5,6.4-0.5,9.5-0.3
				c-3.1,0.4-6.2,1-9.2,1.9c-2.9,0.9-5.8,2.1-7.9,4s-2.8,4.4-1.9,6.8c0.8,2.4,2.7,4.7,4.9,6.7c4.4,3.9,9.7,7,15.2,9.5
				c5.5,2.6,11.3,4.7,17.2,6.3c5.9,1.7,11.9,2.9,18,3.6c6.1,0.8,12.2,0.9,18.1,0.1c2.9-0.4,5.8-1.2,8.2-2.6c1.2-0.7,2.2-1.5,2.9-2.6
				c0.7-1,1-2.3,0.9-3.6c-0.1-2.7-1.8-5.4-3.7-7.8C394.6,114.4,392.3,112.3,389.9,110.3z"/>
		</g>
	</g>
	<g>
		<path fill="#FD9081" d="M157.1,36.5c0,0,70.1-8.4,108.9,40.3c0,0-18.1-9.1-23.9-10l15.7,16.1L234.7,71l7.9,16.3L227,74.5
			c0,0,8.1,9.7,9.3,18.5c0,0-52.3-49.5-78.6-49.6L157.1,36.5z"/>
	</g>
	<g>
		<polygon fill="#FFBCB1" points="135.9,29.9 124.1,11.8 144,21 151.1,0 158.4,22.2 181.8,22.6 162.3,39.1 176.3,59.9 150.3,48.1 
			143.2,71.7 140.1,43.7 113.9,42.6 		"/>
	</g>
	<g>
		<path fill="#F7E402" d="M157.5,250.6c0.3,0.1,0.3,0.4,0,0.5l-7.6,1.5c-2.7,0.5-4.9,3.4-5.2,7l-0.8,7.9c0,0.3-0.5,0.3-0.5,0
			l-0.8-7.9c-0.4-3.6-2.5-6.4-5.2-7l-7.6-1.5c-0.3-0.1-0.3-0.4,0-0.5l7.5-1.4c2.8-0.5,4.9-3.4,5.3-7l0.8-8c0-0.3,0.5-0.3,0.5,0
			l0.8,8c0.4,3.6,2.5,6.5,5.3,7L157.5,250.6z"/>
	</g>
	<g>
		<path fill="#F7E402" d="M133.5,281.1c0.1,0,0.1,0.2,0,0.2l-3,0.6c-1.1,0.2-1.9,1.3-2.1,2.8l-0.3,3.1c0,0.1-0.2,0.1-0.2,0l-0.3-3.1
			c-0.1-1.4-1-2.6-2.1-2.8l-3-0.6c-0.1,0-0.1-0.2,0-0.2l3-0.5c1.1-0.2,2-1.3,2.1-2.8l0.3-3.2c0-0.1,0.2-0.1,0.2,0l0.3,3.2
			c0.1,1.4,1,2.6,2.1,2.8L133.5,281.1z"/>
	</g>
	<g>
		<path fill="#F7E402" d="M262.6,20.8c0.2,0,0.2,0.3,0,0.4l-6,1.2c-2.1,0.4-3.8,2.7-4.1,5.5l-0.6,6.2c0,0.2-0.4,0.2-0.4,0l-0.6-6.2
			c-0.3-2.8-1.9-5.1-4.1-5.5l-6-1.2c-0.2,0-0.2-0.3,0-0.4l5.9-1.1c2.2-0.4,3.9-2.7,4.2-5.5l0.6-6.3c0-0.2,0.4-0.2,0.4,0l0.6,6.3
			c0.3,2.9,2,5.1,4.2,5.5L262.6,20.8z"/>
	</g>
	<g>
		<path fill="#F7E402" d="M420.4,77.5c0.2,0,0.2,0.3,0,0.4l-6,1.2c-2.1,0.4-3.8,2.7-4.1,5.5l-0.6,6.2c0,0.2-0.4,0.2-0.4,0l-0.6-6.2
			c-0.3-2.8-1.9-5.1-4.1-5.5l-6-1.2c-0.2,0-0.2-0.3,0-0.4l5.9-1.1c2.2-0.4,3.9-2.7,4.2-5.5l0.6-6.3c0-0.2,0.4-0.2,0.4,0l0.6,6.3
			c0.3,2.9,2,5.1,4.2,5.5L420.4,77.5z"/>
	</g>
	<g>
		<path fill="#F7E402" d="M367.7,322.8c0.1,0,0.1,0.2,0,0.2l-2.9,0.6c-1.1,0.2-1.9,1.3-2,2.7l-0.3,3.1c0,0.1-0.2,0.1-0.2,0l-0.3-3.1
			c-0.1-1.4-1-2.5-2-2.7l-2.9-0.6c-0.1,0-0.1-0.2,0-0.2l2.9-0.5c1.1-0.2,1.9-1.3,2-2.7l0.3-3.1c0-0.1,0.2-0.1,0.2,0l0.3,3.1
			c0.1,1.4,1,2.5,2,2.7L367.7,322.8z"/>
	</g>
	<g>
		<path fill="#F7E402" d="M432,104c0.1,0,0.1,0.2,0,0.2l-2.9,0.6c-1.1,0.2-1.9,1.3-2,2.7l-0.3,3.1c0,0.1-0.2,0.1-0.2,0l-0.3-3.1
			c-0.1-1.4-1-2.5-2-2.7l-2.9-0.6c-0.1,0-0.1-0.2,0-0.2l2.9-0.5c1.1-0.2,1.9-1.3,2-2.7l0.3-3.1c0-0.1,0.2-0.1,0.2,0l0.3,3.1
			c0.1,1.4,1,2.5,2,2.7L432,104z"/>
	</g>
	<g>
		<path fill="#F7E402" d="M316.8,157.4c0.1,0,0.1,0.2,0,0.2l-2.9,0.6c-1.1,0.2-1.9,1.3-2,2.7l-0.3,3.1c0,0.1-0.2,0.1-0.2,0l-0.3-3.1
			c-0.1-1.4-1-2.5-2-2.7l-2.9-0.6c-0.1,0-0.1-0.2,0-0.2l2.9-0.5c1.1-0.2,1.9-1.3,2-2.7l0.3-3.1c0-0.1,0.2-0.1,0.2,0l0.3,3.1
			c0.1,1.4,1,2.5,2,2.7L316.8,157.4z"/>
	</g>
	<g>
		<path fill="#F7E402" d="M176.6,93.1c0.1,0,0.1,0.2,0,0.2l-2.9,0.6c-1.1,0.2-1.9,1.3-2,2.7l-0.3,3.1c0,0.1-0.2,0.1-0.2,0l-0.3-3.1
			c-0.1-1.4-1-2.5-2-2.7l-2.9-0.6c-0.1,0-0.1-0.2,0-0.2l2.9-0.5c1.1-0.2,1.9-1.3,2-2.7l0.3-3.1c0-0.1,0.2-0.1,0.2,0l0.3,3.1
			c0.1,1.4,1,2.5,2,2.7L176.6,93.1z"/>
	</g>
</g>
</svg>
