<?xml version="1.0" encoding="UTF-8"?>
<svg id="Layer_1" xmlns="http://www.w3.org/2000/svg" version="1.1" viewBox="0 0 500 500">
  <!-- Generator: Adobe Illustrator 29.0.1, SVG Export Plug-In . SVG Version: 2.1.0 Build 192)  -->
  <defs>
    <style>
      .st0 {
        fill: #1b2864;
      }

      .st1 {
        fill: #fff;
      }

      .st2 {
        fill: #2e6afe;
      }

      .st3 {
        fill: #febe9a;
      }

      .st4 {
        fill: #bde2f5;
      }

      .st5 {
        fill: #fbb82e;
      }

      .st6 {
        fill: #eb7f58;
      }
    </style>
  </defs>
  <path class="st4" d="M267.5,367.2c-1-.6-2-1.2-3-1.8,0-2-.1-4.1-.6-6,1.4-1.2,2.7-2.4,4-3.6-1.7-3.2-3.3-6.4-5-9.6-1.8.4-3.5.8-5.3,1.2-1.4-1.5-2.9-2.8-4.7-3.9.1-1.8.2-3.6.3-5.4l-10.3-3.2c-1,1.5-1.9,3-2.9,4.6-2,0-4.1.1-6,.5-1.2-1.4-2.4-2.7-3.6-4l-9.6,5c.4,1.8.8,3.5,1.2,5.3-1.5,1.4-2.8,2.9-3.9,4.7-1.8-.1-3.6-.2-5.4-.3l-3.2,10.3c1.5,1,3,1.9,4.6,2.9,0,2,.1,4.1.6,6-1.1,1-2.3,2-3.4,3.1-.2.2-.4.4-.6.6l5,9.6c1.8-.4,3.5-.8,5.3-1.2,1.4,1.5,2.9,2.8,4.7,3.9-.1,1.8-.2,3.6-.3,5.4l10.3,3.2c1-1.5,1.9-3,2.9-4.6,2,0,4.1-.1,6-.6,1.2,1.4,2.4,2.7,3.6,4,3.2-1.7,6.4-3.4,9.6-5-.4-1.8-.8-3.5-1.2-5.3,1.5-1.4,2.8-2.9,3.9-4.7,1.8.1,3.6.2,5.4.3l3.2-10.3c-.5-.4-1.1-.7-1.6-1ZM251.2,368.4c-2,6.6-9,10.2-15.6,8.2-6.6-2-10.2-9-8.2-15.6,2-6.6,9-10.2,15.6-8.2,6.6,2,10.2,9,8.2,15.6Z"/>
  <path class="st4" d="M318.2,350.4c-.8-.5-1.5-.9-2.3-1.4,0-1.6,0-3.1-.4-4.6,1-.9,2.1-1.8,3.1-2.8-1.3-2.4-2.6-4.9-3.8-7.3-1.4.3-2.7.6-4,.9-1.1-1.1-2.2-2.1-3.6-3,.1-1.4.2-2.8.2-4.1l-7.9-2.5c-.8,1.2-1.5,2.3-2.2,3.5-1.6,0-3.1,0-4.6.4-.9-1-1.8-2.1-2.8-3.1l-7.3,3.8c.3,1.4.6,2.7.9,4-1.1,1.1-2.1,2.2-3,3.6-1.4,0-2.8-.2-4.1-.2l-2.5,7.9c1.2.8,2.3,1.5,3.5,2.2,0,1.6,0,3.1.4,4.6-.9.8-1.7,1.5-2.6,2.3-.2.2-.3.3-.5.5l3.8,7.3c1.4-.3,2.7-.6,4-.9,1.1,1.1,2.2,2.1,3.6,3-.1,1.4-.2,2.8-.2,4.1l7.9,2.5c.8-1.2,1.5-2.3,2.2-3.5,1.6,0,3.1,0,4.6-.4.9,1,1.8,2.1,2.8,3.1,2.4-1.3,4.9-2.6,7.3-3.8-.3-1.4-.6-2.7-.9-4,1.1-1.1,2.1-2.2,3-3.6,1.4,0,2.8.2,4.1.2l2.5-7.9c-.4-.3-.8-.5-1.2-.8ZM305.8,351.3c-1.6,5-6.9,7.8-11.9,6.3-5-1.6-7.8-6.9-6.3-11.9,1.6-5,6.9-7.8,11.9-6.3,5,1.6,7.8,6.9,6.3,11.9Z"/>
  <g>
    <rect class="st2" x="138.6" y="127.6" width="319.9" height="215.9" rx="20.8" ry="20.8"/>
    <rect class="st1" x="148.9" y="138" width="299.2" height="191.3" rx="11.9" ry="11.9"/>
    <path class="st4" d="M436.2,138H160.9c-6.6,0-11.9,5.3-11.9,11.9v17.6h299.2v-17.6c0-6.6-5.3-11.9-11.9-11.9Z"/>
    <g>
      <circle class="st1" cx="228.3" cy="153.4" r="4.4"/>
      <circle class="st0" cx="201.9" cy="153.4" r="4.4"/>
      <circle class="st5" cx="175.5" cy="153.4" r="4.4"/>
    </g>
    <g>
      <rect class="st4" x="362.5" y="179.1" width="74.5" height="74.5" rx="9" ry="9"/>
      <g>
        <path class="st1" d="M374.8,207.3c-5,13.8,2.2,29,16,34,13.8,5,29-2.2,34-16,5-13.8-2.2-29-16-34-13.8-5-29,2.2-34,16ZM418,222.9c-3.6,10-14.7,15.3-24.7,11.7-10-3.6-15.3-14.7-11.7-24.7,3.6-10,14.7-15.3,24.7-11.7,10,3.6,15.3,14.7,11.7,24.7Z"/>
        <path class="st0" d="M412.1,201.4c6.1,5,8.7,13.6,5.9,21.5-2.2,6-7,10.3-12.8,12l3.7,6.4c7.1-2.6,13.1-8.3,15.9-16,3.8-10.5.5-21.9-7.4-28.9l-5.3,5Z"/>
        <path class="st2" d="M406.3,198.1c5.8,2.1,9.9,6.6,11.8,12l6.9-2.4c-2.5-7.4-8.3-13.6-16.2-16.5-13.8-5-29,2.2-34,16l6.8,2.5c3.6-10,14.7-15.3,24.7-11.7Z"/>
      </g>
    </g>
    <path class="st1" d="M414.6,156.9h-138.5c-2,0-3.6-1.6-3.6-3.6h0c0-2,1.6-3.6,3.6-3.6h138.5c2,0,3.6,1.6,3.6,3.6h0c0,2-1.6,3.6-3.6,3.6Z"/>
    <g>
      <rect class="st4" x="166.4" y="179.1" width="82" height="137.2" rx="9" ry="9"/>
      <rect class="st1" x="170.6" y="183.3" width="73.6" height="128.9" rx="4.9" ry="4.9"/>
      <g>
        <circle class="st4" cx="233" cy="197.7" r="6.1" transform="translate(.5 396) rotate(-80.8)"/>
        <circle class="st4" cx="215.9" cy="197.7" r="6.1" transform="translate(-13.8 379.2) rotate(-80.8)"/>
        <circle class="st4" cx="198.9" cy="197.7" r="6.1" transform="translate(-28.1 362.4) rotate(-80.8)"/>
        <circle class="st4" cx="181.9" cy="197.7" r="6.1" transform="translate(-42.4 345.6) rotate(-80.8)"/>
      </g>
      <rect class="st4" x="175.8" y="218.4" width="63.2" height="64.8" rx="3.5" ry="3.5"/>
      <path class="st4" d="M202.2,213.4h-25.1c-.7,0-1.3.6-1.3,1.3h0c0,.7.6,1.3,1.3,1.3h25.1c.7,0,1.3-.6,1.3-1.3h0c0-.7-.6-1.3-1.3-1.3Z"/>
      <path class="st1" d="M218.2,242.4h-4.2v-.6c0-1.5-1.2-2.7-2.7-2.7h-7.5c-1.5,0-2.7,1.2-2.7,2.7v.6h-4.2c-1.8,0-3.3,1.5-3.3,3.3v11.4c0,1.8,1.5,3.3,3.3,3.3h21.4c1.8,0,3.3-1.5,3.3-3.3v-11.4c0-1.8-1.5-3.3-3.3-3.3ZM207.3,255.2c-2.3,0-4.2-1.9-4.2-4.2s1.9-4.2,4.2-4.2,4.2,1.9,4.2,4.2-1.9,4.2-4.2,4.2Z"/>
      <path class="st4" d="M237.9,291.6h-60.7c-.7,0-1.3-.6-1.3-1.3h0c0-.7.6-1.3,1.3-1.3h60.7c.7,0,1.3.6,1.3,1.3h0c0,.7-.6,1.3-1.3,1.3Z"/>
      <path class="st4" d="M237.9,297.5h-60.7c-.7,0-1.3-.6-1.3-1.3h0c0-.7.6-1.3,1.3-1.3h60.7c.7,0,1.3.6,1.3,1.3h0c0,.7-.6,1.3-1.3,1.3Z"/>
      <path class="st4" d="M237.9,303.4h-60.7c-.7,0-1.3-.6-1.3-1.3h0c0-.7.6-1.3,1.3-1.3h60.7c.7,0,1.3.6,1.3,1.3h0c0,.7-.6,1.3-1.3,1.3Z"/>
    </g>
    <g>
      <circle class="st4" cx="273.8" cy="196.3" r="15.5"/>
      <path class="st1" d="M273.8,190.8l-1.1-1.1c-2.1-2.1-5.4-2.1-7.5,0h0c-2.1,2.1-2.1,5.4,0,7.5l1.1,1.1,5.1,5.1c1.3,1.3,3.4,1.3,4.7,0l5.1-5.1,1.1-1.1c2.1-2.1,2.1-5.4,0-7.5h0c-2.1-2.1-5.4-2.1-7.5,0l-1.1,1.1Z"/>
    </g>
    <path class="st4" d="M340.2,186.2h-41.4c-1.5,0-2.7-1.2-2.7-2.7h0c0-1.5,1.2-2.7,2.7-2.7h41.4c1.5,0,2.7,1.2,2.7,2.7h0c0,1.5-1.2,2.7-2.7,2.7Z"/>
    <path class="st4" d="M340.2,199h-41.4c-1.5,0-2.7-1.2-2.7-2.7h0c0-1.5,1.2-2.7,2.7-2.7h41.4c1.5,0,2.7,1.2,2.7,2.7h0c0,1.5-1.2,2.7-2.7,2.7Z"/>
    <path class="st4" d="M340.2,211.7h-41.4c-1.5,0-2.7-1.2-2.7-2.7h0c0-1.5,1.2-2.7,2.7-2.7h41.4c1.5,0,2.7,1.2,2.7,2.7h0c0,1.5-1.2,2.7-2.7,2.7Z"/>
    <g>
      <circle class="st4" cx="273.8" cy="242.3" r="15.5"/>
      <path class="st1" d="M274.2,251.3c-1,0-2.1-.3-3-.8-.4-.2-.7-.4-1-.7-.2.4-.5.7-.8.9-.3.2-.4.3-.5.3h-.6v-4.4h.9c.2.8.6,1.4,1,2,.9,1.3,2.2,2,3.7,2s.3,0,.3,0v-5.9l-1.1-.6c-1-.6-1.8-1.1-2.4-1.6-.6-.5-1.1-1-1.6-1.7-.4-.7-.6-1.5-.6-2.4s.2-1.4.6-2c.4-.6,1.1-1.1,1.9-1.5.8-.4,1.9-.5,3.1-.5v-1.5h.7v1.6c.9.2,1.6.4,2.2.8.3.2.6.4.8.6.3-.4.5-.7.8-.9.3-.2.4-.3.5-.3h.6v4.4h-.9c-.2-.7-.5-1.4-.9-1.9-.4-.6-.8-1-1.3-1.4-.5-.4-1.1-.6-1.8-.6v5.7c.4.3.9.6,1.4.8,1,.5,1.7,1,2.3,1.5.6.4,1.1,1,1.5,1.6.4.6.6,1.3.6,2.2s-.2,1.5-.6,2.2c-.4.7-1.1,1.2-2,1.6-.9.4-1.9.6-3.2.7v1.5h-.7v-1.5ZM274.2,235.1c-.5.1-.9.4-1.3.9-.3.4-.5,1-.5,1.6s.2,1.1.5,1.5c.3.4.7.9,1.3,1.3v-5.2ZM276.2,249.6c.3-.5.5-1.1.5-1.7s-.2-1-.5-1.4c-.3-.4-.8-.8-1.4-1.2v5.3c.6-.2,1-.5,1.4-1Z"/>
    </g>
    <rect class="st4" x="296" y="226.8" width="46.9" height="5.4" rx="2.7" ry="2.7"/>
    <path class="st4" d="M340.2,245h-41.4c-1.5,0-2.7-1.2-2.7-2.7h0c0-1.5,1.2-2.7,2.7-2.7h41.4c1.5,0,2.7,1.2,2.7,2.7h0c0,1.5-1.2,2.7-2.7,2.7Z"/>
    <path class="st4" d="M340.2,257.8h-41.4c-1.5,0-2.7-1.2-2.7-2.7h0c0-1.5,1.2-2.7,2.7-2.7h41.4c1.5,0,2.7,1.2,2.7,2.7h0c0,1.5-1.2,2.7-2.7,2.7Z"/>
    <rect class="st4" x="263" y="290.4" width="13" height="25.9"/>
    <rect class="st4" x="285.9" y="284.5" width="13" height="31.8"/>
    <rect class="st4" x="423.6" y="284.5" width="13" height="31.8"/>
    <rect class="st4" x="308.9" y="279.5" width="13" height="36.8"/>
    <rect class="st4" x="331.8" y="275.3" width="13" height="41"/>
    <rect class="st4" x="400.7" y="279.5" width="13" height="36.8"/>
    <rect class="st4" x="377.7" y="275.3" width="13" height="41"/>
    <rect class="st4" x="354.8" y="267.8" width="13" height="48.5"/>
  </g>
  <g>
    <g>
      <path class="st3" d="M95.4,365l1.6,19.7h-16.9s-1.1-16.3-1.5-19.2,10.6-16.4,16.9-.5Z"/>
      <polygon class="st0" points="86.7 251.1 98.9 264.5 101.4 377.5 74.7 377.5 58.1 254.2 86.7 251.1"/>
      <path class="st0" d="M79.4,380.9l17.9.3,1.9,4.6s7-2.6,12.9,1.4c5.8,3.9,6.9,9.2,5.5,12.3h-38.1s-.7-15.4-.1-18.7Z"/>
      <path class="st3" d="M36.5,365l-1.6,19.7h16.9s1.1-16.3,1.5-19.2c.4-2.9-10.6-16.4-16.9-.5Z"/>
      <path class="st0" d="M52.4,380.9l-17.9.3-1.9,4.6s-7-2.6-12.9,1.4c-5.8,3.9-6.9,9.2-5.5,12.3h38.1s.7-15.4.1-18.7Z"/>
      <path class="st0" d="M74.6,255.4l-35.9,2.4-8,119.7h26.4s12-84.5,14.6-95.8c3.4-14.5,2.9-26.3,2.9-26.3Z"/>
    </g>
    <path class="st6" d="M92.7,228.6s9,25,23.4,15.5c10.2-6.7-5.7-25.7-5.7-25.7l-17.6,10.2Z"/>
    <g>
      <path class="st3" d="M103.9,244.4c4.8,7.1,26.2-3,39.6-24.7l-6.5-7.9c-22.4,10.9-37.8,25.8-33.1,32.7Z"/>
      <path class="st3" d="M157.7,210.5s5.2-1.7,8.6-2.1c3.3-.4,3.3,3.3-1.7,5.9-5,2.5-7.9,4.2-10,4.6-2.1.4-11.1.8-11.1.8l-7.5-.8,1-7.1s2.5-2.5,5.4-4.6c2.9-2.1,10.5-4.6,13-4.6s4.2,2.9-.4,4.6-5.4,2.9-5.4,2.9l8.2.4Z"/>
    </g>
    <path class="st2" d="M88.9,232.9c-16-14.8-15-29.9-4.8-40.6,9.2-9.6,26.8,21,26.8,21l3.3,2c2.4,1.5,3.1,4.5,1.6,6.9-2.7,4.2-8.8,10.3-23,13.2-1.4.3-2.8-.4-3.4-1.6l-.5-.9Z"/>
    <path class="st2" d="M100.5,261s-1.5-57.5-6.3-66.1c-3.2-5.8-10.7-7.8-15.9-9.5-.4-.1-.9-.3-1.3-.4-1.8-.5-3-.8-3-.8l-10.8-3.3-5.9,2.6s-1,.3-2.7.9c-.2,0-.5.2-.7.3-2.5.9-6.2,2.4-10,4.3-8.7,4.3-9.5,14.2-7.7,41.5,1.3,20.6-.3,30.6-.3,30.6-15,17.6,84,11.8,64.5,0Z"/>
    <path class="st1" d="M76.6,190.3l8.2,4.5c.3,0-.6-4.2-1.6-7.7-1.7-.6-3.4-1.1-4.8-1.6-.4-.1-.9-.3-1.3-.4-1.8-.5-3-.8-3-.8l-10.8-3.3-5.9,2.6s-1,.3-2.7.9c-.2,0-.5.2-.7.3-.4.2-.8.3-1.3.5.8,9.2,3.5,18.5,3.5,18.5l6.6-10.5,10.7,6,3.1-9Z"/>
    <path class="st0" d="M51.1,161.5s-15-16.6,1-23.6c-2.4-4.6,1.8-7.5,6.7-6.2,0,0,14.1-13.1,26.8-5.9,9.1,5.2,6,13.1,6,13.1,3.9-.3,4.2,17.4-9.6,20.1-9,1.8-30.9,2.5-30.9,2.5Z"/>
    <path class="st3" d="M62.7,179.9l11.3,4.4s2.5,4.9-3.4,5.9c-10,1.7-13.2-5.9-13.2-5.9l5.3-4.4Z"/>
    <path class="st3" d="M55.7,160.2s1.3,12.9,1.7,24.1l10.6,1.5,6-1.5s0-.5,0-1.2c-.3-3.4-1.2-13.2-3.2-20.8-.2-.7-.4-1.3-.7-1.9-3.7-7.2-14.3,0-14.3,0Z"/>
    <path class="st6" d="M74,184.3s0-.5,0-1.2c-.2-2.6-.8-8.6-1.9-14.7l-10.7,1.6s-2,9.5,12.6,14.4h0Z"/>
    <path class="st3" d="M89,148.9c1.5,4.9,2.1,15.5.8,18.8-2.1,5.6-6.4,11.5-16.4,11.2-10-.2-13.6-5.6-16.2-8.7-1.2-1.4-2.3-10.1-2.3-10.1,3.7-2.4,6.5-7.3,2.8-11.7-4.1-5.6,21.9-16.9,31.3.4Z"/>
    <path class="st3" d="M60.9,161.6s-5.2-10.5-11.5-6.2c-5.2,3.5-2.6,15.8,9.6,14.4,9.1-1.1,1.9-8.1,1.9-8.1Z"/>
    <path class="st6" d="M55.3,161.4s-1.4-4.1-4.6-1.8c-2.8,2,1.1,8.3,5,7.6l-.3-5.8Z"/>
    <path class="st6" d="M27.6,221.8s-15.5,21.5.4,28c11.3,4.6,18-19.2,18-19.2l-18.4-8.8Z"/>
    <path class="st2" d="M50.1,232.7c9.2-20.5,2.5-37.7-5.4-42.3-11.7-6.8-20.1,26.8-20.1,26.8l-2.8,2.8c-2.1,2.1-2.1,5.4-.1,7.5,3.5,3.7,10.8,8.8,25.2,8.6,1.4,0,2.6-1,3-2.4l.3-1.1Z"/>
    <g>
      <path class="st0" d="M71.5,205.7l-4.7,34.7h-14.5c-2,0-3.7,1.5-3.9,3.4h0c-.3,2.4,1.5,4.5,3.9,4.5h76.6c2.9,0,5.4-2.2,5.8-5l4.9-36.1c.5-3.5-2.2-6.6-5.8-6.6h-56.5c-2.9,0-5.4,2.2-5.8,5Z"/>
      <g>
        <path class="st3" d="M23.1,240.3c-5.4,9.3,11.7,17.8,37.9,14.3l4.4-11c-27.3-9.7-38.2-10.6-42.3-3.3Z"/>
        <path class="st3" d="M64.4,244c5.8-3.7,6.7-3.7,9.6-4.1,2.9-.4,7.2-1,9.7-.8,2.5.2,2.8,3.7-7.7,6.1,2.8,1.7,7.6,1.3,12.2-.3,4.7-1.6,4.4,3.5,1.4,4.3-.2,2.5-3.8,3.7-3.8,3.7,1,2.4-2.3,5.1-9,5.1-6.6,0-16.6-4.1-16.6-4.1,0,0-11.3-4.3,4-9.9Z"/>
      </g>
      <circle class="st1" cx="104.5" cy="224.1" r="8.4" transform="translate(-137.5 274.3) rotate(-76.7)"/>
    </g>
  </g>
  <g>
    <path class="st5" d="M489.4,123.1v29.5c0,.4,0,.8-.2,1.2-.2.8-.6,1.5-1.2,2-.9.9-2.1,1.4-3.4,1.4h-52.8c-1.3,0-2.5-.6-3.4-1.4-.5-.6-.9-1.3-1.2-2-.1-.4-.2-.8-.2-1.2v-29.5c0-.2,0-.3,0-.5,0-.8.4-1.6.9-2.3.9-1.2,2.2-1.9,3.8-1.9h52.8c1.6,0,2.9.8,3.8,1.9.5.7.8,1.4.9,2.3,0,.2,0,.3,0,.5Z"/>
    <g>
      <path class="st1" d="M453,140.4c.3.6.1,1.3-.4,1.6l-.7.4-23.4,13.5c-.5-.6-.9-1.3-1.2-2l22.6-13,1.5-.9c.4-.2.9-.2,1.3,0h.1c0,.2.1.3.2.4Z"/>
      <path class="st1" d="M489.2,153.9c-.2.8-.6,1.5-1.2,2l-23.4-13.5-.7-.4c-.6-.3-.7-1-.4-1.6,0-.1.2-.3.3-.4.4-.3.9-.3,1.3,0l1.5.9,22.6,13Z"/>
    </g>
    <path class="st1" d="M488.5,120.4l-24.6,19.7-5.6,4.5-5.5-4.4h-.1c0-.1-24.6-19.8-24.6-19.8-.5.7-.8,1.4-.9,2.3l22.7,18.2,2,1.6,5.7,4.5c.2.2.5.2.7.2s.5,0,.7-.2l5.7-4.5,2-1.6,22.7-18.2c0-.8-.4-1.6-.9-2.3Z"/>
  </g>
  <g>
    <circle class="st5" cx="159.4" cy="327.7" r="27.1" transform="translate(-196.1 407.5) rotate(-76.7)"/>
    <g>
      <path class="st1" d="M159.4,345.4c-9.7,0-17.7-7.9-17.7-17.7s7.9-17.7,17.7-17.7,17.7,7.9,17.7,17.7-7.9,17.7-17.7,17.7ZM159.4,311.7c-8.8,0-16,7.2-16,16s7.2,16,16,16,16-7.2,16-16-7.2-16-16-16Z"/>
      <path class="st1" d="M159.4,345.4c-5.6,0-9.9-7.8-9.9-17.7s4.4-17.7,9.9-17.7,9.9,7.8,9.9,17.7-4.4,17.7-9.9,17.7ZM159.4,311.7c-4.5,0-8.3,7.3-8.3,16s3.8,16,8.3,16,8.3-7.3,8.3-16-3.8-16-8.3-16Z"/>
      <rect class="st1" x="142.6" y="326.8" width="33.7" height="1.7"/>
      <path class="st1" d="M159.7,321.3c-4.4,0-8.8-1.5-13.1-4.4l.9-1.4c8.2,5.5,16.2,5.5,24.4,0l.9,1.4c-4.4,2.9-8.8,4.4-13.1,4.4Z"/>
      <path class="st1" d="M171.9,339.8c-8.2-5.5-16.2-5.5-24.4,0l-.9-1.4c8.7-5.9,17.6-5.9,26.3,0l-.9,1.4Z"/>
    </g>
  </g>
  <rect class="st0" x="4" y="398.3" width="492" height="1.3"/>
  <circle class="st4" cx="9.4" cy="301.3" r="5.4"/>
  <circle class="st4" cx="314.2" cy="105.7" r="5.2"/>
  <path class="st4" d="M479.3,260.3c0,1.6-1.3,2.9-2.9,2.9s-2.9-1.3-2.9-2.9,1.3-2.9,2.9-2.9,2.9,1.3,2.9,2.9Z"/>
  <path class="st4" d="M367.1,367.8c0,1.6-1.3,2.9-2.9,2.9s-2.9-1.3-2.9-2.9,1.3-2.9,2.9-2.9,2.9,1.3,2.9,2.9Z"/>
  <g>
    <circle class="st5" cx="448.2" cy="327.8" r="36.1" transform="translate(52.8 717.7) rotate(-80.8)"/>
    <g>
      <path class="st1" d="M463.4,340.4c-1.5,0-2.9-.9-3.5-2.3l-10.4-24.4c-.4-.9-.4-2,0-2.9.4-.9,1.1-1.7,2.1-2.1.9-.4,2-.4,2.9,0,.9.4,1.7,1.1,2.1,2.1l10.4,24.4c.4.9.4,2,0,2.9s-1.1,1.7-2.1,2.1c-.5.2-1,.3-1.5.3ZM453,310.1c-.3,0-.6,0-.8.2-1.1.5-1.6,1.7-1.1,2.8l10.4,24.4c.5,1.1,1.7,1.6,2.8,1.1,1.1-.5,1.6-1.7,1.1-2.8l-10.4-24.4c-.2-.5-.6-.9-1.2-1.2-.3-.1-.5-.2-.8-.2Z"/>
      <path class="st1" d="M433.4,342.3c-.9,0-1.8-.2-2.7-.5-1.8-.7-3.2-2.1-4-3.9-1.6-3.7.2-8,3.9-9.6l7.6-3.2c.5-.2.9-.4,1.3-.6,2.3-1.2,4.4-2.7,6.2-4.6l4.8-5c.3-.3.9-.3,1.2,0,.3.3.3.8,0,1.2l-4.8,5c-1.9,2-4.2,3.7-6.7,4.9-.5.2-.9.5-1.4.7l-7.6,3.2c-2.9,1.2-4.2,4.5-3,7.4.6,1.4,1.7,2.5,3.1,3,1,.4,2.2.5,3.2.3.4,0,.7-.2,1.1-.3l7.6-3.2c.5-.2,1-.4,1.5-.6,2.6-.9,5.4-1.4,8.2-1.4h6.9c.5,0,.8.4.8.8s-.4.8-.8.8h-6.9c-2.6,0-5.2.4-7.7,1.3-.5.2-.9.3-1.4.5l-7.6,3.2c-.4.2-.9.3-1.4.4-.5.1-1,.2-1.5.2Z"/>
      <path class="st1" d="M441.7,349.7c-1,0-1.9-.4-2.5-1.2l-5.2-6.6c-.3-.4-.2-.9.1-1.2.4-.3.9-.2,1.2.1l5.2,6.6c.4.6,1.2.7,1.8.5.4-.2.8-.6.9-1,.1-.5,0-1-.3-1.3l-4.3-5.5c-.3-.4-.2-.9.1-1.2.4-.3.9-.2,1.2.1l4.3,5.5c.6.8.8,1.8.6,2.8-.3,1-.9,1.8-1.9,2.2-.4.2-.8.3-1.3.3Z"/>
      <path class="st1" d="M460.7,315.7c-.1,0-.3,0-.4-.1-.4-.2-.6-.7-.3-1.1l4.4-8c.2-.4.7-.6,1.1-.3.4.2.6.7.3,1.1l-4.4,8c-.2.3-.4.4-.7.4Z"/>
      <path class="st1" d="M475.6,332.3c0,0-.1,0-.2,0l-8.8-2.4c-.4-.1-.7-.6-.6-1,.1-.4.6-.7,1-.6l8.8,2.4c.4.1.7.6.6,1-.1.4-.4.6-.8.6Z"/>
      <path class="st1" d="M463.9,323.1c-.3,0-.6-.2-.8-.5-.2-.4,0-.9.4-1.1l7.6-3.2c.4-.2.9,0,1.1.4.2.4,0,.9-.4,1.1l-7.6,3.2c-.1,0-.2,0-.3,0Z"/>
      <path class="st1" d="M439.6,340.2c-.3,0-.6-.2-.8-.5l-5.1-11.9c0-.2,0-.4,0-.6,0-.2.2-.4.4-.5l4-1.7c.5-.2.9-.4,1.3-.6.2-.1.4-.1.7,0,.2,0,.4.2.5.5l5.1,12c0,.2,0,.5,0,.7,0,.2-.3.4-.5.5-.5.2-.9.3-1.4.5l-4,1.7c-.1,0-.2,0-.3,0ZM435.6,327.9l4.4,10.3,3.2-1.4c.2,0,.4-.2.6-.3l-4.4-10.4c-.2,0-.4.2-.6.3l-3.2,1.4Z"/>
    </g>
  </g>
</svg>