<?xml version="1.0" encoding="utf-8"?>
<!-- Generator: Adobe Illustrator 25.0.1, SVG Export Plug-In . SVG Version: 6.00 Build 0)  -->
<svg version="1.1" xmlns="http://www.w3.org/2000/svg" xmlns:xlink="http://www.w3.org/1999/xlink" x="0px" y="0px"
	 viewBox="0 0 750 500" style="enable-background:new 0 0 750 500;" xml:space="preserve">
<style type="text/css">
	.st0{fill:#6D9CAA;}
	.st1{fill:#7DAEBA;}
	.st2{fill:#547D87;}
	.st3{fill:#375F7F;}
	.st4{fill:#406984;}
	.st5{fill:#ADC2DB;}
	.st6{fill:#243E49;}
	.st7{fill:#34576B;}
	.st8{fill:#3D5E63;}
	.st9{fill:#619E92;}
	.st10{fill:#368778;}
	.st11{fill:#297264;}
	.st12{fill:#4D8479;}
	.st13{fill:#FFC1A9;}
	.st14{fill:#CADBED;}
	.st15{fill:#A3B8D1;}
	.st16{fill:#F99E8A;}
	.st17{fill:#F48876;}
	.st18{fill:#1A2E35;}
	.st19{fill:#ED845F;}
	.st20{fill:#F4A382;}
	.st21{fill:#497C4D;}
	.st22{fill:#667E91;}
	.st23{fill:#586F7F;}
	.st24{fill:#90A8BF;}
	.st25{fill:#809AAF;}
	.st26{fill:#8AA5B7;}
	.st27{fill:#445866;}
	.st28{fill:#9BB3C6;}
	.st29{font-family:'Montserrat-Bold';}
	.st30{font-size:20px;}
	.st31{font-family:'Montserrat-Medium';}
	.st32{font-size:12px;}
</style>
<g id="Background">
	<rect class="st0" width="750" height="500"/>
	<path class="st1" d="M750,0v241.6C542.02,343.61,183.06,320.27,0,299.49V0H750z"/>
	<rect class="st2" width="460.31" height="465.19"/>
	<rect class="st3" width="450.15" height="439.22"/>
	<path class="st4" d="M450.15,158.66V300.1c-178,79.26-354.6,27.25-450.15-14.64v-126.8H450.15z"/>
	<circle class="st5" cx="221.44" cy="107.17" r="36.42"/>
	<polygon class="st6" points="148.6,130.89 118.95,160.54 118.95,311.03 189.25,311.03 189.25,131.45 	"/>
	<polygon class="st6" points="273.4,43.93 243.75,88.17 243.75,312.72 314.05,312.72 314.05,44.77 	"/>
	<polygon class="st6" points="450.15,77.92 450.15,346.04 387.75,346.04 387.75,121.48 417.4,77.24 	"/>
	<polygon class="st7" points="450.15,77.6 450.15,439.22 0,439.22 0,148.96 83.94,148.96 83.94,283.36 148.6,283.36 148.6,130.89 
		244.31,130.89 244.31,246.65 272.83,246.65 272.83,43.72 368.55,43.72 368.55,310.18 417.4,310.18 417.4,77.6 	"/>
	<rect x="13.17" y="163.4" class="st5" width="16.36" height="26.69"/>
	<rect x="48.47" y="163.4" class="st5" width="16.36" height="26.69"/>
	<rect x="13.17" y="217.5" class="st5" width="16.36" height="26.69"/>
	<rect x="48.47" y="217.5" class="st5" width="16.36" height="26.69"/>
	<rect x="13.17" y="271.59" class="st5" width="16.36" height="26.69"/>
	<rect x="48.47" y="271.59" class="st5" width="16.36" height="26.69"/>
	<rect x="13.17" y="325.69" class="st5" width="16.36" height="26.69"/>
	<rect x="48.47" y="325.69" class="st5" width="16.36" height="26.69"/>
	<rect x="13.17" y="379.78" class="st5" width="16.36" height="26.69"/>
	<rect x="48.47" y="379.78" class="st5" width="16.36" height="26.69"/>
	<rect x="174.02" y="163.4" class="st5" width="16.36" height="26.69"/>
	<rect x="209.31" y="163.4" class="st5" width="16.36" height="26.69"/>
	<rect x="427.6" y="89.78" class="st5" width="16.36" height="26.69"/>
	<rect x="427.6" y="135.18" class="st5" width="16.36" height="26.69"/>
	<rect x="427.6" y="180.57" class="st5" width="16.36" height="26.69"/>
	<rect x="427.6" y="225.97" class="st5" width="16.36" height="26.69"/>
	<rect x="427.6" y="271.36" class="st5" width="16.36" height="26.69"/>
	<rect x="174.02" y="217.5" class="st5" width="16.36" height="26.69"/>
	<rect x="209.31" y="217.5" class="st5" width="16.36" height="26.69"/>
	<rect x="174.02" y="271.59" class="st5" width="16.36" height="26.69"/>
	<rect x="209.31" y="271.59" class="st5" width="16.36" height="26.69"/>
	<rect x="174.02" y="325.69" class="st5" width="16.36" height="26.69"/>
	<rect x="209.31" y="325.69" class="st5" width="16.36" height="26.69"/>
	<rect x="174.02" y="379.78" class="st5" width="16.36" height="26.69"/>
	<rect x="295.99" y="109.26" class="st5" width="16.36" height="26.69"/>
	<rect x="331.29" y="109.26" class="st5" width="16.36" height="26.69"/>
	<rect x="295.99" y="55.12" class="st5" width="16.36" height="26.69"/>
	<rect x="331.29" y="55.12" class="st5" width="16.36" height="26.69"/>
	<rect x="295.99" y="217.5" class="st5" width="16.36" height="26.69"/>
	<rect x="331.29" y="217.5" class="st5" width="16.36" height="26.69"/>
	<rect x="295.99" y="271.59" class="st5" width="16.36" height="26.69"/>
	<rect x="331.29" y="271.59" class="st5" width="16.36" height="26.69"/>
	<rect x="295.99" y="379.78" class="st5" width="16.36" height="26.69"/>
	<rect x="331.29" y="379.78" class="st5" width="16.36" height="26.69"/>
	<path class="st2" d="M750,0v120.72H512.79c-12.76,0-23.11-10.34-23.11-23.11V23.11C489.68,10.34,500.02,0,512.79,0H750z"/>
	<path class="st2" d="M750,137.67v132.14H512.79c-12.76,0-23.11-10.34-23.11-23.11v-85.93c0-12.76,10.34-23.11,23.11-23.11H750z"/>
	<path class="st2" d="M750,286.75v132.14H512.79c-12.76,0-23.11-10.34-23.11-23.11v-85.93c0-12.76,10.34-23.11,23.11-23.11H750z"/>
	<path class="st2" d="M750,435.83V500H489.68v-41.06c0-12.76,10.34-23.11,23.11-23.11H750z"/>
	<circle class="st8" cx="670.67" cy="60.58" r="52.76"/>
	<circle class="st0" cx="670.67" cy="60.58" r="45.77"/>
	<polygon class="st2" points="669.87,69.48 644.41,75.1 644.1,70.59 669.4,66.98 	"/>
	<polygon class="st2" points="672.94,63.33 676.15,27.49 670.81,27.32 670.6,63.06 	"/>
</g>
<g id="Object">
	<g>
		<g>
			<path class="st7" d="M685.74,370.32h-90.29c-8.52,0-15.42-6.9-15.42-15.42v-64.88c0-8.52,6.9-15.42,15.42-15.42h90.29
				c8.52,0,15.42,6.9,15.42,15.42v64.88C701.16,363.42,694.26,370.32,685.74,370.32z"/>
			<path class="st6" d="M677.83,370.32h-90.29c-8.52,0-15.42-6.9-15.42-15.42v-64.88c0-8.52,6.9-15.42,15.42-15.42h90.29
				c8.52,0,15.42,6.9,15.42,15.42v64.88C693.25,363.42,686.35,370.32,677.83,370.32z"/>
			<path class="st6" d="M608.51,437.04v-69.39c0-8.52,6.9-15.42,15.42-15.42l0,0c8.52,0,15.42,6.9,15.42,15.42v69.39
				c0,8.52-6.9,15.42-15.42,15.42l0,0C615.42,452.45,608.51,445.55,608.51,437.04z"/>
			<path class="st9" d="M502.76,376.33c7.05-15.97,6.61-0.24-19.86-27.75c0,0,12.04-23.06,13.84-28.52
				c5.19-15.79,10.18-48.35,14.03-58.45c5.17-13.59,20.96-20.74,27.55-15.64c6.55,5.07,21.99,20.54-12,106.2
				c-0.22,0.58-0.45,1.15-0.68,1.73C525.63,353.9,522.85,378.51,502.76,376.33z"/>
			<path class="st10" d="M621.82,394.04c-12.99,42.92-97.69-1.13-97.69-1.13s-1.95-20.86-3.49-46.94
				c-2.37-39.85-3.8-91.91,4.05-100.44c0,0,31.34-30.69,77.37-19.96c16.09,8.47,27.1,18.26,27.1,18.26s0.36,6.81,0.69,17.68
				C630.82,293.79,631.54,361.94,621.82,394.04z"/>
			<path class="st11" d="M621.82,394.04c-12.99,42.92-97.69-1.13-97.69-1.13s-1.95-20.86-3.49-46.94
				c47.58,7.83,92.22-56.48,109.21-84.46C630.82,293.79,631.54,361.94,621.82,394.04z"/>
			<path class="st9" d="M589.63,213.9c0,0,4.8,3.2,12.42,11.67c6,6.66-12.87,32.6-23.48,43.04c-2.12,2.09-5.69,1.27-6.68-1.54
				c-2-5.66-5.4-13.57-9.5-16.19c-3.09,1.29-7.25,6.32-10.58,10.94c-2.17,3.02-6.92,1.79-7.35-1.9
				c-1.48-12.81-1.78-33.61,10.44-40.1C572.97,210.23,589.63,213.9,589.63,213.9z"/>
			<path class="st9" d="M657.96,372.58c-2.26-17.31,8.1-22.4-28.8-32.18c0,0-0.85-3.61-2.15-9.21
				c-3.76-16.19-11.33-49.06-13.28-59.69c-2.64-14.3,7.15-28.61,15.43-27.67c8.23,0.93,29.46,6.14,44.87,97
				c0.11,0.61,0.21,1.22,0.31,1.83C674.34,342.66,668.13,361.67,657.96,372.58z"/>
			<path class="st12" d="M657.96,372.58c-7.34-15.53-5.65-23.15-28.8-32.18c0,0-0.85-3.61-2.15-9.21
				c9.99-2.45,31.95-3.47,47.02,9.64c1.6,1.38,3.12,2.93,4.54,4.65C682.53,354.8,666.72,374.28,657.96,372.58z"/>
			<path class="st13" d="M653.28,377.84c-3.73,2.21-8.26,3.17-13.58,1.48c-2.11-0.67-4.56-1.83-7.27-3.39
				c-3.92-2.23-8.4-5.27-13.16-8.78c-21.17-15.66-48-40.72-57.56-46.15c-4.23-14.69,14.83-16.99,14.83-16.99s23.39,17.41,50.5,26.57
				c12.4,4.18,21.63,10.14,28.07,15.51c1.71,1.43,3.13,3.1,4.23,4.9c1.33,2.14,2.22,4.48,2.67,6.88
				C663.4,365.4,660.49,373.55,653.28,377.84z"/>
			<path class="st14" d="M552.85,302.84h-27.52c-1.45,0-2.62-1.17-2.62-2.62v-48.69c0-1.45,1.17-2.62,2.62-2.62h27.52
				c1.45,0,2.62,1.17,2.62,2.62v48.69C555.47,301.67,554.29,302.84,552.85,302.84z"/>
			<path class="st15" d="M540.13,301.01h-1.05c-0.96,0-1.73-0.78-1.73-1.73V257.7c0-0.96,0.78-1.73,1.73-1.73h1.05
				c0.96,0,1.73,0.78,1.73,1.73v41.57C541.87,300.23,541.09,301.01,540.13,301.01z"/>
			<path class="st16" d="M571.23,295.97c0,0-1.13-18.49-0.14-25.55c0.99-7.06-9.32-2.4-8.89,3.67S571.23,295.97,571.23,295.97z"/>
			<path class="st16" d="M542.85,301.05c0,0-13.13-5.79-13.13-9.88c0-4.09,2.8-5.04,2.8-5.04s-2.01-2.88-1.25-5.61
				c0.76-2.73,4.1-1.35,4.1-1.35s-5.63-7.08,2.12-7.91c7.75-0.83,16.32,16.54,16.32,16.54L542.85,301.05z"/>
			<path class="st13" d="M561.71,320.99l-18.86-19.94c0,0,0-27.84,20.06-25.41c5.73,11.24,13.63,28.37,13.63,28.37L561.71,320.99z"
				/>
			<path class="st13" d="M562.91,275.64c0,0-23.92-15.62-26.37-14.96c-1.18-0.99-7.84,6.1,2.59,12.96
				c10.43,6.86,19.68,12.58,19.68,12.58L562.91,275.64z"/>
			<path class="st14" d="M538.07,218.82c0.12-0.6-0.67-0.91-1.01-0.4c-1.63,2.46-3.39,7.07,0.33,12.9c2.42,3.79,2.66,7.03,2.15,9.49
				c-0.14,0.65,0.82,0.93,1.06,0.31c0.99-2.56,1.22-6.14-1.14-10.74C537.14,226.15,537.52,221.53,538.07,218.82z"/>
			<path class="st12" d="M479.65,350.7c0,0,2.9-11.09,7.58-14.73c10.19-7.95,45.36,16.2,26.16,37.04
				C502.17,385.19,479.65,350.7,479.65,350.7z"/>
			<path class="st14" d="M533.9,231.86c0.08-0.37-0.42-0.57-0.63-0.25c-1.01,1.53-2.11,4.4,0.21,8.02c1.5,2.36,1.66,4.37,1.34,5.9
				c-0.08,0.4,0.51,0.58,0.66,0.19c0.62-1.59,0.76-3.82-0.71-6.68C533.33,236.43,533.56,233.55,533.9,231.86z"/>
			<path class="st14" d="M545.44,227.91c0.1-0.5-0.56-0.77-0.85-0.34c-1.37,2.07-2.85,5.94,0.28,10.84c2.03,3.18,2.24,5.9,1.81,7.97
				c-0.11,0.55,0.69,0.78,0.89,0.26c0.83-2.15,1.02-5.16-0.96-9.02C544.66,234.08,544.98,230.2,545.44,227.91z"/>
			<path class="st13" d="M511.23,368.97c-1.56,3.89-2.58,7.31-7.67,9.16c-1.33,0.48-2.9,0.88-4.68,1.22
				c-5.4,1.04-12.71,1.44-20.88,1.52c-25.23,0.21-60.44-3.76-70.62-2.34c-11.91-8.78,0.13-20.3,0.13-20.3s31.34-1.1,57.57-10.06
				c8.26-2.83,14.96-4.14,20.98-4.57c2.73-0.19,5.32-0.21,7.85-0.1c0.26,0.01,0.52,0.04,0.78,0.06
				C507.16,344.54,515.9,357.25,511.23,368.97z"/>
			<path class="st16" d="M413.47,355.78c0,0-6.63-6.61-15.28-11.08c-6.56-3.39-12.97-5.35-16.64-6.17c-1.95-0.44-3.75,1.3-3.31,3.25
				c0.65,2.9,3.98,8.3,11.02,10.66c10.36,3.47,6.78,5.74,6.78,5.74l-6.74,15.46c0,0,10.7,6.44,18.11,5.58
				C414.81,378.37,420.5,360.45,413.47,355.78z"/>
			<path class="st13" d="M374.44,346.88c0,0,24.55,4.27,22.74,12.23c0,0,4.9,0.92,3.7,5.43c2.75,1.6,3.97,3.77,3.16,5.42
				c0,0,8.65,6.02-3.68,9.78c-10.86,3.52-16.24-2.94-14.91-5.32c-3.92-0.22-6.26-3.93-4.35-6.08c-3.59-0.16-9.53-7.39-3.64-10.95
				C372.36,355.21,366.25,346.94,374.44,346.88z"/>
			<path class="st16" d="M653.28,377.84c-3.73,2.21-8.26,3.17-13.58,1.48c-2.11-0.67-4.56-1.83-7.27-3.39
				c12.26-4.43,20.99-14.78,26.91-24.94c1.33,2.14,2.22,4.48,2.67,6.88C663.4,365.4,660.49,373.55,653.28,377.84z"/>
			<path class="st16" d="M511.23,368.97c-1.56,3.89-2.58,7.31-7.67,9.16c-1.33,0.48-2.9,0.88-4.68,1.22
				c7.34-14.77-0.67-29.54-12.82-35.75c2.73-0.19,5.32-0.21,7.85-0.1c0.26,0.01,0.52,0.04,0.78,0.06
				C507.16,344.54,515.9,357.25,511.23,368.97z"/>
		</g>
		<g>
			<path class="st16" d="M591.75,216.3c-3.95,19.91-29.36,34.59-29.36,34.59s-3.53-6.49-8.48-18.21c0-2.68-0.79-9.82-1.4-14.94
				c-0.39-3.24-0.71-5.67-0.71-5.67l38.21-34.5c0,0-0.08,18.05,1.11,32.5C591.3,212.25,591.51,214.36,591.75,216.3z"/>
			<path class="st17" d="M591.12,210.07c-14.82,8-29.16,8.59-38.61,7.67c-0.39-3.24-0.71-5.67-0.71-5.67l38.21-34.5
				C590.01,177.57,589.93,195.62,591.12,210.07z"/>
			<path class="st13" d="M590.01,177.57c0,0-2.64,36.9-42.73,38.59c-32.53,1.38-33.83-46.14-33.17-64.11
				c0.16-4.18,0.42-6.76,0.42-6.76c6.69-43.83,56.47-22.8,81.05-9.21c0.28,0.15,0.56,0.31,0.83,0.46
				C620.69,150.09,590.01,177.57,590.01,177.57z"/>
			<path class="st16" d="M595.58,136.08c-2.72,2.05-6.17,4.18-10.47,6.39c-34.24,17.57-58.13,14.31-71,9.58
				c0.16-4.18,0.42-6.76,0.42-6.76C521.22,101.46,571,122.49,595.58,136.08z"/>
			<path class="st6" d="M603.19,165.71c-5.28,15.82-13.18,21.09-13.18,21.09v-9.23c0,0,9.79-8.84,9.79-22.96s-14.81-4.89-15.06-0.94
				c-0.24,3.76-2.81,14.3-4.33,14.3c-2.82,0-0.71-13.41-3.95-14.11c-1.99-0.44-9.6,0.75-14.69-9.98c0,0-19.95,11.1-44.8,5.46
				c-2.07,7.72-3.76,14.12-21.45,11.29c6.39-6.59,9.97-10.35,9.97-21.08c0-10.73,7.53-43.86,43.11-43.86
				c35.57,0,43.48,24.47,43.48,24.47S617.49,126.94,603.19,165.71z"/>
			<path class="st18" d="M603.19,165.71c-5.28,15.82-13.18,21.09-13.18,21.09v-9.23c0,0,9.79-8.84,9.79-22.96
				s-14.81-4.89-15.06-0.94c-0.24,3.76-2.81,14.3-4.33,14.3c-2.82,0-0.71-13.41-3.95-14.11c-1.99-0.44-9.6,0.75-14.69-9.98
				c0,0,27.11-6.21,30.31-23.72C592.08,120.16,617.49,126.94,603.19,165.71z"/>
			<g>
				<path class="st19" d="M596.42,158.96c-0.06,0.27-0.33,0.43-0.6,0.37c-0.2-0.05-4.92-1.11-8.16,4.42
					c-0.52,2.27-0.71,4.88-0.36,7.84c0.04,0.27-0.16,0.52-0.43,0.55h-0.06c-0.25,0-0.47-0.18-0.5-0.44
					c-0.35-2.95-0.17-5.55,0.31-7.82c0.03-0.18,0.06-0.36,0.11-0.53c0.77-3.32,2.18-5.89,3.51-7.71c2.48-3.4,5.15-4.97,5.26-5.04
					c0.24-0.14,0.54-0.06,0.68,0.18s0.06,0.54-0.18,0.68c-0.07,0.04-5.03,3.04-7.51,9.52c3.46-3.57,7.52-2.64,7.57-2.62
					C596.33,158.42,596.49,158.69,596.42,158.96z"/>
			</g>
		</g>
		<g>
			
				<ellipse transform="matrix(0.9998 -0.0182 0.0182 0.9998 -3.0173 10.1863)" class="st6" cx="557.44" cy="170.66" rx="3.48" ry="5.88"/>
			
				<ellipse transform="matrix(0.9998 -0.0182 0.0182 0.9998 -3.0232 9.6369)" class="st6" cx="527.29" cy="170.71" rx="3.48" ry="5.88"/>
			<path class="st6" d="M519.72,159.75c0,0,10.18-5.14,11.99-1.06c1.8,4.08-2.67,3.42-2.67,3.42S516.78,162.07,519.72,159.75z"/>
			<path class="st6" d="M563,157.34c0,0-10.83-3.59-12.02,0.71c-1.19,4.3,3.14,2.99,3.14,2.99S566.25,159.2,563,157.34z"/>
			<path class="st20" d="M537.39,187.45c0,0,3.01,2.07,5.36,1.6c3.59-0.72,10.92-6.68-1.22-6.21
				C529.39,183.31,537.39,187.45,537.39,187.45z"/>
			<g>
				<path class="st19" d="M541.34,200.12c-3.08,0-5.21-0.53-5.42-0.59c-0.53-0.14-0.85-0.69-0.71-1.22
					c0.14-0.53,0.68-0.86,1.22-0.72c0.12,0.03,11.8,2.93,20.4-5.76c0.39-0.39,1.02-0.4,1.41-0.01c0.39,0.39,0.4,1.02,0.01,1.41
					C552.61,198.93,545.92,200.12,541.34,200.12z"/>
			</g>
		</g>
	</g>
	<g>
		<path class="st21" d="M136.01,500H0v-90.66c8.34-6.89,30.06-21.29,48.47-2.87c12.18,12.18,13.9,25.08,12.75,34.63
			c7.7-23.83,23.84-67.49,36.55-59.48c17.18,10.83-26.36,72-27.09,73.02c0.6-0.4,26.74-17.91,28.22-4.88
			c1.36,11.89-18.13,11.52-21.95,11.33c3.82,0.31,23.39,2.88,22.7,22.93c7.91-5.65,12.43,1.88,12.43,1.88S127.69,469.55,136.01,500z
			"/>
		<rect x="238.95" y="387.27" class="st22" width="387.39" height="112.73"/>
		<rect x="238.95" y="387.27" class="st23" width="387.39" height="66.07"/>
		<rect x="499.93" y="387.27" class="st24" width="159.72" height="112.73"/>
		<rect x="499.93" y="387.27" class="st25" width="159.72" height="66.91"/>
		<path class="st26" d="M646.63,403.29H216.68c-6.96,0-12.6-5.64-12.6-12.6l0,0c0-6.96,5.64-12.6,12.6-12.6h429.95
			c6.96,0,12.6,5.64,12.6,12.6l0,0C659.23,397.65,653.59,403.29,646.63,403.29z"/>
		<path class="st14" d="M667.18,403.29H497.81c-6.96,0-12.6-5.64-12.6-12.6l0,0c0-6.96,5.64-12.6,12.6-12.6h169.37
			c6.96,0,12.6,5.64,12.6,12.6l0,0C679.78,397.65,674.13,403.29,667.18,403.29z"/>
		<path class="st27" d="M507.06,378.07H404.13c-2.15,0-3.9-1.75-3.9-3.9l0,0c0-2.15,1.75-3.9,3.9-3.9h102.94
			c2.15,0,3.9,1.75,3.9,3.9l0,0C510.96,376.32,509.22,378.07,507.06,378.07z"/>
		<g>
			<path class="st14" d="M436.8,329.67H278.84c-7.37,0-13.35-5.98-13.35-13.35V199.29c0-7.37,5.98-13.35,13.35-13.35H436.8
				c7.37,0,13.35,5.98,13.35,13.35v117.02C450.15,323.69,444.17,329.67,436.8,329.67z"/>
			<path class="st26" d="M441.11,199.29v117.03c0,7.37-5.98,13.35-13.35,13.35H269.8c-7.37,0-13.35-5.98-13.35-13.35V199.29
				c0-7.37,5.98-13.35,13.35-13.35h157.96C435.13,185.94,441.11,191.92,441.11,199.29z"/>
			<path class="st5" d="M441.11,199.29v26.78c-53.95,50.18-140.09,60.77-184.66,62.73v-89.51c0-7.37,5.98-13.35,13.35-13.35h157.96
				C435.13,185.94,441.11,191.92,441.11,199.29z"/>
			<path class="st26" d="M388.83,300.3h-83.86c-4.39,0-7.95-3.56-7.95-7.95v-64.66c0-4.39,3.56-7.95,7.95-7.95h83.86
				c4.39,0,7.95,3.56,7.95,7.95v64.66C396.78,296.74,393.22,300.3,388.83,300.3z"/>
			<path class="st22" d="M386.29,300.3h-83.86c-4.39,0-7.95-3.56-7.95-7.95v-64.66c0-4.39,3.56-7.95,7.95-7.95h83.86
				c4.39,0,7.95,3.56,7.95,7.95v64.66C394.24,296.74,390.68,300.3,386.29,300.3z"/>
			<path class="st22" d="M354.52,367.69h-53.48l16.69-96.53c0.59-3.39,3.58-5.87,7.09-5.87h38.9c4.45,0,7.83,3.93,7.09,8.23
				L354.52,367.69z"/>
			<path class="st5" d="M351.53,367.69h-52.47l16.37-96.53c0.58-3.39,3.51-5.87,6.95-5.87h38.16c4.37,0,7.68,3.93,6.95,8.23
				L351.53,367.69z"/>
			<path class="st22" d="M390.77,378.07H295.1c-4.16,0-7.53-3.37-7.53-7.53l0,0c0-4.16,3.37-7.53,7.53-7.53h95.68
				c4.16,0,7.53,3.37,7.53,7.53l0,0C398.3,374.69,394.93,378.07,390.77,378.07z"/>
			<path class="st28" d="M390.77,378.07h-22.22c-4.16,0-7.53-3.37-7.53-7.53l0,0c0-4.16,3.37-7.53,7.53-7.53h22.22
				c4.16,0,7.53,3.37,7.53,7.53l0,0C398.3,374.69,394.93,378.07,390.77,378.07z"/>
			<circle class="st27" cx="307.7" cy="255.83" r="3.67"/>
			<circle class="st27" cx="318.85" cy="255.83" r="3.67"/>
			<path class="st26" d="M383.61,232.35H342.2c-1.82,0-3.29-1.47-3.29-3.29l0,0c0-1.82,1.47-3.29,3.29-3.29h41.41
				c1.82,0,3.29,1.47,3.29,3.29l0,0C386.9,230.87,385.43,232.35,383.61,232.35z"/>
			<path class="st14" d="M375.64,198.28H276.5c-1.82,0-3.29-1.47-3.29-3.29v0c0-1.82,1.47-3.29,3.29-3.29h99.14
				c1.82,0,3.29,1.47,3.29,3.29v0C378.94,196.8,377.46,198.28,375.64,198.28z"/>
			<path class="st14" d="M406.04,198.28h-19.38c-1.82,0-3.29-1.47-3.29-3.29v0c0-1.82,1.47-3.29,3.29-3.29h19.38
				c1.82,0,3.29,1.47,3.29,3.29v0C409.34,196.8,407.86,198.28,406.04,198.28z"/>
		</g>
		<circle class="st27" cx="280.55" cy="451.45" r="8.85"/>
		<circle class="st27" cx="308.03" cy="451.45" r="8.85"/>
		<circle class="st27" cx="335.41" cy="451.45" r="8.85"/>
	</g>
	<text transform="matrix(1 0 0 1 15.3278 33.7094)" class="st14 st29 st30">Man Working Overtime</text>
	<text transform="matrix(1 0 0 1 16.8325 49.2132)" class="st14 st31 st32">Vector Illustration</text>
</g>
</svg>
