<?xml version="1.0" encoding="UTF-8"?><svg id="Layer" xmlns="http://www.w3.org/2000/svg" viewBox="0 0 812.84 512"><path d="M69.87,176.68h-21.69c-.71,0-1.29-.58-1.29-1.29s.58-1.29,1.29-1.29h21.11l21.6-24.11c.25-.27.59-.43.96-.43h31.78c.71,0,1.29.58,1.29,1.29s-.58,1.29-1.29,1.29h-31.2l-21.6,24.11c-.25.27-.59.43-.96.43Z" fill="#959fd8"/><path d="M129.37,157.88c-3.88,0-7.03-3.15-7.03-7.03s3.15-7.03,7.03-7.03,7.03,3.15,7.03,7.03-3.15,7.03-7.03,7.03ZM129.37,146.4c-2.46,0-4.45,2-4.45,4.45s2,4.45,4.45,4.45,4.45-2,4.45-4.45-2-4.45-4.45-4.45Z" fill="#959fd8"/><path d="M123.63,291.59H48.18c-.71,0-1.29-.58-1.29-1.29s.58-1.29,1.29-1.29h75.45c.71,0,1.29.58,1.29,1.29s-.58,1.29-1.29,1.29Z" fill="#959fd8"/><path d="M129.37,297.33c-3.88,0-7.03-3.15-7.03-7.03s3.15-7.03,7.03-7.03,7.03,3.15,7.03,7.03-3.15,7.03-7.03,7.03ZM129.37,285.85c-2.46,0-4.45,2-4.45,4.45s2,4.45,4.45,4.45,4.45-2,4.45-4.45-2-4.45-4.45-4.45Z" fill="#959fd8"/><path d="M139.04,134.36h-65.32c-.71,0-1.29-.58-1.29-1.29s.58-1.29,1.29-1.29h64.75l21.6-24.11c.25-.27.59-.43.96-.43h94.24c.71,0,1.29.58,1.29,1.29s-.58,1.29-1.29,1.29h-93.66l-21.6,24.11c-.25.27-.59.43-.96.43Z" fill="#959fd8"/><path d="M91.63,356.84h-28.23c-.71,0-1.29-.58-1.29-1.29s.58-1.29,1.29-1.29h27.68l36.96-38.32c.24-.25.58-.39.93-.39h18.37c.71,0,1.29.58,1.29,1.29s-.58,1.29-1.29,1.29h-17.82l-36.96,38.32c-.24.25-.58.39-.93.39Z" fill="#959fd8"/><path d="M67.98,140.1c-3.88,0-7.03-3.15-7.03-7.03s3.15-7.03,7.03-7.03,7.03,3.15,7.03,7.03-3.15,7.03-7.03,7.03ZM67.98,128.62c-2.46,0-4.45,2-4.45,4.45s2,4.45,4.45,4.45,4.45-2,4.45-4.45-2-4.45-4.45-4.45Z" fill="#959fd8"/><path d="M57.66,362.58c-3.88,0-7.03-3.15-7.03-7.03s3.15-7.03,7.03-7.03,7.03,3.15,7.03,7.03-3.15,7.03-7.03,7.03ZM57.66,351.1c-2.46,0-4.45,2-4.45,4.45s2,4.45,4.45,4.45,4.45-2,4.45-4.45-2-4.45-4.45-4.45Z" fill="#959fd8"/><path d="M86.47,196.36H12.77c-.71,0-1.29-.58-1.29-1.29s.58-1.29,1.29-1.29h73.13l21.6-24.11c.25-.27.59-.43.96-.43h38.89c.71,0,1.29.58,1.29,1.29s-.58,1.29-1.29,1.29h-38.32l-21.6,24.11c-.25.27-.59.43-.96.43Z" fill="#959fd8"/><path d="M7.03,202.1c-3.88,0-7.03-3.15-7.03-7.03s3.15-7.03,7.03-7.03,7.03,3.15,7.03,7.03-3.15,7.03-7.03,7.03ZM7.03,190.62c-2.46,0-4.45,2-4.45,4.45s2,4.45,4.45,4.45,4.45-2,4.45-4.45-2-4.45-4.45-4.45Z" fill="#959fd8"/><path d="M147.35,239.89h-24.73c-.37,0-.71-.16-.96-.43l-21.6-24.11h-46.14c-.71,0-1.29-.58-1.29-1.29s.58-1.29,1.29-1.29h46.71c.37,0,.71.16.96.43l21.6,24.11h24.16c.71,0,1.29.58,1.29,1.29s-.58,1.29-1.29,1.29Z" fill="#959fd8"/><path d="M260.76,115.57c-3.88,0-7.03-3.15-7.03-7.03s3.15-7.03,7.03-7.03,7.03,3.15,7.03,7.03-3.15,7.03-7.03,7.03ZM260.76,104.09c-2.46,0-4.45,2-4.45,4.45s2,4.45,4.45,4.45,4.45-2,4.45-4.45-2-4.45-4.45-4.45Z" fill="#959fd8"/><path d="M147.35,264.63h-66.49c-.71,0-1.29-.58-1.29-1.29s.58-1.29,1.29-1.29h66.49c.71,0,1.29.58,1.29,1.29s-.58,1.29-1.29,1.29Z" fill="#959fd8"/><path d="M75.12,270.37c-3.88,0-7.03-3.15-7.03-7.03s3.15-7.03,7.03-7.03,7.03,3.15,7.03,7.03-3.15,7.03-7.03,7.03ZM75.12,258.89c-2.46,0-4.45,2-4.45,4.45s2,4.45,4.45,4.45,4.45-2,4.45-4.45-2-4.45-4.45-4.45Z" fill="#959fd8"/><path d="M48.18,221.09c-3.87,0-7.03-3.15-7.03-7.03s3.15-7.03,7.03-7.03,7.03,3.15,7.03,7.03-3.15,7.03-7.03,7.03ZM48.18,209.62c-2.45,0-4.45,2-4.45,4.45s2,4.45,4.45,4.45,4.45-2,4.45-4.45-2-4.45-4.45-4.45Z" fill="#959fd8"/><path d="M464.69,257.44h-6c-1.82,0-3.3-1.48-3.3-3.3v-49.66c0-1.82,1.48-3.3,3.3-3.3h6c1.82,0,3.3,1.48,3.3,3.3v49.66c0,1.82-1.48,3.3-3.3,3.3ZM458.68,203.76c-.4,0-.72.32-.72.72v49.66c0,.4.32.72.72.72h6c.4,0,.72-.32.72-.72v-49.66c0-.4-.32-.72-.72-.72h-6Z" fill="#959fd8"/><path d="M448.09,257.44h-6c-1.82,0-3.3-1.48-3.3-3.3v-45.16c0-1.82,1.48-3.3,3.3-3.3h6c1.82,0,3.3,1.48,3.3,3.3v45.16c0,1.82-1.48,3.3-3.3,3.3ZM442.09,208.25c-.4,0-.72.32-.72.72v45.16c0,.4.32.72.72.72h6c.4,0,.72-.32.72-.72v-45.16c0-.4-.32-.72-.72-.72h-6Z" fill="#959fd8"/><path d="M431.5,257.44h-6c-1.82,0-3.3-1.48-3.3-3.3v-19.96c0-1.82,1.48-3.3,3.3-3.3h6c1.82,0,3.3,1.48,3.3,3.3v19.96c0,1.82-1.48,3.3-3.3,3.3ZM425.5,233.45c-.4,0-.72.32-.72.72v19.96c0,.4.32.72.72.72h6c.4,0,.72-.32.72-.72v-19.96c0-.4-.32-.72-.72-.72h-6Z" fill="#959fd8"/><path d="M414.99,257.44h-6c-1.82,0-3.3-1.48-3.3-3.3v-33.34c0-1.82,1.48-3.3,3.3-3.3h6c1.82,0,3.3,1.48,3.3,3.3v33.34c0,1.82-1.48,3.3-3.3,3.3ZM408.99,220.08c-.4,0-.72.32-.72.72v33.34c0,.4.32.72.72.72h6c.4,0,.72-.32.72-.72v-33.34c0-.4-.32-.72-.72-.72h-6Z" fill="#959fd8"/><path d="M398.4,257.44h-6c-1.82,0-3.3-1.48-3.3-3.3v-43.94c0-1.82,1.48-3.3,3.3-3.3h6c1.82,0,3.3,1.48,3.3,3.3v43.94c0,1.82-1.48,3.3-3.3,3.3ZM392.4,209.47c-.4,0-.72.32-.72.72v43.94c0,.4.32.72.72.72h6c.4,0,.72-.32.72-.72v-43.94c0-.4-.32-.72-.72-.72h-6Z" fill="#959fd8"/><path d="M381.8,257.44h-6c-1.82,0-3.3-1.48-3.3-3.3v-24.93c0-1.82,1.48-3.3,3.3-3.3h6c1.82,0,3.3,1.48,3.3,3.3v24.93c0,1.82-1.48,3.3-3.3,3.3ZM375.8,228.49c-.4,0-.72.32-.72.72v24.93c0,.4.32.72.72.72h6c.4,0,.72-.32.72-.72v-24.93c0-.4-.32-.72-.72-.72h-6Z" fill="#959fd8"/><path d="M365.03,257.44h-6c-1.82,0-3.3-1.48-3.3-3.3v-15.75c0-1.82,1.48-3.3,3.3-3.3h6c1.82,0,3.3,1.48,3.3,3.3v15.75c0,1.82-1.48,3.3-3.3,3.3ZM359.03,237.67c-.4,0-.72.32-.72.72v15.75c0,.4.32.72.72.72h6c.4,0,.72-.32.72-.72v-15.75c0-.4-.32-.72-.72-.72h-6Z" fill="#959fd8"/><path d="M466.7,189.61h-109.68c-.71,0-1.29-.58-1.29-1.29s.58-1.29,1.29-1.29h109.68c.71,0,1.29.58,1.29,1.29s-.58,1.29-1.29,1.29Z" fill="#959fd8"/><path d="M424.13,197.19h-67.12c-.71,0-1.29-.58-1.29-1.29s.58-1.29,1.29-1.29h67.12c.71,0,1.29.58,1.29,1.29s-.58,1.29-1.29,1.29Z" fill="#959fd8"/><path d="M295.44,350.11h-93.03c-1.65,0-2.99-1.34-2.99-2.99v-2.88c0-1.65,1.34-2.99,2.99-2.99h93.03c1.65,0,2.99,1.34,2.99,2.99v2.88c0,1.65-1.34,2.99-2.99,2.99ZM202.41,343.84c-.23,0-.41.18-.41.41v2.88c0,.23.18.41.41.41h93.03c.23,0,.41-.18.41-.41v-2.88c0-.23-.18-.41-.41-.41h-93.03Z" fill="#959fd8"/><path d="M252,339.72h-49.59c-1.65,0-2.99-1.34-2.99-2.99v-2.88c0-1.65,1.34-2.99,2.99-2.99h49.59c1.65,0,2.99,1.34,2.99,2.99v2.88c0,1.65-1.34,2.99-2.99,2.99ZM202.41,333.45c-.23,0-.41.18-.41.41v2.88c0,.23.18.41.41.41h49.59c.23,0,.41-.18.41-.41v-2.88c0-.23-.18-.41-.41-.41h-49.59Z" fill="#959fd8"/><path d="M265.38,329.38h-62.96c-1.65,0-2.99-1.34-2.99-2.99v-2.88c0-1.65,1.34-2.99,2.99-2.99h62.96c1.65,0,2.99,1.34,2.99,2.99v2.88c0,1.65-1.34,2.99-2.99,2.99ZM202.41,323.11c-.23,0-.41.18-.41.41v2.88c0,.23.18.41.41.41h62.96c.23,0,.41-.18.41-.41v-2.88c0-.23-.18-.41-.41-.41h-62.96Z" fill="#959fd8"/><path d="M283.26,370.87h-80.85c-1.65,0-2.99-1.34-2.99-2.99v-2.88c0-1.65,1.34-2.99,2.99-2.99h80.85c1.65,0,2.99,1.34,2.99,2.99v2.88c0,1.65-1.34,2.99-2.99,2.99ZM202.41,364.59c-.23,0-.41.18-.41.41v2.88c0,.23.18.41.41.41h80.85c.23,0,.41-.18.41-.41v-2.88c0-.23-.18-.41-.41-.41h-80.85Z" fill="#959fd8"/><path d="M265.38,360.53h-62.96c-1.65,0-2.99-1.34-2.99-2.99v-2.88c0-1.65,1.34-2.99,2.99-2.99h62.96c1.65,0,2.99,1.34,2.99,2.99v2.88c0,1.65-1.34,2.99-2.99,2.99ZM202.41,354.26c-.23,0-.41.18-.41.41v2.88c0,.23.18.41.41.41h62.96c.23,0,.41-.18.41-.41v-2.88c0-.23-.18-.41-.41-.41h-62.96Z" fill="#959fd8"/><path d="M301.29,318.99h-98.88c-1.65,0-2.99-1.34-2.99-2.99v-2.88c0-1.65,1.34-2.99,2.99-2.99h98.88c1.65,0,2.99,1.34,2.99,2.99v2.88c0,1.65-1.34,2.99-2.99,2.99ZM202.41,312.72c-.23,0-.41.18-.41.41v2.88c0,.23.18.41.41.41h98.88c.23,0,.41-.18.41-.41v-2.88c0-.23-.18-.41-.41-.41h-98.88Z" fill="#959fd8"/><path d="M311.4,293.2h-109.68c-.71,0-1.29-.58-1.29-1.29s.58-1.29,1.29-1.29h109.68c.71,0,1.29.58,1.29,1.29s-.58,1.29-1.29,1.29Z" fill="#959fd8"/><path d="M239.63,300.78h-37.91c-.71,0-1.29-.58-1.29-1.29s.58-1.29,1.29-1.29h37.91c.71,0,1.29.58,1.29,1.29s-.58,1.29-1.29,1.29Z" fill="#959fd8"/><path d="M442.97,300.99h-85.95c-.71,0-1.29-.58-1.29-1.29s.58-1.29,1.29-1.29h85.95c.71,0,1.29.58,1.29,1.29s-.58,1.29-1.29,1.29Z" fill="#959fd8"/><path d="M466.7,293.2h-109.68c-.71,0-1.29-.58-1.29-1.29s.58-1.29,1.29-1.29h109.68c.71,0,1.29.58,1.29,1.29s-.58,1.29-1.29,1.29Z" fill="#959fd8"/><path d="M362.9,358.96c-.53-.46-.58-1.27-.12-1.82h0c.46-.53,1.29-.59,1.82-.12h0c.54.46.59,1.27.12,1.81h0c-.24.28-.6.44-.97.44h0c-.3,0-.6-.1-.85-.32ZM402.23,355.86c-.14-.7.31-1.38,1.02-1.51h0c.7-.14,1.38.31,1.51,1h0c.14.71-.31,1.38-1.02,1.52h0c-.08.01-.17.03-.25.03h0c-.6,0-1.15-.42-1.26-1.04ZM399.21,356.5c-.66-.27-.99-1.02-.73-1.67h0c.27-.66,1.02-.99,1.67-.73h0c.66.26.99,1,.73,1.67h0c-.21.5-.7.81-1.21.81h0c-.15,0-.31-.03-.46-.08ZM365.57,356.1c-.49-.53-.45-1.34.06-1.82h0c.53-.49,1.34-.45,1.83.06h0c.48.53.44,1.34-.08,1.83h0c-.25.22-.55.33-.88.33h0c-.35,0-.68-.14-.94-.41ZM405.98,354.81c-.36-.62-.14-1.4.48-1.75h0c.62-.36,1.4-.14,1.76.48h0c.35.62.13,1.4-.49,1.75h0c-.19.12-.41.18-.63.18h0c-.45,0-.89-.23-1.12-.66ZM395.59,354.12c-.53-.48-.57-1.29-.09-1.82h0c.48-.53,1.29-.58,1.82-.09h0c.53.46.57,1.29.09,1.82h0c-.25.28-.61.42-.95.42h0c-.31,0-.62-.12-.86-.34ZM368.46,353.49c-.44-.55-.35-1.36.22-1.8h0c.55-.44,1.37-.35,1.8.22h0c.44.55.35,1.36-.22,1.8h0c-.23.18-.52.27-.79.27h0c-.39,0-.76-.17-1.02-.49ZM409.28,352.77c-.44-.55-.35-1.36.22-1.82h0c.55-.44,1.37-.35,1.8.22h0c.44.55.35,1.36-.21,1.8h0c-.23.19-.52.28-.8.28h0c-.39,0-.76-.17-1.02-.49ZM392.77,351.34c-.5-.5-.5-1.31,0-1.81h0c.5-.5,1.31-.5,1.83,0h0c.49.5.49,1.31,0,1.81h0c-.26.26-.59.37-.91.37h0c-.33,0-.66-.12-.91-.37ZM371.55,351.12c-.39-.59-.22-1.39.37-1.78h0c.59-.39,1.39-.22,1.79.37h0c.39.59.22,1.39-.39,1.78h.01c-.22.14-.46.22-.71.22h0c-.42,0-.84-.21-1.08-.59ZM412.38,350.41c-.36-.62-.15-1.4.45-1.76h0c.62-.36,1.4-.17,1.76.45h0c.36.6.15,1.4-.45,1.76h0c-.21.12-.44.18-.66.18h0c-.44,0-.86-.23-1.11-.63ZM374.85,349.05c-.32-.63-.06-1.4.58-1.73h0c.63-.32,1.4-.06,1.73.57h0c.32.64.06,1.42-.57,1.74h0c-.19.09-.39.13-.58.13h0c-.48,0-.93-.26-1.16-.71ZM415.78,348.52c-.24-.67.09-1.4.76-1.66h0c.67-.24,1.42.09,1.66.76h0c.25.67-.09,1.42-.76,1.66h0c-.15.05-.3.08-.45.08h0c-.53,0-1.02-.32-1.21-.84ZM390.02,348.93h0c-.59-.41-.73-1.21-.32-1.79h0c.41-.59,1.21-.72,1.79-.32h0c.59.41.73,1.21.32,1.8h0c-.24.35-.64.54-1.05.54h0c-.26,0-.52-.08-.73-.23ZM431.11,347.47c-.06-.71.46-1.33,1.17-1.39h0c.72-.05,1.34.48,1.39,1.18h0c.06.71-.48,1.33-1.17,1.39h-.12c-.66,0-1.22-.52-1.27-1.19ZM428.38,348.49c-.71-.08-1.22-.71-1.16-1.42h0c.08-.71.71-1.22,1.42-1.15h0c.71.08,1.22.71,1.15,1.42h0c-.06.66-.63,1.16-1.27,1.16h0c-.05,0-.09-.01-.13-.01ZM419.47,347.29c-.1-.71.39-1.36,1.08-1.47h0c.71-.1,1.37.37,1.47,1.08h0c.1.71-.37,1.35-1.08,1.47h0c-.06,0-.13.01-.19.01h0c-.63,0-1.17-.46-1.27-1.09ZM378.37,347.37c-.22-.68.15-1.4.82-1.62h0c.68-.22,1.4.14,1.62.82h0c.23.67-.14,1.4-.81,1.62h0c-.14.04-.27.06-.4.06h0c-.55,0-1.06-.35-1.24-.89ZM424.58,348.18h0c-.71-.03-1.26-.62-1.24-1.33h0c.01-.71.62-1.27,1.33-1.25h0c.71.03,1.26.62,1.25,1.33h0c-.03.7-.6,1.25-1.29,1.25h-.05ZM386.95,347.5c-.7-.15-1.12-.85-.95-1.54h0c.15-.7.85-1.12,1.55-.95h0c.7.15,1.12.85.95,1.55h0c-.14.59-.66.99-1.25.99h0c-.1,0-.19-.01-.3-.04ZM382.11,346.26c-.09-.71.41-1.34,1.12-1.43h0c.71-.08,1.35.42,1.43,1.13h0c.09.71-.42,1.35-1.12,1.43h0c-.05,0-.1.01-.15.01h0c-.64,0-1.2-.49-1.27-1.15ZM434.98,346.86c-.42-.58-.31-1.38.26-1.8h0c.57-.42,1.38-.31,1.8.26h0c.42.57.31,1.38-.26,1.8h0c-.23.17-.5.26-.77.26h0c-.39,0-.78-.18-1.03-.52ZM437.8,344.2c-.59-.39-.76-1.18-.37-1.78h0c.4-.59,1.18-.76,1.79-.37h0c.59.39.76,1.18.37,1.78h0c-.26.39-.67.59-1.08.59h0c-.25,0-.49-.08-.71-.22ZM439.97,340.99c-.55-.45-.66-1.26-.21-1.81h0c.44-.55,1.25-.64,1.8-.21h0c.55.44.66,1.25.22,1.8h0c-.26.32-.63.49-1.02.49h0c-.28,0-.57-.09-.8-.27ZM442.44,337.97c-.51-.5-.51-1.31-.01-1.83h0c.5-.5,1.31-.5,1.83,0h0c.5.5.5,1.31,0,1.83h0c-.26.24-.58.37-.91.37h0c-.32,0-.66-.13-.9-.37ZM445.24,335.27c-.42-.57-.31-1.38.26-1.8h0c.57-.42,1.38-.31,1.8.26h0c.42.57.31,1.38-.26,1.8h0c-.23.17-.5.26-.77.26h0c-.39,0-.77-.18-1.03-.52ZM448.42,333.02c-.32-.63-.07-1.4.58-1.73h0c.63-.32,1.4-.06,1.73.58h0c.31.63.05,1.4-.58,1.73h0c-.18.09-.39.13-.58.13h0c-.46,0-.93-.26-1.15-.71ZM463.94,333.58c-.63-.33-.88-1.12-.55-1.74h0c.33-.64,1.11-.88,1.74-.55h0c.63.33.88,1.12.55,1.74h0c-.23.44-.68.7-1.15.7h0c-.21,0-.41-.05-.59-.14ZM451.96,331.39c-.18-.7.24-1.39.93-1.56h0c.7-.18,1.39.24,1.57.93h0c.17.7-.24,1.39-.94,1.57h0c-.1.03-.21.04-.32.04h0c-.57,0-1.1-.4-1.24-.98ZM460.6,332.31c-.7-.18-1.11-.88-.94-1.56h0c.17-.7.88-1.12,1.56-.94h0c.7.17,1.11.86.94,1.56h0c-.14.58-.67.98-1.25.98h0c-.1,0-.2-.01-.31-.04ZM455.77,330.6c-.01-.71.57-1.29,1.27-1.29h0c.72-.01,1.3.57,1.3,1.27h0c0,.72-.58,1.29-1.29,1.3h0c-.71,0-1.29-.58-1.29-1.29Z" fill="#959fd8"/><path d="M376.07,357.53c-.77,0-1.24-.04-1.33-.04-.71-.06-1.23-.68-1.17-1.39.06-.71.72-1.23,1.39-1.18.13.01,12.75.92,23.71-9.06,7.27-6.62,11.83-6.05,16.66-5.44,1.85.23,3.76.47,5.95.32,3.97-.27,5.71-2.36,7.73-4.78,1.73-2.08,3.52-4.22,6.76-5.17,3.71-1.08,6.08-.05,8.37.94,2.42,1.05,4.7,2.04,9.04,1.03,4.33-1.01,10.28-10.15,12.2-13.59.35-.62,1.13-.84,1.75-.49.62.35.84,1.13.49,1.75-.77,1.37-7.66,13.39-13.86,14.83-5.17,1.21-8.08-.06-10.65-1.17-2.13-.93-3.81-1.66-6.63-.83-2.49.73-3.95,2.48-5.5,4.35-2.09,2.51-4.46,5.36-9.53,5.7-2.43.17-4.57-.1-6.45-.34-4.59-.58-8.22-1.03-14.6,4.79-9.8,8.92-20.59,9.77-24.32,9.77Z" fill="#959fd8"/><path d="M466.7,370.87h-109.68c-.71,0-1.29-.58-1.29-1.29v-58.21c0-.71.58-1.29,1.29-1.29s1.29.58,1.29,1.29v56.93h108.39c.71,0,1.29.58,1.29,1.29s-.58,1.29-1.29,1.29Z" fill="#959fd8"/><path d="M398.82,323.89h-27.58c-.71,0-1.29-.58-1.29-1.29v-7.38c0-.71.58-1.29,1.29-1.29h27.58c.71,0,1.29.58,1.29,1.29v7.38c0,.71-.58,1.29-1.29,1.29ZM372.52,321.31h25.01v-4.8h-25.01v4.8Z" fill="#959fd8"/><path d="M395.34,320.2h-20.62c-.71,0-1.29-.58-1.29-1.29s.58-1.29,1.29-1.29h20.62c.71,0,1.29.58,1.29,1.29s-.58,1.29-1.29,1.29Z" fill="#959fd8"/><path d="M493.99,388.56H177.99c-5.8,0-10.51-4.72-10.51-10.51v-207.73c0-5.8,4.72-10.51,10.51-10.51h316c5.8,0,10.51,4.72,10.51,10.51v207.73c0,5.8-4.72,10.51-10.51,10.51ZM177.99,162.39c-4.38,0-7.94,3.56-7.94,7.94v207.73c0,4.38,3.56,7.94,7.94,7.94h316c4.38,0,7.94-3.56,7.94-7.94v-207.73c0-4.38-3.56-7.94-7.94-7.94H177.99Z" fill="#959fd8"/><path d="M481.22,275.32H188.44c-.71,0-1.29-.58-1.29-1.29s.58-1.29,1.29-1.29h292.78c.71,0,1.29.58,1.29,1.29s-.58,1.29-1.29,1.29Z" fill="#959fd8"/><path d="M311.4,189.61h-24.59c-.71,0-1.29-.58-1.29-1.29s.58-1.29,1.29-1.29h24.59c.71,0,1.29.58,1.29,1.29s-.58,1.29-1.29,1.29Z" fill="#959fd8"/><path d="M311.4,197.43h-34.93c-.71,0-1.29-.58-1.29-1.29s.58-1.29,1.29-1.29h34.93c.71,0,1.29.58,1.29,1.29s-.58,1.29-1.29,1.29Z" fill="#959fd8"/><path d="M311.4,217.73h-24.59c-.71,0-1.29-.58-1.29-1.29s.58-1.29,1.29-1.29h24.59c.71,0,1.29.58,1.29,1.29s-.58,1.29-1.29,1.29Z" fill="#959fd8"/><path d="M311.4,225.55h-29.49c-.71,0-1.29-.58-1.29-1.29s.58-1.29,1.29-1.29h29.49c.71,0,1.29.58,1.29,1.29s-.58,1.29-1.29,1.29Z" fill="#959fd8"/><path d="M311.4,245.86h-31.49c-.71,0-1.29-.58-1.29-1.29s.58-1.29,1.29-1.29h31.49c.71,0,1.29.58,1.29,1.29s-.58,1.29-1.29,1.29Z" fill="#959fd8"/><path d="M311.4,253.67h-43.28c-.71,0-1.29-.58-1.29-1.29s.58-1.29,1.29-1.29h43.28c.71,0,1.29.58,1.29,1.29s-.58,1.29-1.29,1.29Z" fill="#959fd8"/><path d="M233.4,254.22c-8.36,0-27.36-2.49-32.97-24.29-.06-.27-5-23.17,12.29-35.82.49-.35,12.03-8.55,30.87-3.83.36.09.67.34.84.67.17.34.18.73.03,1.08l-6.01,14.21c-.24.58-.87.9-1.48.75-.51-.12-12.5-2.79-17.43,7.45-1.87,3.89-2.19,8.31-.87,12.14,1.31,3.81,3.89,6.47,7.65,7.91,4.16,1.59,8.73,1.46,12.55-.37,4.02-1.93,6.31-5.14,6.83-9.54.08-.69.7-1.21,1.4-1.13l16.39,1.5c.35.03.67.2.89.48s.32.62.27.97c-.03.25-3.41,24.8-27.22,27.62-.06,0-1.59.22-4.01.22ZM232.27,191.42c-11.27,0-17.96,4.71-18.05,4.77-15.93,11.66-11.35,32.92-11.3,33.13,6.66,25.86,33.02,22.29,34.14,22.13,19.01-2.25,23.78-19.14,24.77-24.07l-13.8-1.26c-.89,4.65-3.67,8.2-8.08,10.32-4.45,2.14-9.77,2.3-14.58.45-4.44-1.7-7.61-4.98-9.16-9.47-1.54-4.46-1.18-9.6.99-14.1,4.89-10.16,15.79-9.52,19.26-9.03l5.02-11.86c-3.33-.72-6.41-1.01-9.21-1.01Z" fill="#959fd8"/><path d="M269.08,222.82h-20.15c-.35,0-.69-.14-.93-.4-.24-.26-.37-.6-.35-.95.44-8.7-7.36-13.5-7.44-13.54-.59-.36-.8-1.11-.47-1.72l9.53-17.52c.17-.31.45-.53.78-.62.33-.09.69-.05.99.13,11.31,6.56,15.97,15.29,17.88,21.46,2.08,6.71,1.46,11.83,1.43,12.05-.08.64-.63,1.13-1.28,1.13ZM250.23,220.25h17.65c.17-4.2-.52-18.97-16.99-29.15l-8.33,15.32c2.26,1.68,7.45,6.35,7.67,13.83Z" fill="#959fd8"/><path d="M334.83,370.87c-.71,0-1.29-.58-1.29-1.29v-191.1c0-.71.58-1.29,1.29-1.29s1.29.58,1.29,1.29v191.1c0,.71-.58,1.29-1.29,1.29Z" fill="#959fd8"/><path d="M395.69,466.04h-119.41c-.71,0-1.29-.58-1.29-1.29v-57.57c0-.71.58-1.29,1.29-1.29h119.41c.71,0,1.29.58,1.29,1.29v57.57c0,.71-.58,1.29-1.29,1.29ZM277.57,463.47h116.83v-54.99h-116.83v54.99Z" fill="#959fd8"/><rect x="225.64" y="460.83" width="330.14" height="31.14" transform="translate(781.42 952.8) rotate(180)" fill="#323776"/><path d="M510.56,408.47H161.42c-8.47,0-15.37-6.89-15.37-15.37v-237.84c0-8.47,6.89-15.37,15.37-15.37h349.13c8.47,0,15.37,6.89,15.37,15.37v237.84c0,8.47-6.89,15.37-15.37,15.37ZM161.42,142.47c-7.05,0-12.79,5.74-12.79,12.79v237.84c0,7.05,5.74,12.79,12.79,12.79h349.13c7.05,0,12.79-5.74,12.79-12.79v-237.84c0-7.05-5.74-12.79-12.79-12.79H161.42Z" fill="#959fd8"/><path d="M123.7,485.29h628.33c11.69,0,21.17,9.48,21.17,21.17h0s-670.68,0-670.68,0h0c0-11.69,9.48-21.17,21.17-21.17Z" fill="#d8d8d8"/><path d="M773.21,507.75c-.71,0-1.29-.58-1.29-1.29,0-10.96-8.92-19.89-19.89-19.89H123.7c-10.96,0-19.89,8.92-19.89,19.89,0,.71-.58,1.29-1.29,1.29s-1.29-.58-1.29-1.29c0-12.39,10.08-22.46,22.46-22.46h628.33c12.38,0,22.46,10.08,22.46,22.46,0,.71-.58,1.29-1.29,1.29Z" fill="#323776"/><path d="M359.15,486.12c-23.52,3.69-52.88.2-82.84-.7-9-.27-20.63-4.89-27.74-10.4-.32-.24-.63-.5-.94-.75-5.96-4.9-17.17-1.04-14.98,11.15h-24.44s-.27-19.83,15.62-33.45c10.96-9.4,26.24-18.94,51.84-22.32,13.69-1.8,30.05-2.95,67.04-5.73,37.55-2.82,44.43,57.8,16.45,62.19Z" fill="#f4cebe"/><path d="M334.01,489.07c-10.51,0-21.65-.6-33.13-1.23-8.03-.44-16.33-.88-24.61-1.13-8.87-.27-20.85-4.75-28.49-10.67-.33-.25-.65-.51-.97-.77-2.52-2.08-6.29-2.36-9.15-.68-3.25,1.9-4.61,5.77-3.74,10.61.07.38-.04.76-.28,1.05-.25.29-.61.46-.99.46h-24.44c-.7,0-1.28-.57-1.29-1.27-.01-.83-.09-20.59,16.07-34.45,9.29-7.96,24.83-18.97,52.51-22.61,12.49-1.65,27.54-2.77,57.54-5.02l9.57-.72c21.02-1.59,32.71,15.85,34.66,32.71,2.28,19.72-7.69,30.43-17.92,32.03-7.88,1.24-16.39,1.67-25.35,1.67ZM241.74,470.93c2.42,0,4.82.8,6.71,2.35.3.25.6.49.91.73,7.25,5.62,18.61,9.88,26.99,10.13,8.31.25,16.63.7,24.67,1.13,21.12,1.14,41.07,2.22,57.94-.42h0c12.92-2.03,17.23-16.55,15.76-29.19-1.81-15.68-12.61-31.9-31.91-30.44l-9.57.72c-29.95,2.24-44.98,3.37-57.4,5-26.99,3.56-42.13,14.27-51.17,22.02-12.95,11.1-14.85,26.67-15.13,31.19h21.63c-.53-5.26,1.32-9.5,5.19-11.77,1.65-.96,3.52-1.44,5.38-1.44Z" fill="#323776"/><path d="M592.87,184.04s5.76,27.6,6.19,38.37c0,0,21.1,6.66,52.83-2.98,28.03-8.51,28.51-16.31,28.51-16.31,0,0-7.89-37.37-10.27-52.34l-77.26,33.26Z" fill="#f4cebe"/><path d="M599.06,223.71c-.69,0-1.26-.54-1.28-1.24-.42-10.54-6.11-37.89-6.16-38.16-.13-.6.19-1.2.75-1.45l77.26-33.26c.37-.16.78-.14,1.13.05.35.19.59.53.65.93,2.35,14.77,10.18,51.91,10.26,52.28.15.7-.3,1.38-.99,1.53-.7.15-1.38-.3-1.53-.99-.08-.36-7.39-35.02-10.01-50.78l-74.78,32.19c1.06,5.18,5.61,27.85,6,37.55.03.71-.52,1.31-1.23,1.34-.02,0-.04,0-.05,0Z" fill="#323776"/><path d="M623.81,13.9c39.49.35,71.21,32.64,70.86,72.13l-6.82,35.16c-11.91,76.41-72.72,70.32-72.72,70.32-40.36-.36-61.18-32.28-60.83-71.77l.38-42.51c1.11-66.46,69.13-63.34,69.13-63.34Z" fill="#f4cebe"/><path d="M618.46,192.93c-2.03,0-3.26-.11-3.46-.13-19.38-.17-35.52-7.67-46.57-21.7-10.27-13.05-15.61-30.81-15.42-51.36l.38-42.51c.33-19.7,6.5-35.31,18.33-46.43,20.65-19.39,50.87-18.24,52.15-18.18,19.39.17,37.6,7.9,51.23,21.77,13.62,13.87,21.03,32.21,20.86,51.65,0,.08,0,.16-.02.23l-6.82,35.16c-2.42,15.55-7.09,28.91-13.86,39.67-.38.6-1.17.78-1.78.4-.6-.38-.78-1.17-.4-1.78,6.59-10.46,11.13-23.49,13.51-38.74l6.8-35.09c.14-18.71-7.01-36.36-20.12-49.71-13.14-13.38-30.71-20.84-49.46-21-.36-.02-30.49-1.15-50.33,17.5-11.3,10.62-17.19,25.62-17.5,44.57l-.38,42.5c-.18,19.97,4.97,37.17,14.87,49.75,10.54,13.39,25.99,20.55,44.68,20.72.32.03,20.1,1.81,38.86-10.67.59-.39,1.39-.23,1.78.36.39.59.23,1.39-.36,1.79-15,9.98-30.28,11.23-36.97,11.23Z" fill="#323776"/><ellipse cx="567.09" cy="110.09" rx="5.41" ry="4.93" transform="translate(386.2 658.72) rotate(-82.74)" fill="#323776"/><path d="M559.3,138.36s-12.78.57-13.8-7.67c-1.02-8.24,11.12-10.59,11.12-10.59l2.68,18.26Z" fill="#f4cebe"/><path d="M558.52,58.94c-10.66,0-17-4.06-17.43-4.34-.59-.39-.76-1.19-.36-1.78.39-.59,1.19-.76,1.78-.36.16.1,16.39,10.38,40.85-3.21.62-.35,1.41-.12,1.75.5.35.62.12,1.41-.5,1.75-10.26,5.7-19.11,7.44-26.1,7.44Z" fill="#323776"/><path d="M596.48,47.88s-52.74,20.74-56.54-23.15c-3.8-43.89,60.98-11.72,60.98-11.72,0,0,12.75-33.36,59.97,6.75,0,0,28.33-16.89,34.85,9.19,6.52,26.07-26.07,104.22-53.86,28.96,0,0-24.31,20.99-45.4-10.04Z" fill="#323776"/><path d="M676.22,165.05l31.67-65.01c5.99-10.19,9.2-21.85,8.78-33.66-.56-15.74-7.47-24.82-34.96-29.62-153.17-26.76-40.67,121.79-40.67,121.79l35.19,6.5Z" fill="#323776"/><path d="M632.34,104.27c6.3-.19,20.67,6.53,15.98,26.34-4.69,19.81-30.05,14.12-30.05,14.12l-10.9-28.74c15.01-11.24,18.67-11.53,24.96-11.72Z" fill="#f4cebe"/><path d="M620.24,126.62c-.14,0-.27-.02-.41-.07-.67-.23-1.04-.96-.81-1.63,3.31-9.83,12.73-9.94,12.86-9.94h0c.71,0,1.29.58,1.28,1.29,0,.71-.58,1.28-1.29,1.28h0c-.33,0-7.71.14-10.41,8.18-.18.54-.68.88-1.22.88Z" fill="#323776"/><path d="M648.89,25.55c-.3,0-.6-.1-.84-.31-11.47-9.85-21.32-14.12-28.51-12.36-6.11,1.5-8.29,6.77-8.37,7-.26.66-1.01.98-1.67.72-.66-.26-.98-1.01-.72-1.67.11-.27,2.71-6.7,10.11-8.54,8.15-2.02,18.52,2.32,30.85,12.9.54.46.6,1.28.14,1.82-.26.3-.61.45-.98.45Z" fill="#f9f9f9"/><path d="M626.55,146.78c-.71,0-1.28-.57-1.29-1.27,0-.71.56-1.29,1.27-1.3,7.89-.08,17.85-2.55,20.54-13.89,1.82-7.69.8-14.19-2.95-18.79-3.69-4.52-9-6.05-11.74-5.96-5.93.18-11.83,2.74-21.04,9.12-.59.41-1.39.26-1.79-.32-.4-.58-.26-1.39.33-1.79,9.66-6.69,15.95-9.38,22.42-9.58,3.84-.1,9.8,1.99,13.81,6.91,2.98,3.66,6,10.27,3.46,21.01-2.39,10.11-10.57,15.75-23.01,15.87h-.01Z" fill="#323776"/><path d="M558.71,139.66c-2.79,0-13.47-.54-14.49-8.81-1.15-9.32,11.61-11.91,12.15-12.01.69-.14,1.37.32,1.51,1.02.14.7-.32,1.37-1.02,1.51-.11.02-10.95,2.23-10.09,9.17.86,6.96,12.35,6.54,12.47,6.54.71-.01,1.31.52,1.34,1.23.03.71-.52,1.31-1.23,1.34-.06,0-.29.01-.65.01Z" fill="#323776"/><path d="M576.03,152.95c-5.6,0-9.28-3.48-9.34-3.53-.51-.49-.52-1.31-.03-1.82.49-.51,1.31-.52,1.82-.03h0c.28.27,6.95,6.46,15.91-.37.56-.43,1.38-.32,1.8.24.43.57.32,1.37-.24,1.8-3.66,2.79-7.04,3.71-9.93,3.71Z" fill="#323776"/><path d="M591.85,218.84s28.85-22.24,92.87-20.03c0,0,3.73,8.9,5.26,23.5,2.24,21.4-53.33,33.82-84.69,26.01-16.25-4.05-13.28-27.29-13.44-29.48Z" fill="#959fd8"/><path d="M593.63,238.25c-.53,0-1.03-.33-1.22-.86-2.32-6.63-2.01-14.03-1.88-17.18.03-.62.05-1.06.03-1.27-.03-.43.16-.85.5-1.11,1.19-.92,29.98-22.5,93.7-20.3.5.02.95.33,1.14.79.16.37,3.82,9.24,5.35,23.86.07.71-.44,1.34-1.15,1.41-.71.06-1.34-.44-1.41-1.15-1.24-11.84-3.97-19.94-4.87-22.37-32.33-1.01-55.34,4.37-68.98,9.09-12.7,4.39-19.84,9.03-21.72,10.34,0,.23-.02.49-.03.81-.12,3.01-.41,10.06,1.74,16.23.23.67-.12,1.41-.79,1.64-.14.05-.28.07-.42.07Z" fill="#323776"/><path d="M778.92,508.39s18.45-182.47-19.82-243.77c-38.27-61.3-128.29-50.12-157.35-45.07-29.06,5.06-76.54,22.75-85.75,72.36-9.21,49.62,4.25,179.06,14.88,216.48h248.04Z" fill="#959fd8"/><path d="M530.88,509.68c-.56,0-1.08-.37-1.24-.94-10.5-36.94-24.11-167.5-14.91-217.07,4.14-22.31,16.25-40.39,35.98-53.72,18.78-12.69,39.9-17.77,50.82-19.67,35.31-6.14,121.43-13.99,158.66,45.65l.21.34c7.42,11.73,20.21,39.57,22.55,94.3.03.71-.52,1.31-1.23,1.34-.68.04-1.31-.52-1.34-1.23-.8-18.7-4.56-65.22-22.15-93.03l-.22-.35c-36.4-58.32-121.25-50.53-156.04-44.48-66.65,11.6-81.44,53.74-84.71,71.33-9.15,49.28,4.41,179.13,14.86,215.89.19.68-.2,1.4-.89,1.59-.12.03-.24.05-.35.05Z" fill="#323776"/><path d="M778.92,509.68s-.09,0-.14,0c-.71-.07-1.22-.71-1.15-1.42.08-.74,7.7-74.55,2.74-149.55-.05-.71.49-1.32,1.2-1.37.7-.05,1.32.49,1.37,1.2,4.97,75.22-2.67,149.25-2.75,149.99-.07.66-.63,1.15-1.28,1.15Z" fill="#323776"/><path d="M483.59,449.82c-.2-11.08.89-22.13,2.92-33.07,5.8-31.3,21.13-109.66,34.84-142.47,17.33-41.47,51.35-25.81,78.98,11.55,27.64,37.36-12.05,147.33-12.05,147.33,0,0-12.9,80.52-60.31,73.44-37.25-5.56-43.92-31.72-44.38-56.78Z" fill="#959fd8"/><path d="M533.81,508.33c-1.99,0-3.99-.15-6.02-.45-17.45-2.61-29.52-9.7-36.9-21.68-5.57-9.05-8.3-20.6-8.58-36.35-.19-10.55.79-21.77,2.94-33.33.73-3.95,1.6-9.21,2.61-15.32,6.99-42.28,21.53-130.25,52.15-154.85.55-.45,1.36-.36,1.81.2.45.55.36,1.36-.2,1.81-29.85,23.99-44.28,111.3-51.22,153.26-1.01,6.11-1.88,11.39-2.62,15.36-2.11,11.39-3.09,22.43-2.89,32.81.42,22.91,5.72,49.92,43.29,55.53,45.7,6.83,65.68-70.33,65.88-71.11.12-.42,11-36.61,18.52-68.51.16-.69.86-1.13,1.55-.96.69.16,1.12.86.96,1.55-7.54,31.98-18.44,68.24-18.55,68.6-.03.14-5.13,20.12-16,38.96-13.07,22.67-29.13,34.46-46.72,34.46Z" fill="#323776"/><path d="M617.47,344.89c-.07,0-.15,0-.23-.02-.7-.12-1.17-.79-1.04-1.49.09-.51,8.42-51.56-49.19-84.81-.62-.36-.83-1.14-.47-1.76.36-.62,1.14-.83,1.76-.47,59.23,34.18,50.53,86.97,50.44,87.5-.11.62-.65,1.06-1.27,1.06Z" fill="#323776"/><path d="M492.51,407.19s-139.68,7.4-170.82,11.3c0,0-18.76,40.47-1.77,69.57,0,0,184.31,28.72,219.4,17.91,35.09-10.82,6.65-75.22-46.81-98.77Z" fill="#959fd8"/><path d="M517.25,509.17c-22.1,0-54.9-2.37-98.1-7.11-51.31-5.63-98.94-12.66-99.41-12.73-.39-.06-.73-.29-.92-.62-8.98-15.37-8.02-33.81-5.64-46.58,2.57-13.76,7.16-23.76,7.36-24.18.19-.4.57-.68,1.01-.74,30.83-3.86,165.35-11.23,166.7-11.3.38-.02.75.13,1.01.41.26.28.38.66.34,1.04-.01.11-1.3,10.72,1.65,20.41.21.68-.18,1.4-.86,1.61-.68.21-1.4-.18-1.61-.86-2.47-8.1-2.16-16.56-1.89-19.96-14.79.82-134.09,7.47-164.3,11.12-2.25,5.24-16.64,41.05-1.85,67.19,11.95,1.75,190.43,27.6,223.86,17.3.68-.21,1.4.17,1.61.85.21.68-.17,1.4-.85,1.61-5.51,1.7-14.9,2.55-28.1,2.55Z" fill="#323776"/><path d="M678.61,303.66h0c73.43,0,132.95,59.52,132.95,132.95v74.1s-289.25,0-289.25,0l27.53-107.18c15.1-58.78,68.08-99.87,128.77-99.87Z" fill="#f9f9f9"/><path d="M522.31,512c-.11,0-.21-.01-.32-.04-.69-.18-1.1-.88-.93-1.57l27.53-107.18c15.25-59.37,68.72-100.84,130.02-100.84,74.02,0,134.24,60.22,134.24,134.24v74.1c0,.71-.58,1.29-1.29,1.29s-1.29-.58-1.29-1.29v-74.1c0-72.6-59.06-131.66-131.66-131.66-60.12,0-112.56,40.67-127.52,98.9l-27.53,107.18c-.15.58-.67.97-1.25.97Z" fill="#323776"/></svg>